<svg width="130" height="130" viewBox="0 0 130 130" fill="none" xmlns="http://www.w3.org/2000/svg">
<rect x="0.25" y="0.25" width="7.33132" height="7.33132" fill="white" stroke="black" stroke-width="0.5"/>
<rect x="7.88574" y="0.25" width="7.33132" height="7.33132" fill="white" stroke="black" stroke-width="0.5"/>
<rect x="15.521" y="0.25" width="7.33132" height="7.33132" fill="white" stroke="black" stroke-width="0.5"/>
<rect x="23.1567" y="0.25" width="7.33132" height="7.33132" fill="white" stroke="black" stroke-width="0.5"/>
<rect x="30.792" y="0.25" width="7.33132" height="7.33132" fill="white" stroke="black" stroke-width="0.5"/>
<rect x="38.4277" y="0.25" width="7.33132" height="7.33132" fill="white" stroke="black" stroke-width="0.5"/>
<rect x="46.063" y="0.25" width="7.33132" height="7.33132" fill="white" stroke="black" stroke-width="0.5"/>
<rect x="53.6987" y="0.25" width="7.33132" height="7.33132" fill="white" stroke="black" stroke-width="0.5"/>
<rect x="61.334" y="0.25" width="7.33132" height="7.33132" fill="white" stroke="black" stroke-width="0.5"/>
<rect x="68.9702" y="0.25" width="7.33132" height="7.33132" fill="white" stroke="black" stroke-width="0.5"/>
<rect x="76.6055" y="0.25" width="7.33132" height="7.33132" fill="white" stroke="black" stroke-width="0.5"/>
<rect x="84.2407" y="0.25" width="7.33132" height="7.33132" fill="white" stroke="black" stroke-width="0.5"/>
<rect x="91.8765" y="0.25" width="7.33132" height="7.33132" fill="white" stroke="black" stroke-width="0.5"/>
<rect x="99.5117" y="0.25" width="7.33132" height="7.33132" fill="white" stroke="black" stroke-width="0.5"/>
<rect x="107.147" y="0.25" width="7.33132" height="7.33132" fill="white" stroke="black" stroke-width="0.5"/>
<rect x="114.783" y="0.25" width="7.33132" height="7.33132" fill="white" stroke="black" stroke-width="0.5"/>
<rect x="122.418" y="0.25" width="7.33132" height="7.33132" fill="white" stroke="black" stroke-width="0.5"/>
<rect x="0.25" y="7.88623" width="7.33132" height="7.33132" fill="white" stroke="black" stroke-width="0.5"/>
<rect x="7.88574" y="7.88574" width="7.33132" height="7.33132" fill="white" stroke="black" stroke-width="0.5"/>
<rect x="15.521" y="7.88574" width="7.33132" height="7.33132" fill="white" stroke="black" stroke-width="0.5"/>
<rect x="23.1567" y="7.88574" width="7.33132" height="7.33132" fill="white" stroke="black" stroke-width="0.5"/>
<rect x="30.792" y="7.88574" width="7.33132" height="7.33132" fill="white" stroke="black" stroke-width="0.5"/>
<rect x="38.4277" y="7.88574" width="7.33132" height="7.33132" fill="white" stroke="black" stroke-width="0.5"/>
<rect x="46.063" y="7.88574" width="7.33132" height="7.33132" fill="white" stroke="black" stroke-width="0.5"/>
<rect x="53.6987" y="7.88574" width="7.33132" height="7.33132" fill="white" stroke="black" stroke-width="0.5"/>
<rect x="61.334" y="7.88574" width="7.33132" height="7.33132" fill="white" stroke="black" stroke-width="0.5"/>
<rect x="68.9702" y="7.88574" width="7.33132" height="7.33132" fill="white" stroke="black" stroke-width="0.5"/>
<rect x="76.6055" y="7.88574" width="7.33132" height="7.33132" fill="white" stroke="black" stroke-width="0.5"/>
<rect x="84.2407" y="7.88574" width="7.33132" height="7.33132" fill="white" stroke="black" stroke-width="0.5"/>
<rect x="91.8765" y="7.88574" width="7.33132" height="7.33132" fill="white" stroke="black" stroke-width="0.5"/>
<rect x="99.5117" y="7.88574" width="7.33132" height="7.33132" fill="white" stroke="black" stroke-width="0.5"/>
<rect x="107.147" y="7.88574" width="7.33132" height="7.33132" fill="white" stroke="black" stroke-width="0.5"/>
<rect x="114.783" y="7.88574" width="7.33132" height="7.33132" fill="white" stroke="black" stroke-width="0.5"/>
<rect x="122.418" y="7.88574" width="7.33132" height="7.33132" fill="white" stroke="black" stroke-width="0.5"/>
<rect x="0.25" y="15.521" width="7.33132" height="7.33132" fill="white" stroke="black" stroke-width="0.5"/>
<rect x="7.88574" y="15.521" width="7.33132" height="7.33132" fill="white" stroke="black" stroke-width="0.5"/>
<rect x="15.521" y="15.521" width="7.33132" height="7.33132" fill="white" stroke="black" stroke-width="0.5"/>
<rect x="23.1567" y="15.521" width="7.33132" height="7.33132" fill="white" stroke="black" stroke-width="0.5"/>
<rect x="30.792" y="15.521" width="7.33132" height="7.33132" fill="white" stroke="black" stroke-width="0.5"/>
<rect x="38.4277" y="15.521" width="7.33132" height="7.33132" fill="white" stroke="black" stroke-width="0.5"/>
<rect x="46.063" y="15.521" width="7.33132" height="7.33132" fill="white" stroke="black" stroke-width="0.5"/>
<rect x="53.6987" y="15.521" width="7.33132" height="7.33132" fill="white" stroke="black" stroke-width="0.5"/>
<rect x="61.334" y="15.521" width="7.33132" height="7.33132" fill="white" stroke="black" stroke-width="0.5"/>
<rect x="68.9702" y="15.521" width="7.33132" height="7.33132" fill="white" stroke="black" stroke-width="0.5"/>
<rect x="76.6055" y="15.521" width="7.33132" height="7.33132" fill="white" stroke="black" stroke-width="0.5"/>
<rect x="84.2407" y="15.521" width="7.33132" height="7.33132" fill="white" stroke="black" stroke-width="0.5"/>
<rect x="91.8765" y="15.521" width="7.33132" height="7.33132" fill="white" stroke="black" stroke-width="0.5"/>
<rect x="99.5117" y="15.521" width="7.33132" height="7.33132" fill="white" stroke="black" stroke-width="0.5"/>
<rect x="107.147" y="15.521" width="7.33132" height="7.33132" fill="white" stroke="black" stroke-width="0.5"/>
<rect x="114.783" y="15.521" width="7.33132" height="7.33132" fill="white" stroke="black" stroke-width="0.5"/>
<rect x="122.418" y="15.521" width="7.33132" height="7.33132" fill="white" stroke="black" stroke-width="0.5"/>
<rect x="0.25" y="23.1572" width="7.33132" height="7.33132" fill="white" stroke="black" stroke-width="0.5"/>
<rect x="7.88574" y="23.1567" width="7.33132" height="7.33132" fill="white" stroke="black" stroke-width="0.5"/>
<rect x="15.521" y="23.1567" width="7.33132" height="7.33132" fill="white" stroke="black" stroke-width="0.5"/>
<rect x="23.1567" y="23.1567" width="7.33132" height="7.33132" fill="#F82020" stroke="black" stroke-width="0.5"/>
<rect x="30.792" y="23.1567" width="7.33132" height="7.33132" fill="#F82020" stroke="black" stroke-width="0.5"/>
<rect x="38.4277" y="23.1567" width="7.33132" height="7.33132" fill="#F82020" stroke="black" stroke-width="0.5"/>
<rect x="46.063" y="23.1567" width="7.33132" height="7.33132" fill="#F82020" stroke="black" stroke-width="0.5"/>
<rect x="53.6987" y="23.1567" width="7.33132" height="7.33132" fill="white" stroke="black" stroke-width="0.5"/>
<rect x="61.334" y="23.1567" width="7.33132" height="7.33132" fill="white" stroke="black" stroke-width="0.5"/>
<rect x="68.9702" y="23.1567" width="7.33132" height="7.33132" fill="white" stroke="black" stroke-width="0.5"/>
<rect x="76.6055" y="23.1567" width="7.33132" height="7.33132" fill="#F82020" stroke="black" stroke-width="0.5"/>
<rect x="84.2407" y="23.1567" width="7.33132" height="7.33132" fill="#F82020" stroke="black" stroke-width="0.5"/>
<rect x="91.8765" y="23.1567" width="7.33132" height="7.33132" fill="#F82020" stroke="black" stroke-width="0.5"/>
<rect x="99.5117" y="23.1567" width="7.33132" height="7.33132" fill="#F82020" stroke="black" stroke-width="0.5"/>
<rect x="107.147" y="23.1567" width="7.33132" height="7.33132" fill="white" stroke="black" stroke-width="0.5"/>
<rect x="114.783" y="23.1567" width="7.33132" height="7.33132" fill="white" stroke="black" stroke-width="0.5"/>
<rect x="122.418" y="23.1567" width="7.33132" height="7.33132" fill="white" stroke="black" stroke-width="0.5"/>
<rect x="0.25" y="30.7925" width="7.33132" height="7.33132" fill="white" stroke="black" stroke-width="0.5"/>
<rect x="7.88574" y="30.792" width="7.33132" height="7.33132" fill="white" stroke="black" stroke-width="0.5"/>
<rect x="15.521" y="30.792" width="7.33132" height="7.33132" fill="#F82020" stroke="black" stroke-width="0.5"/>
<rect x="23.1567" y="30.792" width="7.33132" height="7.33132" fill="#F82020" stroke="black" stroke-width="0.5"/>
<rect x="30.792" y="30.792" width="7.33132" height="7.33132" fill="#F82020" stroke="black" stroke-width="0.5"/>
<rect x="38.4277" y="30.792" width="7.33132" height="7.33132" fill="#F82020" stroke="black" stroke-width="0.5"/>
<rect x="46.063" y="30.792" width="7.33132" height="7.33132" fill="#F82020" stroke="black" stroke-width="0.5"/>
<rect x="53.6987" y="30.792" width="7.33132" height="7.33132" fill="#F82020" stroke="black" stroke-width="0.5"/>
<rect x="61.334" y="30.792" width="7.33132" height="7.33132" fill="white" stroke="black" stroke-width="0.5"/>
<rect x="68.9702" y="30.792" width="7.33132" height="7.33132" fill="#F82020" stroke="black" stroke-width="0.5"/>
<rect x="76.6055" y="30.792" width="7.33132" height="7.33132" fill="#F82020" stroke="black" stroke-width="0.5"/>
<rect x="84.2407" y="30.792" width="7.33132" height="7.33132" fill="#F82020" stroke="black" stroke-width="0.5"/>
<rect x="91.8765" y="30.792" width="7.33132" height="7.33132" fill="#F82020" stroke="black" stroke-width="0.5"/>
<rect x="99.5117" y="30.792" width="7.33132" height="7.33132" fill="#F82020" stroke="black" stroke-width="0.5"/>
<rect x="107.147" y="30.792" width="7.33132" height="7.33132" fill="#F82020" stroke="black" stroke-width="0.5"/>
<rect x="114.783" y="30.792" width="7.33132" height="7.33132" fill="white" stroke="black" stroke-width="0.5"/>
<rect x="122.418" y="30.792" width="7.33132" height="7.33132" fill="white" stroke="black" stroke-width="0.5"/>
<rect x="0.25" y="38.4282" width="7.33132" height="7.33132" fill="white" stroke="black" stroke-width="0.5"/>
<rect x="7.88574" y="38.4277" width="7.33132" height="7.33132" fill="#F82020" stroke="black" stroke-width="0.5"/>
<rect x="15.521" y="38.4277" width="7.33132" height="7.33132" fill="#F82020" stroke="black" stroke-width="0.5"/>
<rect x="23.1567" y="38.4277" width="7.33132" height="7.33132" fill="#FF6060" stroke="black" stroke-width="0.5"/>
<rect x="30.792" y="38.4277" width="7.33132" height="7.33132" fill="#FF6060" stroke="black" stroke-width="0.5"/>
<rect x="38.4277" y="38.4277" width="7.33132" height="7.33132" fill="#FF6060" stroke="black" stroke-width="0.5"/>
<rect x="46.063" y="38.4277" width="7.33132" height="7.33132" fill="#FF6060" stroke="black" stroke-width="0.5"/>
<rect x="53.6987" y="38.4277" width="7.33132" height="7.33132" fill="#F82020" stroke="black" stroke-width="0.5"/>
<rect x="61.334" y="38.4277" width="7.33132" height="7.33132" fill="#F82020" stroke="black" stroke-width="0.5"/>
<rect x="68.9702" y="38.4277" width="7.33132" height="7.33132" fill="#F82020" stroke="black" stroke-width="0.5"/>
<rect x="76.6055" y="38.4277" width="7.33132" height="7.33132" fill="#FF6060" stroke="black" stroke-width="0.5"/>
<rect x="84.2407" y="38.4277" width="7.33132" height="7.33132" fill="#FF6060" stroke="black" stroke-width="0.5"/>
<rect x="91.8765" y="38.4277" width="7.33132" height="7.33132" fill="#FF6060" stroke="black" stroke-width="0.5"/>
<rect x="99.5117" y="38.4277" width="7.33132" height="7.33132" fill="#FF6060" stroke="black" stroke-width="0.5"/>
<rect x="107.147" y="38.4277" width="7.33132" height="7.33132" fill="#F82020" stroke="black" stroke-width="0.5"/>
<rect x="114.783" y="38.4277" width="7.33132" height="7.33132" fill="#F82020" stroke="black" stroke-width="0.5"/>
<rect x="122.418" y="38.4277" width="7.33132" height="7.33132" fill="white" stroke="black" stroke-width="0.5"/>
<rect x="0.25" y="46.0635" width="7.33132" height="7.33132" fill="white" stroke="black" stroke-width="0.5"/>
<rect x="7.88574" y="46.0635" width="7.33132" height="7.33132" fill="#F82020" stroke="black" stroke-width="0.5"/>
<rect x="15.521" y="46.0635" width="7.33132" height="7.33132" fill="#F82020" stroke="black" stroke-width="0.5"/>
<rect x="23.1567" y="46.0635" width="7.33132" height="7.33132" fill="#FF6060" stroke="black" stroke-width="0.5"/>
<rect x="30.792" y="46.0635" width="7.33132" height="7.33132" fill="#FF6060" stroke="black" stroke-width="0.5"/>
<rect x="38.4277" y="46.0635" width="7.33132" height="7.33132" fill="#FF6060" stroke="black" stroke-width="0.5"/>
<rect x="46.063" y="46.0635" width="7.33132" height="7.33132" fill="#FF6060" stroke="black" stroke-width="0.5"/>
<rect x="53.6987" y="46.0635" width="7.33132" height="7.33132" fill="#FF6060" stroke="black" stroke-width="0.5"/>
<rect x="61.334" y="46.0635" width="7.33132" height="7.33132" fill="#F82020" stroke="black" stroke-width="0.5"/>
<rect x="68.9702" y="46.0635" width="7.33132" height="7.33132" fill="#FF6060" stroke="black" stroke-width="0.5"/>
<rect x="76.6055" y="46.0635" width="7.33132" height="7.33132" fill="#FF6060" stroke="black" stroke-width="0.5"/>
<rect x="84.2407" y="46.0635" width="7.33132" height="7.33132" fill="#FF6060" stroke="black" stroke-width="0.5"/>
<rect x="91.8765" y="46.0635" width="7.33132" height="7.33132" fill="#FF6060" stroke="black" stroke-width="0.5"/>
<rect x="99.5117" y="46.0635" width="7.33132" height="7.33132" fill="#FF6060" stroke="black" stroke-width="0.5"/>
<rect x="107.147" y="46.0635" width="7.33132" height="7.33132" fill="#F82020" stroke="black" stroke-width="0.5"/>
<rect x="114.783" y="46.0635" width="7.33132" height="7.33132" fill="#F82020" stroke="black" stroke-width="0.5"/>
<rect x="122.418" y="46.0635" width="7.33132" height="7.33132" fill="white" stroke="black" stroke-width="0.5"/>
<rect x="0.25" y="53.6997" width="7.33132" height="7.33132" fill="white" stroke="black" stroke-width="0.5"/>
<rect x="7.88574" y="53.6987" width="7.33132" height="7.33132" fill="#F82020" stroke="black" stroke-width="0.5"/>
<rect x="15.521" y="53.6987" width="7.33132" height="7.33132" fill="#F82020" stroke="black" stroke-width="0.5"/>
<rect x="23.1567" y="53.6987" width="7.33132" height="7.33132" fill="#FF6060" stroke="black" stroke-width="0.5"/>
<rect x="30.792" y="53.6987" width="7.33132" height="7.33132" fill="#FF6060" stroke="black" stroke-width="0.5"/>
<rect x="38.4277" y="53.6987" width="7.33132" height="7.33132" fill="#FF6060" stroke="black" stroke-width="0.5"/>
<rect x="46.063" y="53.6987" width="7.33132" height="7.33132" fill="#FF6060" stroke="black" stroke-width="0.5"/>
<rect x="53.6987" y="53.6987" width="7.33132" height="7.33132" fill="#FF6060" stroke="black" stroke-width="0.5"/>
<rect x="61.334" y="53.6987" width="7.33132" height="7.33132" fill="#FF6060" stroke="black" stroke-width="0.5"/>
<rect x="68.9702" y="53.6987" width="7.33132" height="7.33132" fill="#FF6060" stroke="black" stroke-width="0.5"/>
<rect x="76.6055" y="53.6987" width="7.33132" height="7.33132" fill="#FF6060" stroke="black" stroke-width="0.5"/>
<rect x="84.2407" y="53.6987" width="7.33132" height="7.33132" fill="#FF6060" stroke="black" stroke-width="0.5"/>
<rect x="91.8765" y="53.6987" width="7.33132" height="7.33132" fill="#FF6060" stroke="black" stroke-width="0.5"/>
<rect x="99.5117" y="53.6987" width="7.33132" height="7.33132" fill="#FF6060" stroke="black" stroke-width="0.5"/>
<rect x="107.147" y="53.6987" width="7.33132" height="7.33132" fill="#F82020" stroke="black" stroke-width="0.5"/>
<rect x="114.783" y="53.6987" width="7.33132" height="7.33132" fill="#F82020" stroke="black" stroke-width="0.5"/>
<rect x="122.418" y="53.6987" width="7.33132" height="7.33132" fill="white" stroke="black" stroke-width="0.5"/>
<rect x="0.25" y="61.335" width="7.33132" height="7.33132" fill="white" stroke="black" stroke-width="0.5"/>
<rect x="7.88574" y="61.3345" width="7.33132" height="7.33132" fill="#F82020" stroke="black" stroke-width="0.5"/>
<rect x="15.521" y="61.3345" width="7.33132" height="7.33132" fill="#F82020" stroke="black" stroke-width="0.5"/>
<rect x="23.1567" y="61.3345" width="7.33132" height="7.33132" fill="#FF6060" stroke="black" stroke-width="0.5"/>
<rect x="30.792" y="61.3345" width="7.33132" height="7.33132" fill="#FF6060" stroke="black" stroke-width="0.5"/>
<rect x="38.4277" y="61.3345" width="7.33132" height="7.33132" fill="#FF6060" stroke="black" stroke-width="0.5"/>
<rect x="46.063" y="61.3345" width="7.33132" height="7.33132" fill="#FF6060" stroke="black" stroke-width="0.5"/>
<rect x="53.6987" y="61.3345" width="7.33132" height="7.33132" fill="#FF6060" stroke="black" stroke-width="0.5"/>
<rect x="61.334" y="61.3345" width="7.33132" height="7.33132" fill="#FF6060" stroke="black" stroke-width="0.5"/>
<rect x="68.9702" y="61.3345" width="7.33132" height="7.33132" fill="#FF6060" stroke="black" stroke-width="0.5"/>
<rect x="76.6055" y="61.3345" width="7.33132" height="7.33132" fill="#FF6060" stroke="black" stroke-width="0.5"/>
<rect x="84.2407" y="61.3345" width="7.33132" height="7.33132" fill="#FF6060" stroke="black" stroke-width="0.5"/>
<rect x="91.8765" y="61.3345" width="7.33132" height="7.33132" fill="#FF6060" stroke="black" stroke-width="0.5"/>
<rect x="99.5117" y="61.3345" width="7.33132" height="7.33132" fill="#FF6060" stroke="black" stroke-width="0.5"/>
<rect x="107.147" y="61.3345" width="7.33132" height="7.33132" fill="#F82020" stroke="black" stroke-width="0.5"/>
<rect x="114.783" y="61.3345" width="7.33132" height="7.33132" fill="#F82020" stroke="black" stroke-width="0.5"/>
<rect x="122.418" y="61.3345" width="7.33132" height="7.33132" fill="white" stroke="black" stroke-width="0.5"/>
<rect x="0.25" y="68.9702" width="7.33132" height="7.33132" fill="white" stroke="black" stroke-width="0.5"/>
<rect x="7.88574" y="68.9697" width="7.33132" height="7.33132" fill="white" stroke="black" stroke-width="0.5"/>
<rect x="15.521" y="68.9697" width="7.33132" height="7.33132" fill="#F82020" stroke="black" stroke-width="0.5"/>
<rect x="23.1567" y="68.9697" width="7.33132" height="7.33132" fill="#F82020" stroke="black" stroke-width="0.5"/>
<rect x="30.792" y="68.9697" width="7.33132" height="7.33132" fill="#FF6060" stroke="black" stroke-width="0.5"/>
<rect x="38.4277" y="68.9697" width="7.33132" height="7.33132" fill="#FF6060" stroke="black" stroke-width="0.5"/>
<rect x="46.063" y="68.9697" width="7.33132" height="7.33132" fill="#FF6060" stroke="black" stroke-width="0.5"/>
<rect x="53.6987" y="68.9697" width="7.33132" height="7.33132" fill="#FF6060" stroke="black" stroke-width="0.5"/>
<rect x="61.334" y="68.9697" width="7.33132" height="7.33132" fill="#FF6060" stroke="black" stroke-width="0.5"/>
<rect x="68.9702" y="68.9697" width="7.33132" height="7.33132" fill="#FF6060" stroke="black" stroke-width="0.5"/>
<rect x="76.6055" y="68.9697" width="7.33132" height="7.33132" fill="#FF6060" stroke="black" stroke-width="0.5"/>
<rect x="84.2407" y="68.9697" width="7.33132" height="7.33132" fill="#FF6060" stroke="black" stroke-width="0.5"/>
<rect x="91.8765" y="68.9697" width="7.33132" height="7.33132" fill="#FF6060" stroke="black" stroke-width="0.5"/>
<rect x="99.5117" y="68.9697" width="7.33132" height="7.33132" fill="#F82020" stroke="black" stroke-width="0.5"/>
<rect x="107.147" y="68.9697" width="7.33132" height="7.33132" fill="#F82020" stroke="black" stroke-width="0.5"/>
<rect x="114.783" y="68.9697" width="7.33132" height="7.33132" fill="white" stroke="black" stroke-width="0.5"/>
<rect x="122.418" y="68.9697" width="7.33132" height="7.33132" fill="white" stroke="black" stroke-width="0.5"/>
<rect x="0.25" y="76.606" width="7.33132" height="7.33132" fill="white" stroke="black" stroke-width="0.5"/>
<rect x="7.88574" y="76.6055" width="7.33132" height="7.33132" fill="white" stroke="black" stroke-width="0.5"/>
<rect x="15.521" y="76.6055" width="7.33132" height="7.33132" fill="white" stroke="black" stroke-width="0.5"/>
<rect x="23.1567" y="76.6055" width="7.33132" height="7.33132" fill="#F82020" stroke="black" stroke-width="0.5"/>
<rect x="30.792" y="76.6055" width="7.33132" height="7.33132" fill="#F82020" stroke="black" stroke-width="0.5"/>
<rect x="38.4277" y="76.6055" width="7.33132" height="7.33132" fill="#FF6060" stroke="black" stroke-width="0.5"/>
<rect x="46.063" y="76.6055" width="7.33132" height="7.33132" fill="#FF6060" stroke="black" stroke-width="0.5"/>
<rect x="53.6987" y="76.6055" width="7.33132" height="7.33132" fill="#FF6060" stroke="black" stroke-width="0.5"/>
<rect x="61.334" y="76.6055" width="7.33132" height="7.33132" fill="#FF6060" stroke="black" stroke-width="0.5"/>
<rect x="68.9702" y="76.6055" width="7.33132" height="7.33132" fill="#FF6060" stroke="black" stroke-width="0.5"/>
<rect x="76.6055" y="76.6055" width="7.33132" height="7.33132" fill="#FF6060" stroke="black" stroke-width="0.5"/>
<rect x="84.2407" y="76.6055" width="7.33132" height="7.33132" fill="#FF6060" stroke="black" stroke-width="0.5"/>
<rect x="91.8765" y="76.6055" width="7.33132" height="7.33132" fill="#F82020" stroke="black" stroke-width="0.5"/>
<rect x="99.5117" y="76.6055" width="7.33132" height="7.33132" fill="#F82020" stroke="black" stroke-width="0.5"/>
<rect x="107.147" y="76.6055" width="7.33132" height="7.33132" fill="white" stroke="black" stroke-width="0.5"/>
<rect x="114.783" y="76.6055" width="7.33132" height="7.33132" fill="white" stroke="black" stroke-width="0.5"/>
<rect x="122.418" y="76.6055" width="7.33132" height="7.33132" fill="white" stroke="black" stroke-width="0.5"/>
<rect x="0.25" y="84.2407" width="7.33132" height="7.33132" fill="white" stroke="black" stroke-width="0.5"/>
<rect x="7.88574" y="84.2407" width="7.33132" height="7.33132" fill="white" stroke="black" stroke-width="0.5"/>
<rect x="15.521" y="84.2407" width="7.33132" height="7.33132" fill="white" stroke="black" stroke-width="0.5"/>
<rect x="23.1567" y="84.2407" width="7.33132" height="7.33132" fill="white" stroke="black" stroke-width="0.5"/>
<rect x="30.792" y="84.2407" width="7.33132" height="7.33132" fill="#F82020" stroke="black" stroke-width="0.5"/>
<rect x="38.4277" y="84.2407" width="7.33132" height="7.33132" fill="#F82020" stroke="black" stroke-width="0.5"/>
<rect x="46.063" y="84.2407" width="7.33132" height="7.33132" fill="#FF6060" stroke="black" stroke-width="0.5"/>
<rect x="53.6987" y="84.2407" width="7.33132" height="7.33132" fill="#FF6060" stroke="black" stroke-width="0.5"/>
<rect x="61.334" y="84.2407" width="7.33132" height="7.33132" fill="#FF6060" stroke="black" stroke-width="0.5"/>
<rect x="68.9702" y="84.2407" width="7.33132" height="7.33132" fill="#FF6060" stroke="black" stroke-width="0.5"/>
<rect x="76.6055" y="84.2407" width="7.33132" height="7.33132" fill="#FF6060" stroke="black" stroke-width="0.5"/>
<rect x="84.2407" y="84.2407" width="7.33132" height="7.33132" fill="#F82020" stroke="black" stroke-width="0.5"/>
<rect x="91.8765" y="84.2407" width="7.33132" height="7.33132" fill="#F82020" stroke="black" stroke-width="0.5"/>
<rect x="99.5117" y="84.2407" width="7.33132" height="7.33132" fill="white" stroke="black" stroke-width="0.5"/>
<rect x="107.147" y="84.2407" width="7.33132" height="7.33132" fill="white" stroke="black" stroke-width="0.5"/>
<rect x="114.783" y="84.2407" width="7.33132" height="7.33132" fill="white" stroke="black" stroke-width="0.5"/>
<rect x="122.418" y="84.2407" width="7.33132" height="7.33132" fill="white" stroke="black" stroke-width="0.5"/>
<rect x="0.25" y="91.876" width="7.33132" height="7.33132" fill="white" stroke="black" stroke-width="0.5"/>
<rect x="7.88574" y="91.876" width="7.33132" height="7.33132" fill="white" stroke="black" stroke-width="0.5"/>
<rect x="15.521" y="91.876" width="7.33132" height="7.33132" fill="white" stroke="black" stroke-width="0.5"/>
<rect x="23.1567" y="91.876" width="7.33132" height="7.33132" fill="white" stroke="black" stroke-width="0.5"/>
<rect x="30.792" y="91.876" width="7.33132" height="7.33132" fill="white" stroke="black" stroke-width="0.5"/>
<rect x="38.4277" y="91.876" width="7.33132" height="7.33132" fill="#F82020" stroke="black" stroke-width="0.5"/>
<rect x="46.063" y="91.876" width="7.33132" height="7.33132" fill="#F82020" stroke="black" stroke-width="0.5"/>
<rect x="53.6987" y="91.876" width="7.33132" height="7.33132" fill="#FF6060" stroke="black" stroke-width="0.5"/>
<rect x="61.334" y="91.876" width="7.33132" height="7.33132" fill="#FF6060" stroke="black" stroke-width="0.5"/>
<rect x="68.9702" y="91.876" width="7.33132" height="7.33132" fill="#FF6060" stroke="black" stroke-width="0.5"/>
<rect x="76.6055" y="91.876" width="7.33132" height="7.33132" fill="#F82020" stroke="black" stroke-width="0.5"/>
<rect x="84.2407" y="91.876" width="7.33132" height="7.33132" fill="#F82020" stroke="black" stroke-width="0.5"/>
<rect x="91.8765" y="91.876" width="7.33132" height="7.33132" fill="white" stroke="black" stroke-width="0.5"/>
<rect x="99.5117" y="91.876" width="7.33132" height="7.33132" fill="white" stroke="black" stroke-width="0.5"/>
<rect x="107.147" y="91.876" width="7.33132" height="7.33132" fill="white" stroke="black" stroke-width="0.5"/>
<rect x="114.783" y="91.876" width="7.33132" height="7.33132" fill="white" stroke="black" stroke-width="0.5"/>
<rect x="122.418" y="91.876" width="7.33132" height="7.33132" fill="white" stroke="black" stroke-width="0.5"/>
<rect x="0.25" y="99.5122" width="7.33132" height="7.33132" fill="white" stroke="black" stroke-width="0.5"/>
<rect x="7.88574" y="99.5117" width="7.33132" height="7.33132" fill="white" stroke="black" stroke-width="0.5"/>
<rect x="15.521" y="99.5117" width="7.33132" height="7.33132" fill="white" stroke="black" stroke-width="0.5"/>
<rect x="23.1567" y="99.5117" width="7.33132" height="7.33132" fill="white" stroke="black" stroke-width="0.5"/>
<rect x="30.792" y="99.5117" width="7.33132" height="7.33132" fill="white" stroke="black" stroke-width="0.5"/>
<rect x="38.4277" y="99.5117" width="7.33132" height="7.33132" fill="white" stroke="black" stroke-width="0.5"/>
<rect x="46.063" y="99.5117" width="7.33132" height="7.33132" fill="#F82020" stroke="black" stroke-width="0.5"/>
<rect x="53.6987" y="99.5117" width="7.33132" height="7.33132" fill="#F82020" stroke="black" stroke-width="0.5"/>
<rect x="61.334" y="99.5117" width="7.33132" height="7.33132" fill="#FF6060" stroke="black" stroke-width="0.5"/>
<rect x="68.9702" y="99.5117" width="7.33132" height="7.33132" fill="#F82020" stroke="black" stroke-width="0.5"/>
<rect x="76.6055" y="99.5117" width="7.33132" height="7.33132" fill="#F82020" stroke="black" stroke-width="0.5"/>
<rect x="84.2407" y="99.5117" width="7.33132" height="7.33132" fill="white" stroke="black" stroke-width="0.5"/>
<rect x="91.8765" y="99.5117" width="7.33132" height="7.33132" fill="white" stroke="black" stroke-width="0.5"/>
<rect x="99.5117" y="99.5117" width="7.33132" height="7.33132" fill="white" stroke="black" stroke-width="0.5"/>
<rect x="107.147" y="99.5117" width="7.33132" height="7.33132" fill="white" stroke="black" stroke-width="0.5"/>
<rect x="114.783" y="99.5117" width="7.33132" height="7.33132" fill="white" stroke="black" stroke-width="0.5"/>
<rect x="122.418" y="99.5117" width="7.33132" height="7.33132" fill="white" stroke="black" stroke-width="0.5"/>
<rect x="0.25" y="107.147" width="7.33132" height="7.33132" fill="white" stroke="black" stroke-width="0.5"/>
<rect x="7.88574" y="107.147" width="7.33132" height="7.33132" fill="white" stroke="black" stroke-width="0.5"/>
<rect x="15.521" y="107.147" width="7.33132" height="7.33132" fill="white" stroke="black" stroke-width="0.5"/>
<rect x="23.1567" y="107.147" width="7.33132" height="7.33132" fill="white" stroke="black" stroke-width="0.5"/>
<rect x="30.792" y="107.147" width="7.33132" height="7.33132" fill="white" stroke="black" stroke-width="0.5"/>
<rect x="38.4277" y="107.147" width="7.33132" height="7.33132" fill="white" stroke="black" stroke-width="0.5"/>
<rect x="46.063" y="107.147" width="7.33132" height="7.33132" fill="white" stroke="black" stroke-width="0.5"/>
<rect x="53.6987" y="107.147" width="7.33132" height="7.33132" fill="#F82020" stroke="black" stroke-width="0.5"/>
<rect x="61.334" y="107.147" width="7.33132" height="7.33132" fill="#F82020" stroke="black" stroke-width="0.5"/>
<rect x="68.9702" y="107.147" width="7.33132" height="7.33132" fill="#F82020" stroke="black" stroke-width="0.5"/>
<rect x="76.6055" y="107.147" width="7.33132" height="7.33132" fill="white" stroke="black" stroke-width="0.5"/>
<rect x="84.2407" y="107.147" width="7.33132" height="7.33132" fill="white" stroke="black" stroke-width="0.5"/>
<rect x="91.8765" y="107.147" width="7.33132" height="7.33132" fill="white" stroke="black" stroke-width="0.5"/>
<rect x="99.5117" y="107.147" width="7.33132" height="7.33132" fill="white" stroke="black" stroke-width="0.5"/>
<rect x="107.147" y="107.147" width="7.33132" height="7.33132" fill="white" stroke="black" stroke-width="0.5"/>
<rect x="114.783" y="107.147" width="7.33132" height="7.33132" fill="white" stroke="black" stroke-width="0.5"/>
<rect x="122.418" y="107.147" width="7.33132" height="7.33132" fill="white" stroke="black" stroke-width="0.5"/>
<rect x="0.25" y="114.783" width="7.33132" height="7.33132" fill="white" stroke="black" stroke-width="0.5"/>
<rect x="7.88574" y="114.783" width="7.33132" height="7.33132" fill="white" stroke="black" stroke-width="0.5"/>
<rect x="15.521" y="114.783" width="7.33132" height="7.33132" fill="white" stroke="black" stroke-width="0.5"/>
<rect x="23.1567" y="114.783" width="7.33132" height="7.33132" fill="white" stroke="black" stroke-width="0.5"/>
<rect x="30.792" y="114.783" width="7.33132" height="7.33132" fill="white" stroke="black" stroke-width="0.5"/>
<rect x="38.4277" y="114.783" width="7.33132" height="7.33132" fill="white" stroke="black" stroke-width="0.5"/>
<rect x="46.063" y="114.783" width="7.33132" height="7.33132" fill="white" stroke="black" stroke-width="0.5"/>
<rect x="53.6987" y="114.783" width="7.33132" height="7.33132" fill="white" stroke="black" stroke-width="0.5"/>
<rect x="61.334" y="114.783" width="7.33132" height="7.33132" fill="#F82020" stroke="black" stroke-width="0.5"/>
<rect x="68.9702" y="114.783" width="7.33132" height="7.33132" fill="white" stroke="black" stroke-width="0.5"/>
<rect x="76.6055" y="114.783" width="7.33132" height="7.33132" fill="white" stroke="black" stroke-width="0.5"/>
<rect x="84.2407" y="114.783" width="7.33132" height="7.33132" fill="white" stroke="black" stroke-width="0.5"/>
<rect x="91.8765" y="114.783" width="7.33132" height="7.33132" fill="white" stroke="black" stroke-width="0.5"/>
<rect x="99.5117" y="114.783" width="7.33132" height="7.33132" fill="white" stroke="black" stroke-width="0.5"/>
<rect x="107.147" y="114.783" width="7.33132" height="7.33132" fill="white" stroke="black" stroke-width="0.5"/>
<rect x="114.783" y="114.783" width="7.33132" height="7.33132" fill="white" stroke="black" stroke-width="0.5"/>
<rect x="122.418" y="114.783" width="7.33132" height="7.33132" fill="white" stroke="black" stroke-width="0.5"/>
<rect x="0.25" y="122.419" width="7.33132" height="7.33132" fill="white" stroke="black" stroke-width="0.5"/>
<rect x="7.88574" y="122.418" width="7.33132" height="7.33132" fill="white" stroke="black" stroke-width="0.5"/>
<rect x="15.521" y="122.418" width="7.33132" height="7.33132" fill="white" stroke="black" stroke-width="0.5"/>
<rect x="23.1567" y="122.418" width="7.33132" height="7.33132" fill="white" stroke="black" stroke-width="0.5"/>
<rect x="30.792" y="122.418" width="7.33132" height="7.33132" fill="white" stroke="black" stroke-width="0.5"/>
<rect x="38.4277" y="122.418" width="7.33132" height="7.33132" fill="white" stroke="black" stroke-width="0.5"/>
<rect x="46.063" y="122.418" width="7.33132" height="7.33132" fill="white" stroke="black" stroke-width="0.5"/>
<rect x="53.6987" y="122.418" width="7.33132" height="7.33132" fill="white" stroke="black" stroke-width="0.5"/>
<rect x="61.334" y="122.418" width="7.33132" height="7.33132" fill="white" stroke="black" stroke-width="0.5"/>
<rect x="68.9702" y="122.418" width="7.33132" height="7.33132" fill="white" stroke="black" stroke-width="0.5"/>
<rect x="76.6055" y="122.418" width="7.33132" height="7.33132" fill="white" stroke="black" stroke-width="0.5"/>
<rect x="84.2407" y="122.418" width="7.33132" height="7.33132" fill="white" stroke="black" stroke-width="0.5"/>
<rect x="91.8765" y="122.418" width="7.33132" height="7.33132" fill="white" stroke="black" stroke-width="0.5"/>
<rect x="99.5117" y="122.418" width="7.33132" height="7.33132" fill="white" stroke="black" stroke-width="0.5"/>
<rect x="107.147" y="122.418" width="7.33132" height="7.33132" fill="white" stroke="black" stroke-width="0.5"/>
<rect x="114.783" y="122.418" width="7.33132" height="7.33132" fill="white" stroke="black" stroke-width="0.5"/>
<rect x="122.418" y="122.418" width="7.33132" height="7.33132" fill="white" stroke="black" stroke-width="0.5"/>
</svg>
