<svg width="41" height="43" viewBox="0 0 41 43" fill="none" xmlns="http://www.w3.org/2000/svg">
<g clip-path="url(#clip0)">
<path d="M29.4 2.65013C26.0771 0.863609 22.3317 0.012147 18.5631 0.186491C14.7944 0.360836 11.1437 1.55445 7.99995 3.64013L4.91995 0.590133C4.64081 0.308691 4.28433 0.116547 3.89577 0.0380956C3.50722 -0.0403553 3.10411 -0.00157391 2.73764 0.149516C2.37116 0.300606 2.05785 0.557189 1.83749 0.886687C1.61712 1.21619 1.49964 1.60374 1.49995 2.00013V13.1801C1.49995 13.7106 1.71067 14.2193 2.08574 14.5943C2.46081 14.9694 2.96952 15.1801 3.49995 15.1801H14.67C15.0672 15.1824 15.4561 15.0664 15.7872 14.8468C16.1182 14.6272 16.3764 14.314 16.5287 13.9471C16.681 13.5802 16.7207 13.1763 16.6425 12.7868C16.5644 12.3973 16.372 12.0399 16.09 11.7601L13.81 9.48013C16.1338 8.347 18.7428 7.93252 21.3034 8.28967C23.864 8.64681 26.26 9.75936 28.1851 11.4851C30.1102 13.2109 31.477 15.4715 32.1109 17.978C32.7447 20.4845 32.6168 23.123 31.7434 25.5565C30.8701 27.9899 29.2909 30.1076 27.2079 31.6391C25.1249 33.1705 22.6325 34.046 20.0493 34.1537C17.4662 34.2615 14.9096 33.5965 12.7062 32.2439C10.5029 30.8913 8.75291 28.9124 7.67995 26.5601C7.46394 26.1281 7.09889 25.7889 6.65222 25.6051C6.20556 25.4213 5.70747 25.4053 5.24995 25.5601L1.42995 26.6601C1.16403 26.7401 0.917686 26.8746 0.7066 27.0551C0.495514 27.2355 0.324314 27.4579 0.203904 27.7081C0.0834938 27.9584 0.0165115 28.2309 0.00722279 28.5084C-0.00206591 28.786 0.0465426 29.0624 0.149953 29.3201C1.45407 32.4183 3.48285 35.1581 6.06577 37.3093C8.6487 39.4605 11.7103 40.9603 14.9932 41.6825C18.2761 42.4047 21.6845 42.3283 24.9317 41.4596C28.179 40.591 31.1703 38.9555 33.6542 36.6907C36.1381 34.4259 38.0421 31.5979 39.206 28.4444C40.3699 25.2909 40.7599 21.9041 40.343 18.5686C39.9262 15.2332 38.7147 12.0465 36.8105 9.27645C34.9062 6.50642 32.3649 4.23398 29.4 2.65013V2.65013Z" fill="white"/>
</g>
<defs>
<clipPath id="clip0">
<rect width="40.5" height="42.17" fill="white"/>
</clipPath>
</defs>
</svg>
