<svg width="130" height="206" viewBox="0 0 130 206" fill="none" xmlns="http://www.w3.org/2000/svg">
<rect x="45" y="151" width="10" height="45" fill="#C4C4C4"/>
<rect x="77" y="151" width="10" height="45" fill="#C4C4C4"/>
<ellipse cx="50" cy="200.5" rx="12" ry="5.5" fill="#C4C4C4"/>
<ellipse cx="82" cy="200.5" rx="12" ry="5.5" fill="#C4C4C4"/>
<rect x="45.05" y="151.05" width="9.9" height="2.9" fill="#C4C4C4" stroke="black" stroke-width="0.1"/>
<rect x="77.05" y="151.05" width="9.9" height="2.9" fill="#C4C4C4" stroke="black" stroke-width="0.1"/>
<rect x="77.05" y="154.05" width="9.9" height="2.9" fill="#C4C4C4" stroke="black" stroke-width="0.1"/>
<rect x="77.05" y="157.05" width="9.9" height="2.9" fill="#C4C4C4" stroke="black" stroke-width="0.1"/>
<rect x="77.05" y="160.05" width="9.9" height="2.9" fill="#C4C4C4" stroke="black" stroke-width="0.1"/>
<rect x="77.05" y="163.05" width="9.9" height="2.9" fill="#C4C4C4" stroke="black" stroke-width="0.1"/>
<rect x="77.05" y="166.05" width="9.9" height="2.9" fill="#C4C4C4" stroke="black" stroke-width="0.1"/>
<rect x="77.05" y="169.05" width="9.9" height="2.9" fill="#C4C4C4" stroke="black" stroke-width="0.1"/>
<rect x="77.05" y="172.05" width="9.9" height="2.9" fill="#C4C4C4" stroke="black" stroke-width="0.1"/>
<rect x="77.05" y="175.05" width="9.9" height="2.9" fill="#C4C4C4" stroke="black" stroke-width="0.1"/>
<rect x="77.05" y="178.05" width="9.9" height="2.9" fill="#C4C4C4" stroke="black" stroke-width="0.1"/>
<rect x="77.05" y="181.05" width="9.9" height="2.9" fill="#C4C4C4" stroke="black" stroke-width="0.1"/>
<rect x="77.05" y="184.05" width="9.9" height="2.9" fill="#C4C4C4" stroke="black" stroke-width="0.1"/>
<rect x="77.05" y="187.05" width="9.9" height="2.9" fill="#C4C4C4" stroke="black" stroke-width="0.1"/>
<rect x="77.05" y="190.05" width="9.9" height="2.9" fill="#C4C4C4" stroke="black" stroke-width="0.1"/>
<rect x="77.05" y="193.05" width="9.9" height="2.9" fill="#C4C4C4" stroke="black" stroke-width="0.1"/>
<rect x="45.05" y="154.05" width="9.9" height="2.9" fill="#C4C4C4" stroke="black" stroke-width="0.1"/>
<rect x="45.05" y="157.05" width="9.9" height="2.9" fill="#C4C4C4" stroke="black" stroke-width="0.1"/>
<rect x="45.05" y="160.05" width="9.9" height="2.9" fill="#C4C4C4" stroke="black" stroke-width="0.1"/>
<rect x="45.05" y="163.05" width="9.9" height="2.9" fill="#C4C4C4" stroke="black" stroke-width="0.1"/>
<rect x="45.05" y="166.05" width="9.9" height="2.9" fill="#C4C4C4" stroke="black" stroke-width="0.1"/>
<rect x="45.05" y="169.05" width="9.9" height="2.9" fill="#C4C4C4" stroke="black" stroke-width="0.1"/>
<rect x="45.05" y="172.05" width="9.9" height="2.9" fill="#C4C4C4" stroke="black" stroke-width="0.1"/>
<rect x="45.05" y="175.05" width="9.9" height="2.9" fill="#C4C4C4" stroke="black" stroke-width="0.1"/>
<rect x="45.05" y="178.05" width="9.9" height="2.9" fill="#C4C4C4" stroke="black" stroke-width="0.1"/>
<rect x="45.05" y="181.05" width="9.9" height="2.9" fill="#C4C4C4" stroke="black" stroke-width="0.1"/>
<rect x="45.05" y="184.05" width="9.9" height="2.9" fill="#C4C4C4" stroke="black" stroke-width="0.1"/>
<rect x="45.05" y="187.05" width="9.9" height="2.9" fill="#C4C4C4" stroke="black" stroke-width="0.1"/>
<rect x="45.05" y="190.05" width="9.9" height="2.9" fill="#C4C4C4" stroke="black" stroke-width="0.1"/>
<rect x="45.05" y="193.05" width="9.9" height="2.9" fill="#C4C4C4" stroke="black" stroke-width="0.1"/>
<rect x="29.3706" y="80" width="10" height="55" transform="rotate(24 29.3706 80)" fill="#B9B9B9"/>
<rect x="92" y="84.0674" width="10" height="55" transform="rotate(-24 92 84.0674)" fill="#B9B9B9"/>
<rect x="42" y="22" width="46" height="46" fill="#C4C4C4"/>
<rect x="50.05" y="36.05" width="9.9" height="9.9" fill="#DCDCDC" stroke="black" stroke-width="0.1"/>
<rect x="55" y="41" width="5" height="5" fill="black"/>
<rect x="70.05" y="36.05" width="9.9" height="9.9" fill="#DCDCDC" stroke="black" stroke-width="0.1"/>
<rect x="70" y="41" width="5" height="5" fill="black"/>
<rect x="73.05" y="41.05" width="1.9" height="1.9" fill="white" stroke="black" stroke-width="0.1"/>
<rect x="55.05" y="41.05" width="1.9" height="1.9" fill="white" stroke="black" stroke-width="0.1"/>
<rect x="54" y="55" width="22" height="5" fill="#DCDCDC"/>
<rect x="29" y="80" width="72" height="72" fill="#C4C4C4"/>
<rect x="60" y="68" width="10" height="17" fill="#C4C4C4"/>
<rect x="60.05" y="68.05" width="9.9" height="2.9" fill="#C4C4C4" stroke="black" stroke-width="0.1"/>
<rect x="60.05" y="71.05" width="9.9" height="2.9" fill="#C4C4C4" stroke="black" stroke-width="0.1"/>
<rect x="60.05" y="74.05" width="9.9" height="2.9" fill="#C4C4C4" stroke="black" stroke-width="0.1"/>
<rect x="60.05" y="77.05" width="9.9" height="2.9" fill="#C4C4C4" stroke="black" stroke-width="0.1"/>
<rect x="36.05" y="86.05" width="9.9" height="4.9" fill="#484848" stroke="black" stroke-width="0.1"/>
<rect x="37.05" y="87.55" width="7.9" height="2.9" fill="#ADADAD" stroke="black" stroke-width="0.1"/>
<rect x="37.05" y="86.55" width="7.9" height="1.9" fill="#F4F4F4" stroke="black" stroke-width="0.1"/>
<rect x="64" y="6" width="3" height="16" fill="#C4C4C4"/>
<circle cx="65.5" cy="3.5" r="3.5" fill="#DF1A1A"/>
<circle cx="77" cy="94" r="2" fill="#FF0000"/>
<circle cx="84" cy="94" r="2" fill="#FFE600"/>
<circle cx="84" cy="100" r="2" fill="#0085FF"/>
<circle cx="77" cy="100" r="2" fill="#00A337"/>
<path d="M19 136.5C19 141.747 14.7467 132 9.5 132C4.25329 132 0 141.747 0 136.5C0 131.253 4.25329 127 9.5 127C14.7467 127 19 131.253 19 136.5Z" fill="#C4C4C4"/>
<path d="M130 137.5C130 142.747 125.747 133 120.5 133C115.253 133 111 142.747 111 137.5C111 132.253 115.253 128 120.5 128C125.747 128 130 132.253 130 137.5Z" fill="#C4C4C4"/>
<rect x="33" y="93" width="15" height="6" rx="1" fill="#676767"/>
<rect x="34" y="95" width="15" height="2" rx="1" fill="#676767"/>
<rect x="34" y="94" width="13" height="4" rx="1" fill="#45A243"/>
<rect x="38" y="95" width="10" height="2" rx="1" fill="#45A243"/>
<line x1="35.1" y1="94" x2="35.1" y2="98" stroke="#5EBF5C" stroke-width="0.2"/>
<line x1="37.1" y1="94" x2="37.1" y2="98" stroke="#5EBF5C" stroke-width="0.2"/>
<line x1="39.1" y1="94" x2="39.1" y2="98" stroke="#5EBF5C" stroke-width="0.2"/>
<line x1="41.1" y1="94" x2="41.1" y2="98" stroke="#5EBF5C" stroke-width="0.2"/>
<line x1="43.1" y1="94" x2="43.1" y2="98" stroke="#5EBF5C" stroke-width="0.2"/>
<line x1="45.1" y1="94" x2="45.1" y2="98" stroke="#5EBF5C" stroke-width="0.2"/>
<rect x="39" y="113" width="52" height="28" fill="#A8A8A8"/>
<g filter="url(#filter0_d)">
<rect x="57" y="134" width="16" height="3" fill="#C4C4C4"/>
</g>
<defs>
<filter id="filter0_d" x="53" y="131" width="24" height="11" filterUnits="userSpaceOnUse" color-interpolation-filters="sRGB">
<feFlood flood-opacity="0" result="BackgroundImageFix"/>
<feColorMatrix in="SourceAlpha" type="matrix" values="0 0 0 0 0 0 0 0 0 0 0 0 0 0 0 0 0 0 127 0"/>
<feOffset dy="1"/>
<feGaussianBlur stdDeviation="2"/>
<feColorMatrix type="matrix" values="0 0 0 0 0 0 0 0 0 0 0 0 0 0 0 0 0 0 0.25 0"/>
<feBlend mode="normal" in2="BackgroundImageFix" result="effect1_dropShadow"/>
<feBlend mode="normal" in="SourceGraphic" in2="effect1_dropShadow" result="shape"/>
</filter>
</defs>
</svg>
