<svg width="1173" height="231" viewBox="0 0 1173 231" fill="none" xmlns="http://www.w3.org/2000/svg">
<path fill-rule="evenodd" clip-rule="evenodd" d="M185.82 31.3171C181.555 13.6636 152.238 0 116.706 0C86.4545 0 60.7078 9.90413 51.0915 23.7424C21.7772 28.1262 0 44.4871 0 64C0 86.8711 29.9179 105.412 66.8235 105.412C78.4344 105.412 89.3536 103.577 98.8671 100.349C111.587 111.432 131.708 118.588 154.353 118.588C192.818 118.588 224 97.9407 224 72.4706C224 54.4984 208.474 38.9272 185.82 31.3171Z" fill="white"/>
<path fill-rule="evenodd" clip-rule="evenodd" d="M1148.12 165.79C1152.01 160.027 1154.21 153.464 1154.21 146.5C1154.21 123.58 1130.37 105 1100.96 105C1075.78 105 1054.68 118.629 1049.14 136.94C1045.36 136.533 1041.49 136.321 1037.54 136.321C1009.25 136.321 984.804 147.193 973.3 162.946C973.05 162.944 972.799 162.943 972.547 162.943C945.735 162.943 924 174.162 924 188C924 201.838 945.735 213.057 972.547 213.057C975.722 213.057 978.826 212.899 981.831 212.599C994.887 223.377 1014.99 230.283 1037.54 230.283C1050.39 230.283 1062.44 228.04 1072.85 224.116C1083.11 228.009 1095.48 230.283 1108.79 230.283C1144.25 230.283 1173 214.157 1173 194.264C1173 182.683 1163.26 172.379 1148.12 165.79Z" fill="white"/>
</svg>
