<svg width="129" height="219" viewBox="0 0 129 219" fill="none" xmlns="http://www.w3.org/2000/svg">
<rect x="69" y="139" width="9" height="78" fill="#C4C4C4"/>
<rect x="50" y="141" width="9" height="78" fill="#C4C4C4"/>
<line x1="50" y1="171.5" x2="59" y2="171.5" stroke="#939393"/>
<line x1="69" y1="171.5" x2="78" y2="171.5" stroke="#939393"/>
<line x1="69" y1="176.5" x2="78" y2="176.5" stroke="#939393"/>
<line x1="69" y1="181.5" x2="78" y2="181.5" stroke="#939393"/>
<line x1="69" y1="186.5" x2="78" y2="186.5" stroke="#939393"/>
<line x1="69" y1="191.5" x2="78" y2="191.5" stroke="#939393"/>
<line x1="69" y1="196.5" x2="78" y2="196.5" stroke="#939393"/>
<line x1="69" y1="201.5" x2="78" y2="201.5" stroke="#939393"/>
<line x1="69" y1="206.5" x2="78" y2="206.5" stroke="#939393"/>
<line x1="69" y1="211.5" x2="78" y2="211.5" stroke="#939393"/>
<line x1="50" y1="176.5" x2="59" y2="176.5" stroke="#939393"/>
<line x1="50" y1="181.5" x2="59" y2="181.5" stroke="#939393"/>
<line x1="50" y1="186.5" x2="59" y2="186.5" stroke="#939393"/>
<line x1="50" y1="191.5" x2="59" y2="191.5" stroke="#939393"/>
<line x1="50" y1="196.5" x2="59" y2="196.5" stroke="#939393"/>
<line x1="50" y1="201.5" x2="59" y2="201.5" stroke="#939393"/>
<line x1="50" y1="206.5" x2="59" y2="206.5" stroke="#939393"/>
<line x1="50" y1="211.5" x2="59" y2="211.5" stroke="#939393"/>
<rect x="18" y="134" width="1" height="14" fill="#C4C4C4"/>
<rect x="15.47" y="134" width="1" height="14" transform="rotate(32.2466 15.47 134)" fill="#C4C4C4"/>
<circle cx="8.5" cy="145.5" r="1.5" transform="rotate(-180 8.5 145.5)" fill="#939393"/>
<circle cx="18.5" cy="149.5" r="1.5" transform="rotate(-180 18.5 149.5)" fill="#939393"/>
<rect x="13.7869" y="131" width="1" height="14" transform="rotate(65.9718 13.7869 131)" fill="#C4C4C4"/>
<circle cx="1.5" cy="137.5" r="1.5" transform="rotate(-180 1.5 137.5)" fill="#939393"/>
<rect x="119.47" y="39" width="1" height="14" transform="rotate(32.2466 119.47 39)" fill="#C4C4C4"/>
<rect x="111.812" y="35" width="1" height="14" transform="rotate(11.5848 111.812 35)" fill="#C4C4C4"/>
<circle cx="112.5" cy="34.5" r="1.5" transform="rotate(-180 112.5 34.5)" fill="#939393"/>
<circle cx="120.5" cy="38.5" r="1.5" transform="rotate(-180 120.5 38.5)" fill="#939393"/>
<rect x="127.404" y="46.9878" width="1" height="14" transform="rotate(66.9623 127.404 46.9878)" fill="#C4C4C4"/>
<circle cx="127.5" cy="47.5" r="1.5" transform="rotate(-180 127.5 47.5)" fill="#939393"/>
<rect x="108.759" y="48" width="9" height="54.9247" transform="rotate(35.3261 108.759 48)" fill="#939393"/>
<rect x="43.759" y="87" width="9" height="54.9247" transform="rotate(35.3261 43.759 87)" fill="#939393"/>
<path d="M63.5 0L64.9593 5.18237H69.6819L65.8613 8.38525L67.3206 13.5676L63.5 10.3647L59.6794 13.5676L61.1387 8.38525L57.3181 5.18237H62.0407L63.5 0Z" fill="#FF0000"/>
<g filter="url(#filter0_d)">
<rect x="47" y="8" width="34" height="58" rx="17" fill="#C4C4C4"/>
</g>
<g filter="url(#filter1_d)">
<rect x="42" y="73" width="43" height="96" rx="10" fill="#C4C4C4"/>
</g>
<rect x="61" y="47" width="5" height="26" fill="#C4C4C4"/>
<circle cx="56.5" cy="22.5" r="4.5" fill="white"/>
<circle cx="71.5" cy="22.5" r="4.5" fill="white"/>
<circle cx="59" cy="21" r="1" fill="black"/>
<circle cx="69" cy="21" r="1" fill="black"/>
<rect x="50" y="40" width="28" height="11" rx="5.5" fill="#939393"/>
<rect x="64.05" y="40.05" width="3.9" height="3.9" fill="white" stroke="black" stroke-width="0.1"/>
<rect x="53.5" y="93.5" width="20" height="55" fill="#C4C4C4" stroke="#939393"/>
<g filter="url(#filter2_d)">
<path d="M72.049 121.058L66.0108 122.762L66.0321 119.282L72.049 121.058Z" fill="#939393"/>
</g>
<line x1="61" y1="66.75" x2="66" y2="66.75" stroke="#939393" stroke-width="0.5"/>
<line x1="61" y1="68.75" x2="66" y2="68.75" stroke="#939393" stroke-width="0.5"/>
<line x1="61" y1="70.75" x2="66" y2="70.75" stroke="#939393" stroke-width="0.5"/>
<line x1="61" y1="72.75" x2="66" y2="72.75" stroke="#939393" stroke-width="0.5"/>
<defs>
<filter id="filter0_d" x="43" y="5" width="42" height="66" filterUnits="userSpaceOnUse" color-interpolation-filters="sRGB">
<feFlood flood-opacity="0" result="BackgroundImageFix"/>
<feColorMatrix in="SourceAlpha" type="matrix" values="0 0 0 0 0 0 0 0 0 0 0 0 0 0 0 0 0 0 127 0"/>
<feOffset dy="1"/>
<feGaussianBlur stdDeviation="2"/>
<feColorMatrix type="matrix" values="0 0 0 0 0 0 0 0 0 0 0 0 0 0 0 0 0 0 0.25 0"/>
<feBlend mode="normal" in2="BackgroundImageFix" result="effect1_dropShadow"/>
<feBlend mode="normal" in="SourceGraphic" in2="effect1_dropShadow" result="shape"/>
</filter>
<filter id="filter1_d" x="38" y="70" width="51" height="104" filterUnits="userSpaceOnUse" color-interpolation-filters="sRGB">
<feFlood flood-opacity="0" result="BackgroundImageFix"/>
<feColorMatrix in="SourceAlpha" type="matrix" values="0 0 0 0 0 0 0 0 0 0 0 0 0 0 0 0 0 0 127 0"/>
<feOffset dy="1"/>
<feGaussianBlur stdDeviation="2"/>
<feColorMatrix type="matrix" values="0 0 0 0 0 0 0 0 0 0 0 0 0 0 0 0 0 0 0.25 0"/>
<feBlend mode="normal" in2="BackgroundImageFix" result="effect1_dropShadow"/>
<feBlend mode="normal" in="SourceGraphic" in2="effect1_dropShadow" result="shape"/>
</filter>
<filter id="filter2_d" x="62.0107" y="116.282" width="14.0488" height="11.5169" filterUnits="userSpaceOnUse" color-interpolation-filters="sRGB">
<feFlood flood-opacity="0" result="BackgroundImageFix"/>
<feColorMatrix in="SourceAlpha" type="matrix" values="0 0 0 0 0 0 0 0 0 0 0 0 0 0 0 0 0 0 127 0"/>
<feOffset dy="1"/>
<feGaussianBlur stdDeviation="2"/>
<feColorMatrix type="matrix" values="0 0 0 0 0 0 0 0 0 0 0 0 0 0 0 0 0 0 0.25 0"/>
<feBlend mode="normal" in2="BackgroundImageFix" result="effect1_dropShadow"/>
<feBlend mode="normal" in="SourceGraphic" in2="effect1_dropShadow" result="shape"/>
</filter>
</defs>
</svg>
