<svg width="1680" height="242" viewBox="0 0 1680 242" fill="none" xmlns="http://www.w3.org/2000/svg">
<g clip-path="url(#clip0)">
<ellipse rx="2.91661" ry="21.0003" transform="matrix(0.999975 -0.00708025 0.00963661 0.999954 463 54.0626)" fill="#02A569"/>
<ellipse rx="6.99212" ry="6.00919" transform="matrix(0.99687 0.0790611 -0.107326 0.994224 463.838 30.0263)" fill="#E2BC5A"/>
<path d="M472.333 37.2281C472.132 39.0844 470.206 40.4741 468.001 40.2992C465.796 40.1243 464.2 38.4552 464.4 36.599C464.601 34.7427 466.527 33.353 468.732 33.5278C470.937 33.7027 472.533 35.3718 472.333 37.2281Z" fill="white" stroke="#939393" stroke-width="0.2"/>
<path d="M477.409 33.6134C477.209 35.4696 475.283 36.8594 473.078 36.6845C470.872 36.5096 469.277 34.8405 469.477 32.9842C469.677 31.128 471.603 29.7382 473.809 29.9131C476.014 30.088 477.61 31.7571 477.409 33.6134Z" fill="white" stroke="#939393" stroke-width="0.2"/>
<path d="M476.893 27.547C476.692 29.4032 474.766 30.793 472.561 30.6181C470.356 30.4432 468.76 28.7741 468.96 26.9178C469.161 25.0616 471.087 23.6718 473.292 23.8467C475.497 24.0216 477.093 25.6907 476.893 27.547Z" fill="white" stroke="#939393" stroke-width="0.2"/>
<path d="M472.676 23.1954C472.476 25.0517 470.549 26.4414 468.344 26.2665C466.139 26.0916 464.543 24.4225 464.743 22.5663C464.944 20.71 466.87 19.3202 469.075 19.4951C471.28 19.67 472.876 21.3391 472.676 23.1954Z" fill="white" stroke="#939393" stroke-width="0.2"/>
<path d="M465.706 22.6427C465.505 24.4989 463.579 25.8887 461.374 25.7138C459.169 25.5389 457.573 23.8698 457.773 22.0135C457.974 20.1573 459.9 18.7675 462.105 18.9424C464.31 19.1173 465.906 20.7864 465.706 22.6427Z" fill="white" stroke="#939393" stroke-width="0.2"/>
<path d="M460.629 26.2569C460.429 28.1132 458.503 29.5029 456.297 29.328C454.092 29.1531 452.496 27.4841 452.697 25.6278C452.897 23.7715 454.823 22.3818 457.028 22.5567C459.234 22.7316 460.83 24.4006 460.629 26.2569Z" fill="white" stroke="#939393" stroke-width="0.2"/>
<path d="M458.93 31.1436C458.73 32.9999 456.803 34.3897 454.598 34.2148C452.393 34.0399 450.797 32.3708 450.997 30.5145C451.198 28.6582 453.124 27.2685 455.329 27.4434C457.534 27.6183 459.13 29.2874 458.93 31.1436Z" fill="white" stroke="#939393" stroke-width="0.2"/>
<path d="M461.985 35.4029C461.785 37.2592 459.859 38.6489 457.653 38.474C455.448 38.2991 453.852 36.63 454.053 34.7738C454.253 32.9175 456.179 31.5278 458.384 31.7027C460.59 31.8775 462.186 33.5466 461.985 35.4029Z" fill="white" stroke="#939393" stroke-width="0.2"/>
<ellipse rx="2.91276" ry="21.0382" transform="matrix(0.996283 -0.0861347 0.11687 0.993147 1076.25 37)" fill="#02A569"/>
<ellipse cx="1074.5" cy="13" rx="7.00006" ry="6" fill="#E2BC5A"/>
<ellipse cx="1079.75" cy="19.5" rx="4.08344" ry="3.5" fill="#F820BB"/>
<ellipse cx="1084.42" cy="15.5" rx="4.08337" ry="3.5" fill="#E927B2"/>
<ellipse cx="1083.25" cy="9.5" rx="4.08331" ry="3.5" fill="#F820BB"/>
<ellipse cx="1078.58" cy="5.5" rx="4.08337" ry="3.5" fill="#E927B2"/>
<ellipse cx="1071.58" cy="5.5" rx="4.08331" ry="3.5" fill="#F820BB"/>
<ellipse cx="1066.92" cy="9.5" rx="4.08331" ry="3.5" fill="#E927B2"/>
<ellipse cx="1065.75" cy="14.5" rx="4.08319" ry="3.5" fill="#F820BB"/>
<ellipse cx="1069.25" cy="18.5" rx="4.08337" ry="3.5" fill="#E927B2"/>
<ellipse rx="2.9127" ry="21.0381" transform="matrix(0.996283 -0.0861366 0.116867 0.993148 1105.42 37)" fill="#02A569"/>
<ellipse cx="1103.67" cy="13" rx="7.00006" ry="6" fill="#E2BC5A"/>
<path d="M1112.9 19.5C1112.9 21.3639 1111.13 22.9 1108.92 22.9C1106.7 22.9 1104.93 21.3639 1104.93 19.5C1104.93 17.6361 1106.7 16.1 1108.92 16.1C1111.13 16.1 1112.9 17.6361 1112.9 19.5Z" fill="white" stroke="#424242" stroke-width="0.2"/>
<path d="M1117.57 15.5C1117.57 17.3639 1115.8 18.9 1113.58 18.9C1111.37 18.9 1109.6 17.3639 1109.6 15.5C1109.6 13.6361 1111.37 12.1 1113.58 12.1C1115.8 12.1 1117.57 13.6361 1117.57 15.5Z" fill="white" stroke="#424242" stroke-width="0.2"/>
<path d="M1116.4 9.5C1116.4 11.3639 1114.63 12.9 1112.42 12.9C1110.2 12.9 1108.43 11.3639 1108.43 9.5C1108.43 7.63614 1110.2 6.1 1112.42 6.1C1114.63 6.1 1116.4 7.63614 1116.4 9.5Z" fill="white" stroke="#424242" stroke-width="0.2"/>
<path d="M1111.73 5.5C1111.73 7.36386 1109.96 8.9 1107.75 8.9C1105.53 8.9 1103.77 7.36386 1103.77 5.5C1103.77 3.63614 1105.53 2.1 1107.75 2.1C1109.96 2.1 1111.73 3.63614 1111.73 5.5Z" fill="white" stroke="#424242" stroke-width="0.2"/>
<path d="M1104.73 5.5C1104.73 7.36386 1102.96 8.9 1100.75 8.9C1098.53 8.9 1096.77 7.36386 1096.77 5.5C1096.77 3.63614 1098.53 2.1 1100.75 2.1C1102.96 2.1 1104.73 3.63614 1104.73 5.5Z" fill="white" stroke="#424242" stroke-width="0.2"/>
<path d="M1100.07 9.5C1100.07 11.3639 1098.3 12.9 1096.08 12.9C1093.87 12.9 1092.1 11.3639 1092.1 9.5C1092.1 7.63614 1093.87 6.1 1096.08 6.1C1098.3 6.1 1100.07 7.63614 1100.07 9.5Z" fill="white" stroke="#424242" stroke-width="0.2"/>
<path d="M1098.9 14.5C1098.9 16.3639 1097.13 17.9 1094.92 17.9C1092.7 17.9 1090.93 16.3639 1090.93 14.5C1090.93 12.6361 1092.7 11.1 1094.92 11.1C1097.13 11.1 1098.9 12.6361 1098.9 14.5Z" fill="white" stroke="#424242" stroke-width="0.2"/>
<path d="M1102.4 18.5C1102.4 20.3639 1100.63 21.9 1098.42 21.9C1096.2 21.9 1094.43 20.3639 1094.43 18.5C1094.43 16.6361 1096.2 15.1 1098.42 15.1C1100.63 15.1 1102.4 16.6361 1102.4 18.5Z" fill="white" stroke="#424242" stroke-width="0.2"/>
<ellipse rx="2.91008" ry="21.064" transform="matrix(0.99374 0.111716 -0.151251 0.988495 1134.01 37.9319)" fill="#02A569"/>
<ellipse rx="6.95123" ry="6.05649" transform="matrix(0.98029 0.197566 -0.264547 0.964373 1138.71 14.2258)" fill="#E2BC5A"/>
<ellipse rx="4.05499" ry="3.53296" transform="matrix(0.980291 0.197561 -0.264554 0.964371 1142.09 21.5832)" fill="#F82020"/>
<ellipse rx="4.05494" ry="3.53296" transform="matrix(0.98029 0.197563 -0.264551 0.964372 1147.7 18.6047)" fill="#C70000"/>
<ellipse rx="4.05494" ry="3.53296" transform="matrix(0.98029 0.197563 -0.264551 0.964372 1148.17 12.5353)" fill="#F82020"/>
<ellipse rx="4.0548" ry="3.53295" transform="matrix(0.980289 0.19757 -0.264542 0.964374 1144.69 7.72577)" fill="#C70000"/>
<ellipse rx="4.05485" ry="3.53295" transform="matrix(0.980289 0.197568 -0.264545 0.964373 1137.88 6.35272)" fill="#F82020"/>
<ellipse rx="4.05494" ry="3.53296" transform="matrix(0.98029 0.197563 -0.264551 0.964372 1132.27 9.33075)" fill="#C70000"/>
<ellipse rx="4.05489" ry="3.53295" transform="matrix(0.98029 0.197566 -0.264548 0.964373 1129.8 13.9694)" fill="#F82020"/>
<ellipse rx="4.05489" ry="3.53295" transform="matrix(0.98029 0.197566 -0.264548 0.964373 1132.14 18.5495)" fill="#C70000"/>
<ellipse rx="2.9243" ry="21.2777" transform="matrix(0.973688 -0.226755 0.309226 0.951601 62.8122 81.2634)" fill="#02A569"/>
<ellipse rx="7.05872" ry="6.03236" transform="matrix(0.989953 -0.142071 0.196374 0.980644 56.3267 57.8517)" fill="#E2BC5A"/>
<ellipse rx="4.11759" ry="3.51888" transform="matrix(0.989953 -0.14207 0.196374 0.980644 62.8512 63.5084)" fill="#F820BB"/>
<ellipse rx="4.11758" ry="3.51888" transform="matrix(0.989953 -0.142071 0.196374 0.980644 66.7199 58.8961)" fill="#E927B2"/>
<ellipse rx="4.11758" ry="3.51888" transform="matrix(0.989953 -0.142071 0.196374 0.980644 64.3703 53.1475)" fill="#F820BB"/>
<ellipse rx="4.11759" ry="3.51888" transform="matrix(0.989953 -0.142071 0.196374 0.980644 58.9225 49.8721)" fill="#E927B2"/>
<ellipse rx="4.11759" ry="3.51888" transform="matrix(0.989953 -0.142071 0.196374 0.980644 51.9347 50.8751)" fill="#F820BB"/>
<ellipse rx="4.11758" ry="3.51888" transform="matrix(0.989953 -0.142071 0.196374 0.980644 48.0661 55.4874)" fill="#E927B2"/>
<ellipse rx="4.11759" ry="3.51888" transform="matrix(0.989953 -0.14207 0.196374 0.980644 47.8883 60.584)" fill="#F820BB"/>
<ellipse rx="4.11758" ry="3.51888" transform="matrix(0.989953 -0.142071 0.196374 0.980644 52.172 64.0264)" fill="#E927B2"/>
<ellipse rx="2.94892" ry="21.0357" transform="matrix(0.998101 0.0690431 -0.0960391 0.994988 105.275 76.6856)" fill="#02A569"/>
<ellipse rx="7.05373" ry="6.03796" transform="matrix(0.988183 0.154006 -0.212524 0.977291 108.665 52.8104)" fill="#E2BC5A"/>
<ellipse rx="4.11467" ry="3.52214" transform="matrix(0.988183 0.154006 -0.212523 0.977291 112.503 60.0177)" fill="#F820BB"/>
<ellipse rx="4.11467" ry="3.52214" transform="matrix(0.988183 0.154006 -0.212524 0.977291 118.005 56.8083)" fill="#E927B2"/>
<ellipse rx="4.11468" ry="3.52214" transform="matrix(0.988183 0.154006 -0.212524 0.977291 118.127 50.7262)" fill="#F820BB"/>
<ellipse rx="4.11467" ry="3.52214" transform="matrix(0.988183 0.154006 -0.212524 0.977291 114.336 46.068)" fill="#E927B2"/>
<ellipse rx="4.11467" ry="3.52214" transform="matrix(0.988183 0.154006 -0.212524 0.977291 107.365 44.9821)" fill="#F820BB"/>
<ellipse rx="4.11467" ry="3.52214" transform="matrix(0.988183 0.154006 -0.212524 0.977291 101.862 48.1916)" fill="#E927B2"/>
<ellipse rx="4.11468" ry="3.52214" transform="matrix(0.988183 0.154006 -0.212524 0.977291 99.632 52.9279)" fill="#F820BB"/>
<ellipse rx="4.11467" ry="3.52214" transform="matrix(0.988183 0.154006 -0.212524 0.977291 102.261 57.4049)" fill="#E927B2"/>
<ellipse rx="2.92411" ry="21.2793" transform="matrix(0.973521 -0.227466 0.31015 0.951304 438.482 56.267)" fill="#02A569"/>
<ellipse rx="7.05845" ry="6.03268" transform="matrix(0.989851 -0.142784 0.197342 0.980451 431.973 32.86)" fill="#E2BC5A"/>
<ellipse rx="4.1174" ry="3.51906" transform="matrix(0.989851 -0.142785 0.197341 0.980452 438.503 38.5118)" fill="#F820BB"/>
<ellipse rx="4.11745" ry="3.51907" transform="matrix(0.989852 -0.142783 0.197343 0.980451 442.367 33.8965)" fill="#E927B2"/>
<ellipse rx="4.11738" ry="3.51906" transform="matrix(0.989851 -0.142785 0.19734 0.980452 440.012 28.15)" fill="#F820BB"/>
<ellipse rx="4.11741" ry="3.51906" transform="matrix(0.989851 -0.142784 0.197341 0.980451 434.561 24.8785)" fill="#E927B2"/>
<ellipse rx="4.11742" ry="3.51907" transform="matrix(0.989851 -0.142784 0.197342 0.980451 427.574 25.8863)" fill="#F820BB"/>
<ellipse rx="4.1174" ry="3.51906" transform="matrix(0.989851 -0.142785 0.197341 0.980452 423.71 30.5015)" fill="#E927B2"/>
<ellipse rx="4.11744" ry="3.51907" transform="matrix(0.989851 -0.142783 0.197343 0.980451 423.537 35.5982)" fill="#F820BB"/>
<ellipse rx="4.11742" ry="3.51906" transform="matrix(0.989851 -0.142784 0.197342 0.980451 427.825 39.0377)" fill="#E927B2"/>
<ellipse rx="2.94891" ry="21.0418" transform="matrix(0.996374 -0.085079 0.11831 0.992977 84.4594 79)" fill="#02A569"/>
<ellipse cx="82.6876" cy="55" rx="7.08749" ry="6" fill="#E2BC5A"/>
<ellipse cx="88.0035" cy="61.5" rx="4.13438" ry="3.5" fill="#F82020"/>
<ellipse cx="92.7286" cy="57.5" rx="4.13438" ry="3.5" fill="#C70000"/>
<ellipse cx="91.547" cy="51.5" rx="4.13438" ry="3.5" fill="#F82020"/>
<ellipse cx="86.8219" cy="47.5" rx="4.13438" ry="3.5" fill="#C70000"/>
<ellipse cx="79.7345" cy="47.5" rx="4.13437" ry="3.5" fill="#F82020"/>
<ellipse cx="75.0099" cy="51.5" rx="4.13437" ry="3.5" fill="#C70000"/>
<ellipse cx="73.8282" cy="56.5" rx="4.13438" ry="3.5" fill="#F82020"/>
<ellipse cx="77.3722" cy="60.5" rx="4.13437" ry="3.5" fill="#C70000"/>
<path d="M0 100.2L141.75 89.0318C283.5 78.2812 567 55.3187 850.5 50.0999C1134 44.8812 1417.5 55.3187 1559.25 61.268L1701 66.7999V334H1559.25C1417.5 334 1134 334 850.5 334C567 334 283.5 334 141.75 334H0V100.2Z" fill="#26E8A1"/>
</g>
<defs>
<clipPath id="clip0">
<rect width="1680" height="334" fill="white"/>
</clipPath>
</defs>
</svg>
