<svg width="1440" height="1024" viewBox="0 0 1440 1024" fill="none" xmlns="http://www.w3.org/2000/svg">
<g clip-path="url(#clip0)">
<rect width="1440" height="1024" fill="url(#paint0_linear)"/>
<path d="M720 0H3.00006V1024L720 0Z" fill="#020064" fill-opacity="0.47"/>
<g clip-path="url(#clip1)">
<path d="M0 722.1L60 716.516C120 711.141 240 699.66 360 697.05C480 694.441 600 699.66 660 702.635L720 705.4V839H660C600 839 480 839 360 839C240 839 120 839 60 839H0V722.1Z" fill="#26E8A1"/>
<ellipse cx="26.587" cy="712.631" rx="1.25" ry="10.5" transform="rotate(-15.3812 26.587 712.631)" fill="#02A569"/>
<ellipse cx="23.8418" cy="700.925" rx="3" ry="3" transform="rotate(-9.62153 23.8418 700.925)" fill="#E2BC5A"/>
<circle cx="26.6036" cy="703.753" r="1.75" transform="rotate(-9.62154 26.6036 703.753)" fill="#F820BB"/>
<ellipse cx="28.2411" cy="701.448" rx="1.75" ry="1.75" transform="rotate(-9.62154 28.2411 701.448)" fill="#E927B2"/>
<ellipse cx="27.2464" cy="698.573" rx="1.75" ry="1.75" transform="rotate(-9.62153 27.2464 698.573)" fill="#F820BB"/>
<ellipse cx="24.9403" cy="696.936" rx="1.75" ry="1.75" transform="rotate(-9.62153 24.9403 696.936)" fill="#E927B2"/>
<ellipse cx="21.9827" cy="697.437" rx="1.75" ry="1.75" transform="rotate(-9.62153 21.9827 697.437)" fill="#F820BB"/>
<ellipse cx="20.3452" cy="699.743" rx="1.75" ry="1.75" transform="rotate(-9.62153 20.3452 699.743)" fill="#E927B2"/>
<ellipse cx="20.2702" cy="702.291" rx="1.75" ry="1.75" transform="rotate(-9.62153 20.2702 702.291)" fill="#F820BB"/>
<circle cx="22.0831" cy="704.013" r="1.75" transform="rotate(-9.62154 22.0831 704.013)" fill="#E927B2"/>
<ellipse cx="44.561" cy="710.342" rx="1.25" ry="10.5" transform="rotate(4.67139 44.561 710.342)" fill="#02A569"/>
<ellipse cx="45.9962" cy="698.405" rx="3" ry="3" transform="rotate(10.4311 45.9962 698.405)" fill="#E2BC5A"/>
<ellipse cx="47.6205" cy="702.009" rx="1.75" ry="1.75" transform="rotate(10.4311 47.6205 702.009)" fill="#F820BB"/>
<ellipse cx="49.9496" cy="700.404" rx="1.75" ry="1.75" transform="rotate(10.4311 49.9496 700.404)" fill="#E927B2"/>
<circle cx="50.0006" cy="697.363" r="1.75" transform="rotate(10.4311 50.0006 697.363)" fill="#F820BB"/>
<ellipse cx="48.3959" cy="695.034" rx="1.75" ry="1.75" transform="rotate(10.4311 48.3959 695.034)" fill="#E927B2"/>
<ellipse cx="45.4458" cy="694.49" rx="1.75" ry="1.75" transform="rotate(10.4311 45.4458 694.49)" fill="#F820BB"/>
<ellipse cx="43.1168" cy="696.096" rx="1.75" ry="1.75" transform="rotate(10.4311 43.1168 696.096)" fill="#E927B2"/>
<ellipse cx="42.1724" cy="698.464" rx="1.75" ry="1.75" transform="rotate(10.4311 42.1724 698.464)" fill="#F820BB"/>
<circle cx="43.2853" cy="700.702" r="1.75" transform="rotate(10.4311 43.2853 700.702)" fill="#E927B2"/>
<ellipse cx="185.601" cy="700.133" rx="1.25" ry="10.5" transform="rotate(-15.4296 185.601 700.133)" fill="#02A569"/>
<ellipse cx="182.846" cy="688.43" rx="3" ry="3" transform="rotate(-9.66993 182.846 688.43)" fill="#E2BC5A"/>
<ellipse cx="185.61" cy="691.255" rx="1.75" ry="1.75" transform="rotate(-9.66993 185.61 691.255)" fill="#F820BB"/>
<ellipse cx="187.245" cy="688.948" rx="1.75" ry="1.75" transform="rotate(-9.66993 187.245 688.948)" fill="#E927B2"/>
<ellipse cx="186.248" cy="686.075" rx="1.75" ry="1.75" transform="rotate(-9.66993 186.248 686.075)" fill="#F820BB"/>
<ellipse rx="1.75001" ry="1.75" transform="matrix(0.985792 -0.167971 0.167973 0.985792 183.941 684.439)" fill="#E927B2"/>
<ellipse cx="180.984" cy="684.943" rx="1.75" ry="1.75" transform="rotate(-9.66993 180.984 684.943)" fill="#F820BB"/>
<ellipse cx="179.348" cy="687.251" rx="1.75" ry="1.75" transform="rotate(-9.6699 179.348 687.251)" fill="#E927B2"/>
<ellipse cx="179.275" cy="689.799" rx="1.75" ry="1.75" transform="rotate(-9.66993 179.275 689.799)" fill="#F820BB"/>
<ellipse cx="181.09" cy="691.519" rx="1.75" ry="1.75" transform="rotate(-9.66993 181.09 691.519)" fill="#E927B2"/>
<ellipse cx="198.428" cy="699.031" rx="1.25" ry="10.5" transform="rotate(-0.473275 198.428 699.031)" fill="#02A569"/>
<ellipse cx="198.788" cy="687.014" rx="2.99999" ry="3" transform="rotate(5.28638 198.788 687.014)" fill="#E2BC5A"/>
<path d="M202.371 690.61C202.287 691.517 201.484 692.184 200.576 692.1C199.669 692.017 199.001 691.213 199.085 690.305C199.169 689.398 199.973 688.731 200.88 688.815C201.788 688.898 202.455 689.702 202.371 690.61Z" fill="white" stroke="#939393" stroke-width="0.2"/>
<path d="M204.547 688.802C204.463 689.709 203.659 690.377 202.752 690.293C201.845 690.209 201.177 689.405 201.261 688.498C201.345 687.59 202.149 686.923 203.056 687.007C203.963 687.091 204.631 687.895 204.547 688.802Z" fill="white" stroke="#939393" stroke-width="0.2"/>
<path d="M204.326 685.769C204.242 686.676 203.438 687.344 202.531 687.26C201.623 687.176 200.956 686.372 201.04 685.465C201.124 684.557 201.927 683.89 202.835 683.974C203.742 684.058 204.41 684.861 204.326 685.769Z" fill="white" stroke="#939393" stroke-width="0.2"/>
<path d="M202.518 683.593C202.434 684.5 201.631 685.168 200.723 685.084C199.816 685 199.149 684.196 199.232 683.289C199.316 682.381 200.12 681.714 201.027 681.798C201.935 681.882 202.602 682.686 202.518 683.593Z" fill="white" stroke="#939393" stroke-width="0.2"/>
<path d="M199.531 683.317C199.447 684.224 198.644 684.891 197.736 684.808C196.829 684.724 196.161 683.92 196.245 683.013C196.329 682.105 197.133 681.438 198.04 681.522C198.948 681.606 199.615 682.409 199.531 683.317Z" fill="white" stroke="#939393" stroke-width="0.2"/>
<path d="M197.356 685.123C197.272 686.031 196.468 686.698 195.561 686.614C194.653 686.53 193.986 685.727 194.07 684.819C194.154 683.912 194.957 683.244 195.865 683.328C196.772 683.412 197.439 684.216 197.356 685.123Z" fill="white" stroke="#939393" stroke-width="0.2"/>
<path d="M196.627 687.567C196.543 688.474 195.74 689.141 194.832 689.058C193.925 688.974 193.257 688.17 193.341 687.263C193.425 686.355 194.229 685.688 195.136 685.772C196.044 685.856 196.711 686.659 196.627 687.567Z" fill="white" stroke="#939393" stroke-width="0.2"/>
<path d="M197.937 689.696C197.853 690.604 197.049 691.271 196.142 691.187C195.234 691.103 194.567 690.3 194.651 689.392C194.735 688.485 195.538 687.817 196.446 687.901C197.353 687.985 198.021 688.789 197.937 689.696Z" fill="white" stroke="#939393" stroke-width="0.2"/>
<ellipse rx="1.25001" ry="10.5" transform="matrix(0.994952 -0.100355 0.100357 0.994952 461.25 690.5)" fill="#02A569"/>
<circle cx="460.5" cy="678.5" r="3" fill="#E2BC5A"/>
<ellipse cx="462.75" cy="681.75" rx="1.75003" ry="1.75" fill="#F820BB"/>
<circle cx="464.75" cy="679.75" r="1.75" fill="#E927B2"/>
<ellipse cx="464.25" cy="676.75" rx="1.75" ry="1.75" fill="#F820BB"/>
<circle cx="462.25" cy="674.75" r="1.75" fill="#E927B2"/>
<ellipse cx="459.25" cy="674.75" rx="1.74998" ry="1.75" fill="#F820BB"/>
<ellipse cx="457.25" cy="676.75" rx="1.75" ry="1.75" fill="#E927B2"/>
<ellipse cx="456.75" cy="679.25" rx="1.74998" ry="1.75" fill="#F820BB"/>
<ellipse cx="458.25" cy="681.25" rx="1.75" ry="1.75" fill="#E927B2"/>
<ellipse rx="1.24999" ry="10.5" transform="matrix(0.994952 -0.100357 0.100355 0.994952 473.75 690.5)" fill="#02A569"/>
<circle cx="473" cy="678.5" r="3" fill="#E2BC5A"/>
<path d="M476.9 681.75C476.9 682.661 476.161 683.4 475.25 683.4C474.339 683.4 473.6 682.661 473.6 681.75C473.6 680.839 474.339 680.1 475.25 680.1C476.161 680.1 476.9 680.839 476.9 681.75Z" fill="white" stroke="#424242" stroke-width="0.2"/>
<circle cx="477.25" cy="679.75" r="1.65" fill="white" stroke="#424242" stroke-width="0.2"/>
<path d="M478.4 676.75C478.4 677.661 477.661 678.4 476.75 678.4C475.839 678.4 475.1 677.661 475.1 676.75C475.1 675.839 475.839 675.1 476.75 675.1C477.661 675.1 478.4 675.839 478.4 676.75Z" fill="white" stroke="#424242" stroke-width="0.2"/>
<circle cx="474.75" cy="674.75" r="1.65" fill="white" stroke="#424242" stroke-width="0.2"/>
<circle cx="471.75" cy="674.75" r="1.65" fill="white" stroke="#424242" stroke-width="0.2"/>
<path d="M471.4 676.75C471.4 677.661 470.661 678.4 469.75 678.4C468.839 678.4 468.1 677.661 468.1 676.75C468.1 675.839 468.839 675.1 469.75 675.1C470.661 675.1 471.4 675.839 471.4 676.75Z" fill="white" stroke="#424242" stroke-width="0.2"/>
<path d="M470.9 679.25C470.9 680.161 470.161 680.9 469.25 680.9C468.339 680.9 467.6 680.161 467.6 679.25C467.6 678.339 468.339 677.6 469.25 677.6C470.161 677.6 470.9 678.339 470.9 679.25Z" fill="white" stroke="#424242" stroke-width="0.2"/>
<path d="M472.4 681.25C472.4 682.161 471.661 682.9 470.75 682.9C469.839 682.9 469.1 682.161 469.1 681.25C469.1 680.339 469.839 679.6 470.75 679.6C471.661 679.6 472.4 680.339 472.4 681.25Z" fill="white" stroke="#424242" stroke-width="0.2"/>
<ellipse cx="486.004" cy="690.966" rx="1.25" ry="10.5" transform="rotate(7.47194 486.004 690.966)" fill="#02A569"/>
<ellipse rx="3.00001" ry="3" transform="matrix(0.973453 0.228887 -0.228889 0.973453 488.021 679.113)" fill="#E2BC5A"/>
<ellipse cx="489.467" cy="682.792" rx="1.75" ry="1.75" transform="rotate(13.2316 489.467 682.792)" fill="#F82020"/>
<ellipse cx="491.872" cy="681.302" rx="1.75" ry="1.75" transform="rotate(13.2316 491.872 681.302)" fill="#C70000"/>
<ellipse cx="492.072" cy="678.268" rx="1.75" ry="1.75" transform="rotate(13.2316 492.072 678.268)" fill="#F82020"/>
<ellipse cx="490.583" cy="675.863" rx="1.75" ry="1.75" transform="rotate(13.2316 490.583 675.863)" fill="#C70000"/>
<ellipse cx="487.662" cy="675.176" rx="1.75" ry="1.75" transform="rotate(13.2316 487.662 675.176)" fill="#F82020"/>
<ellipse cx="485.258" cy="676.666" rx="1.75" ry="1.75" transform="rotate(13.2316 485.258 676.666)" fill="#C70000"/>
<ellipse cx="484.198" cy="678.985" rx="1.75" ry="1.75" transform="rotate(13.2316 484.198 678.985)" fill="#F82020"/>
<ellipse cx="485.201" cy="681.275" rx="1.75" ry="1.75" transform="rotate(13.2316 485.201 681.275)" fill="#C70000"/>
<ellipse cx="35.7498" cy="711.5" rx="1.25" ry="10.5" transform="rotate(-5.75967 35.7498 711.5)" fill="#02A569"/>
<circle cx="35" cy="699.5" r="3" fill="#E2BC5A"/>
<circle cx="37.25" cy="702.75" r="1.75" fill="#F82020"/>
<circle cx="39.25" cy="700.75" r="1.75" fill="#C70000"/>
<circle cx="38.75" cy="697.75" r="1.75" fill="#F82020"/>
<circle cx="36.75" cy="695.75" r="1.75" fill="#C70000"/>
<circle cx="33.75" cy="695.75" r="1.75" fill="#F82020"/>
<circle cx="31.75" cy="697.75" r="1.75" fill="#C70000"/>
<ellipse cx="31.25" cy="700.25" rx="1.75" ry="1.75" fill="#F82020"/>
<circle cx="32.75" cy="702.25" r="1.75" fill="#C70000"/>
<line x1="227.204" y1="703.145" x2="0.203695" y2="1022.14" stroke="black" stroke-width="0.5"/>
</g>
<path d="M778 31.5C778 81.4818 737.482 122 687.5 122C637.518 122 597 81.4818 597 31.5C597 -18.4818 637.518 -59 687.5 -59C737.482 -59 778 -18.4818 778 31.5Z" fill="#FFDE46"/>
<rect y="839" width="720" height="185" fill="#26E8A1"/>
<line x1="719.5" y1="1024" x2="719.5" stroke="black"/>
<rect x="720" width="720" height="1024" fill="url(#paint1_linear)"/>
<rect x="720" width="720" height="1024" fill="url(#paint2_linear)"/>
<g clip-path="url(#clip2)">
<path d="M720 720.1L780 714.516C840 709.141 960 697.66 1080 695.05C1200 692.441 1320 697.66 1380 700.635L1440 703.4V837H1380C1320 837 1200 837 1080 837C960 837 840 837 780 837H720V720.1Z" fill="#26E8A1"/>
<ellipse cx="746.587" cy="710.631" rx="1.25" ry="10.5" transform="rotate(-15.3812 746.587 710.631)" fill="#02A569"/>
<ellipse cx="743.842" cy="698.925" rx="3" ry="3" transform="rotate(-9.62153 743.842 698.925)" fill="#E2BC5A"/>
<circle cx="746.604" cy="701.753" r="1.75" transform="rotate(-9.62154 746.604 701.753)" fill="#F820BB"/>
<ellipse cx="748.241" cy="699.448" rx="1.75" ry="1.75" transform="rotate(-9.62154 748.241 699.448)" fill="#E927B2"/>
<ellipse cx="747.246" cy="696.573" rx="1.75" ry="1.75" transform="rotate(-9.62153 747.246 696.573)" fill="#F820BB"/>
<ellipse cx="744.94" cy="694.936" rx="1.75" ry="1.75" transform="rotate(-9.62153 744.94 694.936)" fill="#E927B2"/>
<ellipse cx="741.983" cy="695.437" rx="1.75" ry="1.75" transform="rotate(-9.62153 741.983 695.437)" fill="#F820BB"/>
<ellipse cx="740.345" cy="697.743" rx="1.75" ry="1.75" transform="rotate(-9.62153 740.345 697.743)" fill="#E927B2"/>
<ellipse cx="740.27" cy="700.291" rx="1.75" ry="1.75" transform="rotate(-9.62153 740.27 700.291)" fill="#F820BB"/>
<circle cx="742.083" cy="702.013" r="1.75" transform="rotate(-9.62154 742.083 702.013)" fill="#E927B2"/>
<ellipse cx="764.561" cy="708.342" rx="1.25" ry="10.5" transform="rotate(4.67139 764.561 708.342)" fill="#02A569"/>
<ellipse cx="765.996" cy="696.405" rx="3" ry="3" transform="rotate(10.4311 765.996 696.405)" fill="#E2BC5A"/>
<ellipse cx="767.621" cy="700.009" rx="1.75" ry="1.75" transform="rotate(10.4311 767.621 700.009)" fill="#F820BB"/>
<ellipse cx="769.95" cy="698.404" rx="1.75" ry="1.75" transform="rotate(10.4311 769.95 698.404)" fill="#E927B2"/>
<circle cx="770.001" cy="695.363" r="1.75" transform="rotate(10.4311 770.001 695.363)" fill="#F820BB"/>
<ellipse cx="768.396" cy="693.034" rx="1.75" ry="1.75" transform="rotate(10.4311 768.396 693.034)" fill="#E927B2"/>
<ellipse cx="765.446" cy="692.49" rx="1.75" ry="1.75" transform="rotate(10.4311 765.446 692.49)" fill="#F820BB"/>
<ellipse cx="763.117" cy="694.096" rx="1.75" ry="1.75" transform="rotate(10.4311 763.117 694.096)" fill="#E927B2"/>
<ellipse cx="762.172" cy="696.464" rx="1.75" ry="1.75" transform="rotate(10.4311 762.172 696.464)" fill="#F820BB"/>
<circle cx="763.285" cy="698.702" r="1.75" transform="rotate(10.4311 763.285 698.702)" fill="#E927B2"/>
<ellipse cx="905.601" cy="698.133" rx="1.25" ry="10.5" transform="rotate(-15.4296 905.601 698.133)" fill="#02A569"/>
<ellipse cx="902.846" cy="686.43" rx="3" ry="3" transform="rotate(-9.66993 902.846 686.43)" fill="#E2BC5A"/>
<ellipse cx="905.61" cy="689.255" rx="1.75" ry="1.75" transform="rotate(-9.66993 905.61 689.255)" fill="#F820BB"/>
<ellipse cx="907.245" cy="686.948" rx="1.75" ry="1.75" transform="rotate(-9.66993 907.245 686.948)" fill="#E927B2"/>
<ellipse cx="906.248" cy="684.075" rx="1.75" ry="1.75" transform="rotate(-9.66993 906.248 684.075)" fill="#F820BB"/>
<ellipse rx="1.75001" ry="1.75" transform="matrix(0.985792 -0.167971 0.167973 0.985792 903.941 682.439)" fill="#E927B2"/>
<ellipse cx="900.984" cy="682.943" rx="1.75" ry="1.75" transform="rotate(-9.66993 900.984 682.943)" fill="#F820BB"/>
<ellipse cx="899.348" cy="685.251" rx="1.75" ry="1.75" transform="rotate(-9.6699 899.348 685.251)" fill="#E927B2"/>
<ellipse cx="899.275" cy="687.799" rx="1.75" ry="1.75" transform="rotate(-9.66993 899.275 687.799)" fill="#F820BB"/>
<ellipse cx="901.09" cy="689.519" rx="1.75" ry="1.75" transform="rotate(-9.66993 901.09 689.519)" fill="#E927B2"/>
<ellipse cx="918.428" cy="697.031" rx="1.25" ry="10.5" transform="rotate(-0.473275 918.428 697.031)" fill="#02A569"/>
<ellipse cx="918.788" cy="685.014" rx="2.99999" ry="3" transform="rotate(5.28638 918.788 685.014)" fill="#E2BC5A"/>
<path d="M922.371 688.61C922.287 689.517 921.484 690.184 920.576 690.1C919.669 690.017 919.001 689.213 919.085 688.305C919.169 687.398 919.973 686.731 920.88 686.815C921.788 686.898 922.455 687.702 922.371 688.61Z" fill="white" stroke="#939393" stroke-width="0.2"/>
<path d="M924.547 686.802C924.463 687.709 923.659 688.377 922.752 688.293C921.845 688.209 921.177 687.405 921.261 686.498C921.345 685.59 922.149 684.923 923.056 685.007C923.963 685.091 924.631 685.895 924.547 686.802Z" fill="white" stroke="#939393" stroke-width="0.2"/>
<path d="M924.326 683.769C924.242 684.676 923.438 685.344 922.531 685.26C921.623 685.176 920.956 684.372 921.04 683.465C921.124 682.557 921.927 681.89 922.835 681.974C923.742 682.058 924.41 682.861 924.326 683.769Z" fill="white" stroke="#939393" stroke-width="0.2"/>
<path d="M922.518 681.593C922.434 682.5 921.631 683.168 920.723 683.084C919.816 683 919.148 682.196 919.232 681.289C919.316 680.381 920.12 679.714 921.027 679.798C921.935 679.882 922.602 680.686 922.518 681.593Z" fill="white" stroke="#939393" stroke-width="0.2"/>
<path d="M919.531 681.317C919.447 682.224 918.644 682.891 917.736 682.808C916.829 682.724 916.161 681.92 916.245 681.013C916.329 680.105 917.133 679.438 918.04 679.522C918.948 679.606 919.615 680.409 919.531 681.317Z" fill="white" stroke="#939393" stroke-width="0.2"/>
<path d="M917.356 683.123C917.272 684.031 916.468 684.698 915.561 684.614C914.653 684.53 913.986 683.727 914.07 682.819C914.154 681.912 914.957 681.244 915.865 681.328C916.772 681.412 917.439 682.216 917.356 683.123Z" fill="white" stroke="#939393" stroke-width="0.2"/>
<path d="M916.627 685.567C916.543 686.474 915.74 687.141 914.832 687.058C913.925 686.974 913.257 686.17 913.341 685.263C913.425 684.355 914.229 683.688 915.136 683.772C916.044 683.856 916.711 684.659 916.627 685.567Z" fill="white" stroke="#939393" stroke-width="0.2"/>
<path d="M917.937 687.696C917.853 688.604 917.049 689.271 916.142 689.187C915.234 689.103 914.567 688.3 914.651 687.392C914.735 686.485 915.538 685.817 916.446 685.901C917.353 685.985 918.021 686.789 917.937 687.696Z" fill="white" stroke="#939393" stroke-width="0.2"/>
<ellipse rx="1.25001" ry="10.5" transform="matrix(0.994952 -0.100355 0.100357 0.994952 1181.25 688.5)" fill="#02A569"/>
<circle cx="1180.5" cy="676.5" r="3" fill="#E2BC5A"/>
<ellipse cx="1182.75" cy="679.75" rx="1.75003" ry="1.75" fill="#F820BB"/>
<circle cx="1184.75" cy="677.75" r="1.75" fill="#E927B2"/>
<ellipse cx="1184.25" cy="674.75" rx="1.75" ry="1.75" fill="#F820BB"/>
<circle cx="1182.25" cy="672.75" r="1.75" fill="#E927B2"/>
<ellipse cx="1179.25" cy="672.75" rx="1.74998" ry="1.75" fill="#F820BB"/>
<ellipse cx="1177.25" cy="674.75" rx="1.75" ry="1.75" fill="#E927B2"/>
<ellipse cx="1176.75" cy="677.25" rx="1.74998" ry="1.75" fill="#F820BB"/>
<ellipse cx="1178.25" cy="679.25" rx="1.75" ry="1.75" fill="#E927B2"/>
<ellipse rx="1.24999" ry="10.5" transform="matrix(0.994952 -0.100357 0.100355 0.994952 1193.75 688.5)" fill="#02A569"/>
<circle cx="1193" cy="676.5" r="3" fill="#E2BC5A"/>
<path d="M1196.9 679.75C1196.9 680.661 1196.16 681.4 1195.25 681.4C1194.34 681.4 1193.6 680.661 1193.6 679.75C1193.6 678.839 1194.34 678.1 1195.25 678.1C1196.16 678.1 1196.9 678.839 1196.9 679.75Z" fill="white" stroke="#424242" stroke-width="0.2"/>
<circle cx="1197.25" cy="677.75" r="1.65" fill="white" stroke="#424242" stroke-width="0.2"/>
<path d="M1198.4 674.75C1198.4 675.661 1197.66 676.4 1196.75 676.4C1195.84 676.4 1195.1 675.661 1195.1 674.75C1195.1 673.839 1195.84 673.1 1196.75 673.1C1197.66 673.1 1198.4 673.839 1198.4 674.75Z" fill="white" stroke="#424242" stroke-width="0.2"/>
<circle cx="1194.75" cy="672.75" r="1.65" fill="white" stroke="#424242" stroke-width="0.2"/>
<circle cx="1191.75" cy="672.75" r="1.65" fill="white" stroke="#424242" stroke-width="0.2"/>
<path d="M1191.4 674.75C1191.4 675.661 1190.66 676.4 1189.75 676.4C1188.84 676.4 1188.1 675.661 1188.1 674.75C1188.1 673.839 1188.84 673.1 1189.75 673.1C1190.66 673.1 1191.4 673.839 1191.4 674.75Z" fill="white" stroke="#424242" stroke-width="0.2"/>
<path d="M1190.9 677.25C1190.9 678.161 1190.16 678.9 1189.25 678.9C1188.34 678.9 1187.6 678.161 1187.6 677.25C1187.6 676.339 1188.34 675.6 1189.25 675.6C1190.16 675.6 1190.9 676.339 1190.9 677.25Z" fill="white" stroke="#424242" stroke-width="0.2"/>
<path d="M1192.4 679.25C1192.4 680.161 1191.66 680.9 1190.75 680.9C1189.84 680.9 1189.1 680.161 1189.1 679.25C1189.1 678.339 1189.84 677.6 1190.75 677.6C1191.66 677.6 1192.4 678.339 1192.4 679.25Z" fill="white" stroke="#424242" stroke-width="0.2"/>
<ellipse cx="1206" cy="688.966" rx="1.25" ry="10.5" transform="rotate(7.47194 1206 688.966)" fill="#02A569"/>
<ellipse rx="3.00001" ry="3" transform="matrix(0.973453 0.228887 -0.228889 0.973453 1208.02 677.113)" fill="#E2BC5A"/>
<ellipse cx="1209.47" cy="680.792" rx="1.75" ry="1.75" transform="rotate(13.2316 1209.47 680.792)" fill="#F82020"/>
<ellipse cx="1211.87" cy="679.302" rx="1.75" ry="1.75" transform="rotate(13.2316 1211.87 679.302)" fill="#C70000"/>
<ellipse cx="1212.07" cy="676.268" rx="1.75" ry="1.75" transform="rotate(13.2316 1212.07 676.268)" fill="#F82020"/>
<ellipse cx="1210.58" cy="673.863" rx="1.75" ry="1.75" transform="rotate(13.2316 1210.58 673.863)" fill="#C70000"/>
<ellipse cx="1207.66" cy="673.176" rx="1.75" ry="1.75" transform="rotate(13.2316 1207.66 673.176)" fill="#F82020"/>
<ellipse cx="1205.26" cy="674.666" rx="1.75" ry="1.75" transform="rotate(13.2316 1205.26 674.666)" fill="#C70000"/>
<ellipse cx="1204.2" cy="676.985" rx="1.75" ry="1.75" transform="rotate(13.2316 1204.2 676.985)" fill="#F82020"/>
<ellipse cx="1205.2" cy="679.275" rx="1.75" ry="1.75" transform="rotate(13.2316 1205.2 679.275)" fill="#C70000"/>
<ellipse cx="755.75" cy="709.5" rx="1.25" ry="10.5" transform="rotate(-5.75967 755.75 709.5)" fill="#02A569"/>
<circle cx="755" cy="697.5" r="3" fill="#E2BC5A"/>
<circle cx="757.25" cy="700.75" r="1.75" fill="#F82020"/>
<circle cx="759.25" cy="698.75" r="1.75" fill="#C70000"/>
<circle cx="758.75" cy="695.75" r="1.75" fill="#F82020"/>
<circle cx="756.75" cy="693.75" r="1.75" fill="#C70000"/>
<circle cx="753.75" cy="693.75" r="1.75" fill="#F82020"/>
<circle cx="751.75" cy="695.75" r="1.75" fill="#C70000"/>
<ellipse cx="751.25" cy="698.25" rx="1.75" ry="1.75" fill="#F82020"/>
<circle cx="752.75" cy="700.25" r="1.75" fill="#C70000"/>
</g>
<rect x="720" y="837" width="720" height="187" fill="#26E8A1"/>
<path d="M1465 46.5C1465 96.4818 1424.48 137 1374.5 137C1324.52 137 1284 96.4818 1284 46.5C1284 -3.48177 1324.52 -44 1374.5 -44C1424.48 -44 1465 -3.48177 1465 46.5Z" fill="#FFDE46"/>
<path d="M720 2.75149e-05L642.5 110.5L628.5 102L622 96L616 90L612 85L610.5 83L608 79.5L605.5 75.5L603 71L601 67L599 62L597.5 58L596.5 55L594 45L593 37L593 29.5L593 22.5L594 15.5L595.5 7.5L598 0.000109831L720 2.75149e-05Z" fill="#E3E6FF"/>
<line x1="-0.203508" y1="1023.85" x2="131.796" y2="838.855" stroke="black" stroke-width="0.5"/>
<path d="M71.5195 59.0293C71.5195 62.2285 72.0176 64.6309 73.0137 66.2363C74.0215 67.8301 75.5566 68.627 77.6191 68.627C78.8027 68.627 79.875 68.2285 80.8359 67.4316C81.7969 66.623 82.6113 65.3691 83.2793 63.6699L86.0742 64.8125C84.3281 69.1719 81.498 71.3516 77.584 71.3516C74.502 71.3516 72.1289 70.291 70.4648 68.1699C68.8125 66.0488 67.9863 63.002 67.9863 59.0293C67.9863 50.9551 71.127 46.918 77.4082 46.918C81.3809 46.918 84.1113 48.8809 85.5996 52.8066L82.6465 53.9492C82.2129 52.625 81.5332 51.582 80.6074 50.8203C79.6934 50.0469 78.6328 49.6602 77.4258 49.6602C75.4219 49.6602 73.9336 50.416 72.9609 51.9277C72 53.4395 71.5195 55.8066 71.5195 59.0293ZM90.873 44.9141H94.0547V51.7695C94.0547 52.4609 94.002 53.6152 93.8965 55.2324H93.9492C95.1797 52.8301 97.166 51.6289 99.9082 51.6289C104.01 51.6289 106.061 53.8613 106.061 58.3262V71H102.879V58.7832C102.879 57.1895 102.568 56.0059 101.947 55.2324C101.338 54.459 100.359 54.0723 99.0117 54.0723C97.5586 54.0723 96.3633 54.6055 95.4258 55.6719C94.5 56.7266 94.0371 58.1621 94.0371 59.9785V71H90.873V44.9141ZM128.525 61.4727C128.525 64.6719 127.787 67.1211 126.311 68.8203C124.846 70.5078 122.725 71.3516 119.947 71.3516C117.229 71.3516 115.143 70.4961 113.689 68.7852C112.248 67.0742 111.527 64.6367 111.527 61.4727C111.527 58.2031 112.266 55.748 113.742 54.1074C115.23 52.4551 117.334 51.6289 120.053 51.6289C122.912 51.6289 125.039 52.4434 126.434 54.0723C127.828 55.7012 128.525 58.168 128.525 61.4727ZM125.203 61.4727C125.203 58.9531 124.799 57.0723 123.99 55.8301C123.193 54.5879 121.898 53.9668 120.105 53.9668C118.289 53.9668 116.959 54.5996 116.115 55.8652C115.271 57.1309 114.85 59 114.85 61.4727C114.85 63.9336 115.271 65.8086 116.115 67.0977C116.959 68.375 118.225 69.0137 119.912 69.0137C121.775 69.0137 123.123 68.3867 123.955 67.1328C124.787 65.8789 125.203 63.9922 125.203 61.4727ZM143.959 68.5039H150.639V71H133.377V68.5039H140.795V54.4766H135.188V51.9805H143.959V68.5039ZM140.443 48.2891V44.9141H143.959V48.2891H140.443ZM171.117 65.5684C171.117 67.373 170.432 68.791 169.061 69.8223C167.701 70.8418 165.814 71.3516 163.4 71.3516C160.986 71.3516 159.146 70.9766 157.881 70.2266C156.627 69.4648 155.807 68.2695 155.42 66.6406L158.215 66.0957C158.438 67.1035 158.912 67.8418 159.639 68.3105C160.377 68.7676 161.631 68.9961 163.4 68.9961C166.564 68.9961 168.146 67.9941 168.146 65.9902C168.146 65.2402 167.859 64.6367 167.285 64.1797C166.711 63.7109 165.832 63.3301 164.648 63.0371C161.555 62.2754 159.592 61.6777 158.76 61.2441C157.928 60.8105 157.289 60.2715 156.844 59.627C156.398 58.9707 156.176 58.1562 156.176 57.1836C156.176 55.4609 156.797 54.1133 158.039 53.1406C159.281 52.168 161.08 51.6816 163.436 51.6816C165.498 51.6816 167.145 52.0742 168.375 52.8594C169.605 53.6328 170.373 54.7637 170.678 56.252L167.83 56.6035C167.701 55.7598 167.285 55.1211 166.582 54.6875C165.879 54.2539 164.83 54.0371 163.436 54.0371C160.564 54.0371 159.129 54.9219 159.129 56.6914C159.129 57.3945 159.369 57.957 159.85 58.3789C160.342 58.8008 161.127 59.1406 162.205 59.3984L164.297 59.9434C166.207 60.4121 167.578 60.875 168.41 61.332C169.254 61.7891 169.916 62.3633 170.396 63.0547C170.877 63.7344 171.117 64.5723 171.117 65.5684ZM187.201 68.5039H193.881V71H176.619V68.5039H184.037V54.4766H178.43V51.9805H187.201V68.5039ZM183.686 48.2891V44.9141H187.201V48.2891H183.686ZM214.359 65.5684C214.359 67.373 213.674 68.791 212.303 69.8223C210.943 70.8418 209.057 71.3516 206.643 71.3516C204.229 71.3516 202.389 70.9766 201.123 70.2266C199.869 69.4648 199.049 68.2695 198.662 66.6406L201.457 66.0957C201.68 67.1035 202.154 67.8418 202.881 68.3105C203.619 68.7676 204.873 68.9961 206.643 68.9961C209.807 68.9961 211.389 67.9941 211.389 65.9902C211.389 65.2402 211.102 64.6367 210.527 64.1797C209.953 63.7109 209.074 63.3301 207.891 63.0371C204.797 62.2754 202.834 61.6777 202.002 61.2441C201.17 60.8105 200.531 60.2715 200.086 59.627C199.641 58.9707 199.418 58.1562 199.418 57.1836C199.418 55.4609 200.039 54.1133 201.281 53.1406C202.523 52.168 204.322 51.6816 206.678 51.6816C208.74 51.6816 210.387 52.0742 211.617 52.8594C212.848 53.6328 213.615 54.7637 213.92 56.252L211.072 56.6035C210.943 55.7598 210.527 55.1211 209.824 54.6875C209.121 54.2539 208.072 54.0371 206.678 54.0371C203.807 54.0371 202.371 54.9219 202.371 56.6914C202.371 57.3945 202.611 57.957 203.092 58.3789C203.584 58.8008 204.369 59.1406 205.447 59.3984L207.539 59.9434C209.449 60.4121 210.82 60.875 211.652 61.332C212.496 61.7891 213.158 62.3633 213.639 63.0547C214.119 63.7344 214.359 64.5723 214.359 65.5684ZM242.309 54.4766V51.9805H245.297L246.316 47.0234H248.426V51.9805H256.02V54.4766H248.426V65.9375C248.426 66.8633 248.672 67.5488 249.164 67.9941C249.668 68.4395 250.488 68.6621 251.625 68.6621C253.195 68.6621 254.936 68.4629 256.846 68.0645V70.4727C254.865 71.0117 252.902 71.2812 250.957 71.2812C249.059 71.2812 247.635 70.8828 246.686 70.0859C245.736 69.2773 245.262 68.0059 245.262 66.2715V54.4766H242.309ZM279.873 61.4727C279.873 64.6719 279.135 67.1211 277.658 68.8203C276.193 70.5078 274.072 71.3516 271.295 71.3516C268.576 71.3516 266.49 70.4961 265.037 68.7852C263.596 67.0742 262.875 64.6367 262.875 61.4727C262.875 58.2031 263.613 55.748 265.09 54.1074C266.578 52.4551 268.682 51.6289 271.4 51.6289C274.26 51.6289 276.387 52.4434 277.781 54.0723C279.176 55.7012 279.873 58.168 279.873 61.4727ZM276.551 61.4727C276.551 58.9531 276.146 57.0723 275.338 55.8301C274.541 54.5879 273.246 53.9668 271.453 53.9668C269.637 53.9668 268.307 54.5996 267.463 55.8652C266.619 57.1309 266.197 59 266.197 61.4727C266.197 63.9336 266.619 65.8086 267.463 67.0977C268.307 68.375 269.572 69.0137 271.26 69.0137C273.123 69.0137 274.471 68.3867 275.303 67.1328C276.135 65.8789 276.551 63.9922 276.551 61.4727ZM297.469 71V58.7832C297.469 57.1895 297.158 56.0059 296.537 55.2324C295.928 54.459 294.949 54.0723 293.602 54.0723C292.148 54.0723 290.953 54.6055 290.016 55.6719C289.09 56.7266 288.627 58.1621 288.627 59.9785V71H285.463V56.041C285.463 53.8262 285.428 52.4727 285.357 51.9805H288.346C288.357 52.0391 288.369 52.1973 288.381 52.4551C288.393 52.7129 288.404 53.0117 288.416 53.3516C288.439 53.6797 288.463 54.3066 288.486 55.2324H288.539C289.77 52.8301 291.797 51.6289 294.621 51.6289C296.648 51.6289 298.16 52.1797 299.156 53.2812C300.152 54.3711 300.65 56.0527 300.65 58.3262V71H297.469ZM334.787 71V58.9414C334.787 57.1367 334.641 55.877 334.348 55.1621C334.066 54.4355 333.545 54.0723 332.783 54.0723C332.033 54.0723 331.424 54.6348 330.955 55.7598C330.498 56.8848 330.27 58.4082 330.27 60.3301V71H327.299V56.041C327.299 53.8262 327.264 52.4727 327.193 51.9805H329.812L329.918 54.2129V55.0566H329.953C330.352 53.8613 330.855 52.9941 331.465 52.4551C332.074 51.9043 332.836 51.6289 333.75 51.6289C334.781 51.6289 335.549 51.9102 336.053 52.4727C336.568 53.0352 336.938 53.9023 337.16 55.0742H337.195C337.664 53.832 338.221 52.9473 338.865 52.4199C339.521 51.8926 340.348 51.6289 341.344 51.6289C342.727 51.6289 343.717 52.1328 344.314 53.1406C344.912 54.1484 345.211 55.877 345.211 58.3262V71H342.258V58.9414C342.258 57.1367 342.111 55.877 341.818 55.1621C341.537 54.4355 341.016 54.0723 340.254 54.0723C339.48 54.0723 338.865 54.5645 338.408 55.5488C337.963 56.5332 337.74 58.0098 337.74 59.9785V71H334.787ZM366.357 61.4727C366.357 64.6719 365.619 67.1211 364.143 68.8203C362.678 70.5078 360.557 71.3516 357.779 71.3516C355.061 71.3516 352.975 70.4961 351.521 68.7852C350.08 67.0742 349.359 64.6367 349.359 61.4727C349.359 58.2031 350.098 55.748 351.574 54.1074C353.062 52.4551 355.166 51.6289 357.885 51.6289C360.744 51.6289 362.871 52.4434 364.266 54.0723C365.66 55.7012 366.357 58.168 366.357 61.4727ZM363.035 61.4727C363.035 58.9531 362.631 57.0723 361.822 55.8301C361.025 54.5879 359.73 53.9668 357.938 53.9668C356.121 53.9668 354.791 54.5996 353.947 55.8652C353.104 57.1309 352.682 59 352.682 61.4727C352.682 63.9336 353.104 65.8086 353.947 67.0977C354.791 68.375 356.057 69.0137 357.744 69.0137C359.607 69.0137 360.955 68.3867 361.787 67.1328C362.619 65.8789 363.035 63.9922 363.035 61.4727ZM383.848 67.9414C383.273 69.1719 382.512 70.0684 381.562 70.6309C380.613 71.1816 379.43 71.457 378.012 71.457C375.645 71.457 373.904 70.6426 372.791 69.0137C371.678 67.3848 371.121 64.9297 371.121 61.6484C371.121 55.0156 373.418 51.6992 378.012 51.6992C379.43 51.6992 380.613 51.9512 381.562 52.4551C382.523 52.959 383.291 53.7852 383.865 54.9336H383.9L383.865 52.2793V44.9141H387.029V67.0801C387.029 69.0605 387.064 70.3672 387.135 71H384.111C384.064 70.8242 384.023 70.3965 383.988 69.7168C383.953 69.0371 383.936 68.4453 383.936 67.9414H383.848ZM374.391 61.543C374.391 64.1445 374.736 66.043 375.428 67.2383C376.131 68.4219 377.268 69.0137 378.838 69.0137C380.549 69.0137 381.814 68.3984 382.635 67.168C383.455 65.9258 383.865 63.957 383.865 61.2617C383.865 58.7422 383.467 56.9082 382.67 55.7598C381.885 54.6113 380.619 54.0371 378.873 54.0371C377.291 54.0371 376.148 54.6406 375.445 55.8477C374.742 57.0547 374.391 58.9531 374.391 61.543ZM395.977 62.1582C395.977 64.291 396.445 65.9609 397.383 67.168C398.332 68.375 399.627 68.9785 401.268 68.9785C402.475 68.9785 403.529 68.7207 404.432 68.2051C405.346 67.6777 405.955 66.9629 406.26 66.0605L409.037 66.8516C408.521 68.3047 407.572 69.418 406.189 70.1914C404.818 70.9648 403.178 71.3516 401.268 71.3516C398.502 71.3516 396.375 70.4902 394.887 68.7676C393.398 67.0449 392.654 64.5781 392.654 61.3672C392.654 58.2383 393.381 55.8359 394.834 54.1602C396.299 52.4727 398.408 51.6289 401.162 51.6289C403.916 51.6289 406.002 52.4668 407.42 54.1426C408.838 55.8184 409.547 58.3496 409.547 61.7363V62.1582H395.977ZM401.197 53.9668C399.627 53.9668 398.385 54.4824 397.471 55.5137C396.557 56.5332 396.07 57.9395 396.012 59.7324H406.277C405.949 55.8887 404.256 53.9668 401.197 53.9668Z" fill="white"/>
<path d="M1013.52 599L1021.81 602.484L979 699L970 699.5L1013.52 599Z" fill="#323232"/>
<path d="M1129.18 604.721L1137.53 601.349L1175.5 694.5L1165.64 694.847L1129.18 604.721Z" fill="#323232"/>
<path d="M1144 337.113L1151.19 340.925L1157.27 344.601L1164.16 349.052L1169.13 352.591L1175.88 358.152L1180.55 362.33L1186.19 367.754L1190.56 372.571L1195.09 377.859L1198.82 382.372L1203.38 389.24L1208.28 397.051L1211.23 402.37L1214.85 409.574L1217.66 416.002L1219.67 421.656L1080.4 471.141L1144 337.113Z" fill="#F7A03B"/>
<path d="M1029.39 331.142L1037.68 328.696L1044.59 326.996L1052.6 325.275L1058.62 324.265L1067.32 323.427L1073.57 323.084L1081.39 322.935L1087.88 323.26L1094.81 323.801L1100.63 324.362L1108.7 326.001L1117.67 328.072L1123.5 329.753L1131.14 332.297L1137.66 334.862L1143.06 337.448L1079.05 471.141L1029.39 331.142Z" fill="#C40606"/>
<path d="M942.823 408.595L947.283 400.872L950.962 394.708L955.419 387.724L958.966 382.681L964.546 375.828L968.74 371.087L974.188 365.356L979.029 360.918L984.346 356.308L988.884 352.517L995.798 347.865L1003.66 342.87L1009.02 339.856L1016.28 336.154L1022.76 333.271L1028.54 331.443L1078.59 472.315L1078.03 472.517L1068.45 467.961L1010.98 440.624L942.823 408.595Z" fill="#EA009A"/>
<path d="M1219.15 422.695L1221.57 430.511L1223.29 437.442L1225.05 445.497L1226.08 451.543L1226.95 460.29L1227.31 466.575L1227.48 474.436L1227.17 480.959L1226.65 487.936L1226.11 493.79L1224.48 501.913L1222.43 510.943L1220.76 516.819L1218.23 524.511L1215.67 531.08L1213.09 536.525L1145.71 504.712L1091.44 478.895L1079.94 473.427L1079.61 472.485L1084.79 470.643L1099.4 465.454L1149.27 447.523L1219.15 422.695Z" fill="#E6EB00"/>
<path d="M1212.78 537.684L1209.06 544.842L1205.46 550.898L1201.09 557.757L1197.62 562.711L1192.16 569.442L1188.05 574.098L1182.72 579.727L1177.98 584.085L1172.77 588.612L1168.33 592.335L1161.55 596.902L1153.85 601.806L1148.6 604.765L1141.49 608.398L1135.14 611.228L1129.55 613.253L1080.44 474.841L1212.78 537.684Z" fill="#00D03A"/>
<path d="M942.518 409.233L1075.97 472.715L936.987 522.099L934.644 515.503L932.771 508.739L931.202 501.337L930.105 493.768L929.007 486.199L928.548 478.933L928.393 471.029L928.572 464.067L929.055 456.467L930.481 448.531L931.77 441.706L933.363 434.242L934.987 428.359L937.082 422.308L938.737 418.005L939.785 414.98L942.518 409.233Z" fill="#A429CF"/>
<path d="M937.328 523.071L1078.2 473.015L1014.48 607.641L1008.09 604.624L1001.91 601.15L995.496 597.005L989.296 592.404L983.096 587.803L977.568 582.961L971.799 577.448L966.943 572.365L961.845 566.611L957.179 559.945L953.21 554.166L949 547.715L945.943 542.367L943.103 536.562L941.2 532.317L939.78 529.415L937.328 523.071Z" fill="#6663F3"/>
<path d="M1015.25 608.465L1079.31 473.223L1129.43 614.281L1123.08 616.534L1116.27 618.475L1108.81 620.111L1101.17 621.268L1093.53 622.426L1086.2 622.932L1078.21 623.134L1071.18 622.989L1063.49 622.54L1055.46 621.134L1048.55 619.861L1040.99 618.283L1035.03 616.664L1028.89 614.568L1024.53 612.909L1021.46 611.86L1015.25 608.465Z" fill="#04D9CC"/>
<path d="M1029.02 331.271L1129.25 613.353" stroke="black"/>
<path d="M937.155 522.57L1219.84 422.129" stroke="black"/>
<path d="M1014.74 608.025L1143.55 336.899" stroke="black"/>
<path d="M1212.93 537.076L942.352 408.762" stroke="black"/>
<path d="M1065 306.053L1103.11 306.053L1084.05 339.053L1065 306.053Z" fill="#424242"/>
<circle cx="1080" cy="473" r="30" fill="white"/>
<path d="M779.775 41.9062C779.775 45.7852 778.873 48.7734 777.068 50.8711C775.275 52.957 772.703 54 769.352 54H762.848V30.2871H768.314C772.17 30.2871 775.041 31.2539 776.928 33.1875C778.826 35.1094 779.775 38.0156 779.775 41.9062ZM776.4 41.9062C776.4 38.8125 775.756 36.5625 774.467 35.1562C773.178 33.7383 771.133 33.0293 768.332 33.0293H766.205V51.2578H769.053C771.537 51.2578 773.383 50.4785 774.59 48.9199C775.797 47.3613 776.4 45.0234 776.4 41.9062ZM787.281 45.1582C787.281 47.291 787.75 48.9609 788.688 50.168C789.637 51.375 790.932 51.9785 792.572 51.9785C793.779 51.9785 794.834 51.7207 795.736 51.2051C796.65 50.6777 797.26 49.9629 797.564 49.0605L800.342 49.8516C799.826 51.3047 798.877 52.418 797.494 53.1914C796.123 53.9648 794.482 54.3516 792.572 54.3516C789.807 54.3516 787.68 53.4902 786.191 51.7676C784.703 50.0449 783.959 47.5781 783.959 44.3672C783.959 41.2383 784.686 38.8359 786.139 37.1602C787.604 35.4727 789.713 34.6289 792.467 34.6289C795.221 34.6289 797.307 35.4668 798.725 37.1426C800.143 38.8184 800.852 41.3496 800.852 44.7363V45.1582H787.281ZM792.502 36.9668C790.932 36.9668 789.689 37.4824 788.775 38.5137C787.861 39.5332 787.375 40.9395 787.316 42.7324H797.582C797.254 38.8887 795.561 36.9668 792.502 36.9668ZM834.162 34.6992C835.674 34.6992 836.881 34.9629 837.783 35.4902C838.686 36.0059 839.424 36.8203 839.998 37.9336H840.033C840.033 37.582 840.051 37.0371 840.086 36.2988C840.133 35.5488 840.186 35.1035 840.244 34.9629H843.32C843.25 35.5957 843.215 37.248 843.215 39.9199V61.4707H840.033V53.7539L840.104 50.8008H840.068C839.447 52.0547 838.674 52.9805 837.748 53.5781C836.822 54.1641 835.633 54.457 834.18 54.457C831.812 54.457 830.072 53.6367 828.959 51.9961C827.846 50.3438 827.289 47.8945 827.289 44.6484C827.289 38.0156 829.58 34.6992 834.162 34.6992ZM840.033 44.2617C840.033 41.7773 839.635 39.9551 838.838 38.7949C838.041 37.623 836.775 37.0371 835.041 37.0371C833.471 37.0371 832.328 37.6348 831.613 38.8301C830.91 40.0254 830.559 41.9297 830.559 44.543C830.559 47.1328 830.916 49.0254 831.631 50.2207C832.346 51.416 833.471 52.0137 835.006 52.0137C836.729 52.0137 837.994 51.375 838.803 50.0977C839.623 48.8203 840.033 46.875 840.033 44.2617ZM852.9 34.9805V47.0391C852.9 48.8672 853.188 50.1387 853.762 50.8535C854.336 51.5566 855.361 51.9082 856.838 51.9082C858.35 51.9082 859.545 51.3926 860.424 50.3613C861.303 49.3301 861.742 47.877 861.742 46.002V34.9805H864.924V49.9395C864.924 52.1543 864.959 53.5078 865.029 54H862.041C862.029 53.9414 862.018 53.7832 862.006 53.5254C861.994 53.2676 861.977 52.9746 861.953 52.6465C861.941 52.3066 861.924 51.6738 861.9 50.748H861.848C861.121 52.0605 860.277 52.9922 859.316 53.543C858.367 54.082 857.184 54.3516 855.766 54.3516C853.68 54.3516 852.15 53.8359 851.178 52.8047C850.217 51.7617 849.736 50.0449 849.736 47.6543V34.9805H852.9ZM873.766 45.1582C873.766 47.291 874.234 48.9609 875.172 50.168C876.121 51.375 877.416 51.9785 879.057 51.9785C880.264 51.9785 881.318 51.7207 882.221 51.2051C883.135 50.6777 883.744 49.9629 884.049 49.0605L886.826 49.8516C886.311 51.3047 885.361 52.418 883.979 53.1914C882.607 53.9648 880.967 54.3516 879.057 54.3516C876.291 54.3516 874.164 53.4902 872.676 51.7676C871.188 50.0449 870.443 47.5781 870.443 44.3672C870.443 41.2383 871.17 38.8359 872.623 37.1602C874.088 35.4727 876.197 34.6289 878.951 34.6289C881.705 34.6289 883.791 35.4668 885.209 37.1426C886.627 38.8184 887.336 41.3496 887.336 44.7363V45.1582H873.766ZM878.986 36.9668C877.416 36.9668 876.174 37.4824 875.26 38.5137C874.346 39.5332 873.859 40.9395 873.801 42.7324H884.066C883.738 38.8887 882.045 36.9668 878.986 36.9668ZM902.664 51.5039H909.344V54H892.082V51.5039H899.5V30.4102H894.42V27.9141H902.664V51.5039ZM924.285 51.5039H930.965V54H913.703V51.5039H921.121V30.4102H916.041V27.9141H924.285V51.5039ZM938.629 45.1582C938.629 47.291 939.098 48.9609 940.035 50.168C940.984 51.375 942.279 51.9785 943.92 51.9785C945.127 51.9785 946.182 51.7207 947.084 51.2051C947.998 50.6777 948.607 49.9629 948.912 49.0605L951.689 49.8516C951.174 51.3047 950.225 52.418 948.842 53.1914C947.471 53.9648 945.83 54.3516 943.92 54.3516C941.154 54.3516 939.027 53.4902 937.539 51.7676C936.051 50.0449 935.307 47.5781 935.307 44.3672C935.307 41.2383 936.033 38.8359 937.486 37.1602C938.951 35.4727 941.061 34.6289 943.814 34.6289C946.568 34.6289 948.654 35.4668 950.072 37.1426C951.49 38.8184 952.199 41.3496 952.199 44.7363V45.1582H938.629ZM943.85 36.9668C942.279 36.9668 941.037 37.4824 940.123 38.5137C939.209 39.5332 938.723 40.9395 938.664 42.7324H948.93C948.602 38.8887 946.908 36.9668 943.85 36.9668ZM978.496 44.4727C978.496 41.3086 979.252 38.877 980.764 37.1777C982.275 35.4785 984.461 34.6289 987.32 34.6289C989.453 34.6289 991.211 35.1445 992.594 36.1758C993.977 37.1953 994.832 38.5723 995.16 40.3066L991.785 40.5527C991.598 39.4863 991.129 38.6484 990.379 38.0391C989.629 37.418 988.562 37.1074 987.18 37.1074C985.328 37.1074 983.969 37.6816 983.102 38.8301C982.246 39.9785 981.818 41.8359 981.818 44.4023C981.818 47.0039 982.246 48.9082 983.102 50.1152C983.969 51.3105 985.322 51.9082 987.162 51.9082C988.428 51.9082 989.477 51.5977 990.309 50.9766C991.141 50.3555 991.656 49.4062 991.855 48.1289L995.195 48.3398C995.043 49.4648 994.615 50.4902 993.912 51.416C993.221 52.3301 992.301 53.0508 991.152 53.5781C990.004 54.0938 988.721 54.3516 987.303 54.3516C984.432 54.3516 982.246 53.5078 980.746 51.8203C979.246 50.1328 978.496 47.6836 978.496 44.4727ZM1017.12 44.4727C1017.12 47.6719 1016.38 50.1211 1014.9 51.8203C1013.44 53.5078 1011.31 54.3516 1008.54 54.3516C1005.82 54.3516 1003.73 53.4961 1002.28 51.7852C1000.84 50.0742 1000.12 47.6367 1000.12 44.4727C1000.12 41.2031 1000.86 38.748 1002.33 37.1074C1003.82 35.4551 1005.92 34.6289 1008.64 34.6289C1011.5 34.6289 1013.63 35.4434 1015.02 37.0723C1016.42 38.7012 1017.12 41.168 1017.12 44.4727ZM1013.79 44.4727C1013.79 41.9531 1013.39 40.0723 1012.58 38.8301C1011.78 37.5879 1010.49 36.9668 1008.7 36.9668C1006.88 36.9668 1005.55 37.5996 1004.71 38.8652C1003.86 40.1309 1003.44 42 1003.44 44.4727C1003.44 46.9336 1003.86 48.8086 1004.71 50.0977C1005.55 51.375 1006.81 52.0137 1008.5 52.0137C1010.37 52.0137 1011.71 51.3867 1012.54 50.1328C1013.38 48.8789 1013.79 46.9922 1013.79 44.4727ZM1025.87 34.9805V47.0391C1025.87 48.8672 1026.16 50.1387 1026.73 50.8535C1027.3 51.5566 1028.33 51.9082 1029.81 51.9082C1031.32 51.9082 1032.51 51.3926 1033.39 50.3613C1034.27 49.3301 1034.71 47.877 1034.71 46.002V34.9805H1037.89V49.9395C1037.89 52.1543 1037.93 53.5078 1038 54H1035.01C1035 53.9414 1034.99 53.7832 1034.97 53.5254C1034.96 53.2676 1034.95 52.9746 1034.92 52.6465C1034.91 52.3066 1034.89 51.6738 1034.87 50.748H1034.82C1034.09 52.0605 1033.25 52.9922 1032.29 53.543C1031.34 54.082 1030.15 54.3516 1028.73 54.3516C1026.65 54.3516 1025.12 53.8359 1024.15 52.8047C1023.19 51.7617 1022.71 50.0449 1022.71 47.6543V34.9805H1025.87ZM1054.01 51.5039H1060.69V54H1043.43V51.5039H1050.85V30.4102H1045.77V27.9141H1054.01V51.5039ZM1068.36 45.1582C1068.36 47.291 1068.82 48.9609 1069.76 50.168C1070.71 51.375 1072.01 51.9785 1073.65 51.9785C1074.85 51.9785 1075.91 51.7207 1076.81 51.2051C1077.72 50.6777 1078.33 49.9629 1078.64 49.0605L1081.42 49.8516C1080.9 51.3047 1079.95 52.418 1078.57 53.1914C1077.2 53.9648 1075.56 54.3516 1073.65 54.3516C1070.88 54.3516 1068.75 53.4902 1067.27 51.7676C1065.78 50.0449 1065.03 47.5781 1065.03 44.3672C1065.03 41.2383 1065.76 38.8359 1067.21 37.1602C1068.68 35.4727 1070.79 34.6289 1073.54 34.6289C1076.29 34.6289 1078.38 35.4668 1079.8 37.1426C1081.22 38.8184 1081.93 41.3496 1081.93 44.7363V45.1582H1068.36ZM1073.58 36.9668C1072.01 36.9668 1070.76 37.4824 1069.85 38.5137C1068.94 39.5332 1068.45 40.9395 1068.39 42.7324H1078.66C1078.33 38.8887 1076.63 36.9668 1073.58 36.9668ZM1090.73 34.9805V47.0391C1090.73 48.8672 1091.02 50.1387 1091.59 50.8535C1092.17 51.5566 1093.19 51.9082 1094.67 51.9082C1096.18 51.9082 1097.38 51.3926 1098.26 50.3613C1099.13 49.3301 1099.57 47.877 1099.57 46.002V34.9805H1102.76V49.9395C1102.76 52.1543 1102.79 53.5078 1102.86 54H1099.87C1099.86 53.9414 1099.85 53.7832 1099.84 53.5254C1099.83 53.2676 1099.81 52.9746 1099.79 52.6465C1099.77 52.3066 1099.76 51.6738 1099.73 50.748H1099.68C1098.95 52.0605 1098.11 52.9922 1097.15 53.543C1096.2 54.082 1095.02 54.3516 1093.6 54.3516C1091.51 54.3516 1089.98 53.8359 1089.01 52.8047C1088.05 51.7617 1087.57 50.0449 1087.57 47.6543V34.9805H1090.73ZM1124.31 37.8633C1122.99 37.6406 1121.75 37.5293 1120.58 37.5293C1118.69 37.5293 1117.17 38.2383 1116.01 39.6562C1114.85 41.0742 1114.27 42.8789 1114.27 45.0703V54H1111.11V41.6777C1111.11 40.7871 1111.02 39.7383 1110.86 38.5312C1110.71 37.3242 1110.48 36.1406 1110.19 34.9805H1113.2C1113.67 36.5977 1113.95 38.0625 1114.04 39.375H1114.13C1114.71 38.0625 1115.29 37.1016 1115.85 36.4922C1116.41 35.8711 1117.08 35.4082 1117.86 35.1035C1118.63 34.7871 1119.57 34.6289 1120.69 34.6289C1121.9 34.6289 1123.11 34.7285 1124.31 34.9277V37.8633ZM772.568 95H768.824L761.213 75.9805H764.764L769.475 88.3555L769.773 89.2871L770.688 92.5215L771.303 90.4648L771.988 88.3906L776.84 75.9805H780.373L772.568 95ZM800.975 93.0488C801.279 93.0488 801.625 93.0078 802.012 92.9258V94.8945C801.215 95.082 800.4 95.1758 799.568 95.1758C798.396 95.1758 797.541 94.8711 797.002 94.2617C796.475 93.6406 796.176 92.6738 796.105 91.3613H796C795.238 92.7793 794.336 93.7988 793.293 94.4199C792.262 95.041 790.984 95.3516 789.461 95.3516C787.609 95.3516 786.215 94.8477 785.277 93.8398C784.34 92.832 783.871 91.4492 783.871 89.6914C783.871 85.6016 786.531 83.5273 791.852 83.4688L796 83.3984V82.3613C796 80.8262 795.689 79.7246 795.068 79.0566C794.447 78.377 793.457 78.0371 792.098 78.0371C790.715 78.0371 789.719 78.2832 789.109 78.7754C788.5 79.2676 788.137 80.0293 788.02 81.0605L784.715 80.7617C785.254 77.3398 787.732 75.6289 792.15 75.6289C794.494 75.6289 796.252 76.1797 797.424 77.2812C798.607 78.3711 799.199 79.9531 799.199 82.0273V90.2188C799.199 91.1562 799.322 91.8652 799.568 92.3457C799.814 92.8145 800.283 93.0488 800.975 93.0488ZM790.27 92.9434C791.395 92.9434 792.391 92.6738 793.258 92.1348C794.125 91.5957 794.799 90.875 795.279 89.9727C795.76 89.0703 796 88.1387 796 87.1777V85.6133L792.66 85.6836C791.277 85.707 790.223 85.8594 789.496 86.1406C788.77 86.4219 788.201 86.8555 787.791 87.4414C787.393 88.0156 787.193 88.7832 787.193 89.7441C787.193 90.7051 787.451 91.4785 787.967 92.0645C788.494 92.6504 789.262 92.9434 790.27 92.9434ZM821.875 89.5684C821.875 91.373 821.189 92.791 819.818 93.8223C818.459 94.8418 816.572 95.3516 814.158 95.3516C811.744 95.3516 809.904 94.9766 808.639 94.2266C807.385 93.4648 806.564 92.2695 806.178 90.6406L808.973 90.0957C809.195 91.1035 809.67 91.8418 810.396 92.3105C811.135 92.7676 812.389 92.9961 814.158 92.9961C817.322 92.9961 818.904 91.9941 818.904 89.9902C818.904 89.2402 818.617 88.6367 818.043 88.1797C817.469 87.7109 816.59 87.3301 815.406 87.0371C812.312 86.2754 810.35 85.6777 809.518 85.2441C808.686 84.8105 808.047 84.2715 807.602 83.627C807.156 82.9707 806.934 82.1562 806.934 81.1836C806.934 79.4609 807.555 78.1133 808.797 77.1406C810.039 76.168 811.838 75.6816 814.193 75.6816C816.256 75.6816 817.902 76.0742 819.133 76.8594C820.363 77.6328 821.131 78.7637 821.436 80.252L818.588 80.6035C818.459 79.7598 818.043 79.1211 817.34 78.6875C816.637 78.2539 815.588 78.0371 814.193 78.0371C811.322 78.0371 809.887 78.9219 809.887 80.6914C809.887 81.3945 810.127 81.957 810.607 82.3789C811.1 82.8008 811.885 83.1406 812.963 83.3984L815.055 83.9434C816.965 84.4121 818.336 84.875 819.168 85.332C820.012 85.7891 820.674 86.3633 821.154 87.0547C821.635 87.7344 821.875 88.5723 821.875 89.5684ZM849.824 78.4766V75.9805H852.812L853.832 71.0234H855.941V75.9805H863.535V78.4766H855.941V89.9375C855.941 90.8633 856.188 91.5488 856.68 91.9941C857.184 92.4395 858.004 92.6621 859.141 92.6621C860.711 92.6621 862.451 92.4629 864.361 92.0645V94.4727C862.381 95.0117 860.418 95.2812 858.473 95.2812C856.574 95.2812 855.15 94.8828 854.201 94.0859C853.252 93.2773 852.777 92.0059 852.777 90.2715V78.4766H849.824ZM874.521 75.9805V88.0391C874.521 89.8672 874.809 91.1387 875.383 91.8535C875.957 92.5566 876.982 92.9082 878.459 92.9082C879.971 92.9082 881.166 92.3926 882.045 91.3613C882.924 90.3301 883.363 88.877 883.363 87.002V75.9805H886.545V90.9395C886.545 93.1543 886.58 94.5078 886.65 95H883.662C883.65 94.9414 883.639 94.7832 883.627 94.5254C883.615 94.2676 883.598 93.9746 883.574 93.6465C883.562 93.3066 883.545 92.6738 883.521 91.748H883.469C882.742 93.0605 881.898 93.9922 880.938 94.543C879.988 95.082 878.805 95.3516 877.387 95.3516C875.301 95.3516 873.771 94.8359 872.799 93.8047C871.838 92.7617 871.357 91.0449 871.357 88.6543V75.9805H874.521ZM914.688 78.4766V75.9805H917.676L918.695 71.0234H920.805V75.9805H928.398V78.4766H920.805V89.9375C920.805 90.8633 921.051 91.5488 921.543 91.9941C922.047 92.4395 922.867 92.6621 924.004 92.6621C925.574 92.6621 927.314 92.4629 929.225 92.0645V94.4727C927.244 95.0117 925.281 95.2812 923.336 95.2812C921.438 95.2812 920.014 94.8828 919.064 94.0859C918.115 93.2773 917.641 92.0059 917.641 90.2715V78.4766H914.688ZM939.982 79.8477L942.953 68.9141H947.611L942.145 79.8477H939.982ZM957.842 68.9141H961.023V75.7695C961.023 76.4609 960.971 77.6152 960.865 79.2324H960.918C962.148 76.8301 964.135 75.6289 966.877 75.6289C970.979 75.6289 973.029 77.8613 973.029 82.3262V95H969.848V82.7832C969.848 81.1895 969.537 80.0059 968.916 79.2324C968.307 78.459 967.328 78.0723 965.98 78.0723C964.527 78.0723 963.332 78.6055 962.395 79.6719C961.469 80.7266 961.006 82.1621 961.006 83.9785V95H957.842V68.9141ZM995.564 93.0488C995.869 93.0488 996.215 93.0078 996.602 92.9258V94.8945C995.805 95.082 994.99 95.1758 994.158 95.1758C992.986 95.1758 992.131 94.8711 991.592 94.2617C991.064 93.6406 990.766 92.6738 990.695 91.3613H990.59C989.828 92.7793 988.926 93.7988 987.883 94.4199C986.852 95.041 985.574 95.3516 984.051 95.3516C982.199 95.3516 980.805 94.8477 979.867 93.8398C978.93 92.832 978.461 91.4492 978.461 89.6914C978.461 85.6016 981.121 83.5273 986.441 83.4688L990.59 83.3984V82.3613C990.59 80.8262 990.279 79.7246 989.658 79.0566C989.037 78.377 988.047 78.0371 986.688 78.0371C985.305 78.0371 984.309 78.2832 983.699 78.7754C983.09 79.2676 982.727 80.0293 982.609 81.0605L979.305 80.7617C979.844 77.3398 982.322 75.6289 986.74 75.6289C989.084 75.6289 990.842 76.1797 992.014 77.2812C993.197 78.3711 993.789 79.9531 993.789 82.0273V90.2188C993.789 91.1562 993.912 91.8652 994.158 92.3457C994.404 92.8145 994.873 93.0488 995.564 93.0488ZM984.859 92.9434C985.984 92.9434 986.98 92.6738 987.848 92.1348C988.715 91.5957 989.389 90.875 989.869 89.9727C990.35 89.0703 990.59 88.1387 990.59 87.1777V85.6133L987.25 85.6836C985.867 85.707 984.812 85.8594 984.086 86.1406C983.359 86.4219 982.791 86.8555 982.381 87.4414C981.982 88.0156 981.783 88.7832 981.783 89.7441C981.783 90.7051 982.041 91.4785 982.557 92.0645C983.084 92.6504 983.852 92.9434 984.859 92.9434ZM1016.99 85.4023C1016.99 88.7305 1016.39 91.2207 1015.2 92.873C1014.02 94.5254 1012.32 95.3516 1010.1 95.3516C1007.24 95.3516 1005.29 94.2734 1004.23 92.1172H1004.2C1004.2 92.6797 1004.17 93.2656 1004.12 93.875C1004.09 94.4844 1004.06 94.8594 1004.04 95H1000.98C1001.05 94.3672 1001.08 93.0605 1001.08 91.0801V68.9141H1004.25V76.3496C1004.25 77.1113 1004.22 78.0312 1004.18 79.1094H1004.25C1005.31 76.7656 1007.27 75.5938 1010.12 75.5938C1014.7 75.5938 1016.99 78.8633 1016.99 85.4023ZM1013.72 85.5078C1013.72 82.8828 1013.36 80.9844 1012.63 79.8125C1011.92 78.6289 1010.79 78.0371 1009.26 78.0371C1007.51 78.0371 1006.24 78.6816 1005.44 79.9707C1004.65 81.248 1004.25 83.1875 1004.25 85.7891C1004.25 88.2383 1004.63 90.0547 1005.41 91.2383C1006.18 92.4219 1007.45 93.0137 1009.22 93.0137C1010.8 93.0137 1011.95 92.4043 1012.65 91.1855C1013.37 89.9551 1013.72 88.0625 1013.72 85.5078ZM1032.55 92.5039H1039.23V95H1021.97V92.5039H1029.38V78.4766H1023.78V75.9805H1032.55V92.5039ZM1029.03 72.2891V68.9141H1032.55V72.2891H1029.03ZM1054.01 92.5039H1060.69V95H1043.43V92.5039H1050.85V71.4102H1045.77V68.9141H1054.01V92.5039ZM1075.63 92.5039H1082.31V95H1065.05V92.5039H1072.47V71.4102H1067.39V68.9141H1075.63V92.5039ZM1089.98 86.1582C1089.98 88.291 1090.45 89.9609 1091.38 91.168C1092.33 92.375 1093.63 92.9785 1095.27 92.9785C1096.47 92.9785 1097.53 92.7207 1098.43 92.2051C1099.35 91.6777 1099.96 90.9629 1100.26 90.0605L1103.04 90.8516C1102.52 92.3047 1101.57 93.418 1100.19 94.1914C1098.82 94.9648 1097.18 95.3516 1095.27 95.3516C1092.5 95.3516 1090.38 94.4902 1088.89 92.7676C1087.4 91.0449 1086.65 88.5781 1086.65 85.3672C1086.65 82.2383 1087.38 79.8359 1088.83 78.1602C1090.3 76.4727 1092.41 75.6289 1095.16 75.6289C1097.92 75.6289 1100 76.4668 1101.42 78.1426C1102.84 79.8184 1103.55 82.3496 1103.55 85.7363V86.1582H1089.98ZM1095.2 77.9668C1093.63 77.9668 1092.38 78.4824 1091.47 79.5137C1090.56 80.5332 1090.07 81.9395 1090.01 83.7324H1100.28C1099.95 79.8887 1098.26 77.9668 1095.2 77.9668ZM1093.33 73.8887V73.5371L1097.32 69.3359H1100.79V69.8457L1095.51 73.8887H1093.33ZM1146.42 77.3867C1146.42 78.2422 1146.29 79.0039 1146.03 79.6719C1145.78 80.3398 1145.4 80.9609 1144.91 81.5352C1144.43 82.0977 1143.65 82.7656 1142.57 83.5391C1141.28 84.4766 1140.43 85.1621 1140 85.5957C1139.59 86.0293 1139.27 86.498 1139.02 87.002C1138.79 87.5059 1138.66 88.0801 1138.65 88.7246H1135.57C1135.6 87.9043 1135.74 87.1719 1136 86.5273C1136.27 85.8711 1136.63 85.2734 1137.09 84.7344C1137.55 84.1836 1138.35 83.4922 1139.46 82.6602C1140.71 81.7461 1141.53 81.0723 1141.92 80.6387C1142.32 80.2051 1142.63 79.7422 1142.87 79.25C1143.1 78.7461 1143.22 78.1719 1143.22 77.5273C1143.22 76.25 1142.75 75.2715 1141.81 74.5918C1140.89 73.9004 1139.63 73.5547 1138.04 73.5547C1136.45 73.5547 1135.16 73.9824 1134.17 74.8379C1133.18 75.6934 1132.61 76.8594 1132.45 78.3359L1129.21 78.125C1129.52 75.8164 1130.45 74.041 1132.01 72.7988C1133.58 71.5449 1135.57 70.918 1138 70.918C1140.61 70.918 1142.67 71.4863 1144.17 72.623C1145.67 73.748 1146.42 75.3359 1146.42 77.3867ZM1135.43 95V91.4668H1138.86V95H1135.43Z" fill="black"/>
<path d="M1326.82 62L1320.39 51.8926H1316.21V62H1312.85V38.2871H1321.32C1324.05 38.2871 1326.13 38.8555 1327.56 39.9922C1328.99 41.1172 1329.71 42.7344 1329.71 44.8438C1329.71 46.5898 1329.15 48.0605 1328.05 49.2559C1326.96 50.4512 1325.5 51.2012 1323.66 51.5059L1330.69 62H1326.82ZM1326.33 44.8965C1326.33 42.2832 1324.55 40.9766 1320.99 40.9766H1316.21V49.2383H1321.13C1322.8 49.2383 1324.09 48.8633 1324.98 48.1133C1325.88 47.3633 1326.33 46.291 1326.33 44.8965ZM1337.28 53.1582C1337.28 55.291 1337.75 56.9609 1338.69 58.168C1339.64 59.375 1340.93 59.9785 1342.57 59.9785C1343.78 59.9785 1344.83 59.7207 1345.74 59.2051C1346.65 58.6777 1347.26 57.9629 1347.56 57.0605L1350.34 57.8516C1349.83 59.3047 1348.88 60.418 1347.49 61.1914C1346.12 61.9648 1344.48 62.3516 1342.57 62.3516C1339.81 62.3516 1337.68 61.4902 1336.19 59.7676C1334.7 58.0449 1333.96 55.5781 1333.96 52.3672C1333.96 49.2383 1334.69 46.8359 1336.14 45.1602C1337.6 43.4727 1339.71 42.6289 1342.47 42.6289C1345.22 42.6289 1347.31 43.4668 1348.72 45.1426C1350.14 46.8184 1350.85 49.3496 1350.85 52.7363V53.1582H1337.28ZM1342.5 44.9668C1340.93 44.9668 1339.69 45.4824 1338.78 46.5137C1337.86 47.5332 1337.38 48.9395 1337.32 50.7324H1347.58C1347.25 46.8887 1345.56 44.9668 1342.5 44.9668ZM1356.58 45.4766V42.9805H1359.57L1360.59 38.0234H1362.7V42.9805H1370.29V45.4766H1362.7V56.9375C1362.7 57.8633 1362.95 58.5488 1363.44 58.9941C1363.94 59.4395 1364.76 59.6621 1365.9 59.6621C1367.47 59.6621 1369.21 59.4629 1371.12 59.0645V61.4727C1369.14 62.0117 1367.18 62.2812 1365.23 62.2812C1363.33 62.2812 1361.91 61.8828 1360.96 61.0859C1360.01 60.2773 1359.54 59.0059 1359.54 57.2715V45.4766H1356.58ZM1394.15 52.4727C1394.15 55.6719 1393.41 58.1211 1391.93 59.8203C1390.47 61.5078 1388.35 62.3516 1385.57 62.3516C1382.85 62.3516 1380.76 61.4961 1379.31 59.7852C1377.87 58.0742 1377.15 55.6367 1377.15 52.4727C1377.15 49.2031 1377.89 46.748 1379.36 45.1074C1380.85 43.4551 1382.96 42.6289 1385.67 42.6289C1388.53 42.6289 1390.66 43.4434 1392.05 45.0723C1393.45 46.7012 1394.15 49.168 1394.15 52.4727ZM1390.82 52.4727C1390.82 49.9531 1390.42 48.0723 1389.61 46.8301C1388.81 45.5879 1387.52 44.9668 1385.73 44.9668C1383.91 44.9668 1382.58 45.5996 1381.74 46.8652C1380.89 48.1309 1380.47 50 1380.47 52.4727C1380.47 54.9336 1380.89 56.8086 1381.74 58.0977C1382.58 59.375 1383.85 60.0137 1385.53 60.0137C1387.4 60.0137 1388.74 59.3867 1389.58 58.1328C1390.41 56.8789 1390.82 54.9922 1390.82 52.4727ZM1402.9 42.9805V55.0391C1402.9 56.8672 1403.19 58.1387 1403.76 58.8535C1404.34 59.5566 1405.36 59.9082 1406.84 59.9082C1408.35 59.9082 1409.54 59.3926 1410.42 58.3613C1411.3 57.3301 1411.74 55.877 1411.74 54.002V42.9805H1414.92V57.9395C1414.92 60.1543 1414.96 61.5078 1415.03 62H1412.04C1412.03 61.9414 1412.02 61.7832 1412.01 61.5254C1411.99 61.2676 1411.98 60.9746 1411.95 60.6465C1411.94 60.3066 1411.92 59.6738 1411.9 58.748H1411.85C1411.12 60.0605 1410.28 60.9922 1409.32 61.543C1408.37 62.082 1407.18 62.3516 1405.77 62.3516C1403.68 62.3516 1402.15 61.8359 1401.18 60.8047C1400.22 59.7617 1399.74 58.0449 1399.74 55.6543V42.9805H1402.9ZM1436.47 45.8633C1435.16 45.6406 1433.92 45.5293 1432.75 45.5293C1430.86 45.5293 1429.34 46.2383 1428.18 47.6562C1427.02 49.0742 1426.44 50.8789 1426.44 53.0703V62H1423.27V49.6777C1423.27 48.7871 1423.19 47.7383 1423.03 46.5312C1422.88 45.3242 1422.65 44.1406 1422.36 42.9805H1425.37C1425.83 44.5977 1426.12 46.0625 1426.21 47.375H1426.3C1426.88 46.0625 1427.46 45.1016 1428.02 44.4922C1428.58 43.8711 1429.25 43.4082 1430.02 43.1035C1430.8 42.7871 1431.74 42.6289 1432.85 42.6289C1434.07 42.6289 1435.28 42.7285 1436.47 42.9277V45.8633Z" fill="black"/>
</g>
<defs>
<linearGradient id="paint0_linear" x1="720" y1="0" x2="720" y2="1024" gradientUnits="userSpaceOnUse">
<stop stop-color="#84D0FB"/>
<stop offset="1" stop-color="white" stop-opacity="0"/>
</linearGradient>
<linearGradient id="paint1_linear" x1="1080" y1="3.19447e-07" x2="1089.5" y2="512" gradientUnits="userSpaceOnUse">
<stop stop-color="#84D0FB"/>
<stop offset="1" stop-color="white" stop-opacity="0"/>
</linearGradient>
<linearGradient id="paint2_linear" x1="1080" y1="3.19447e-07" x2="1089.5" y2="512" gradientUnits="userSpaceOnUse">
<stop stop-color="#84D0FB"/>
<stop offset="1" stop-color="white" stop-opacity="0"/>
</linearGradient>
<clipPath id="clip0">
<rect width="1440" height="1024" fill="white"/>
</clipPath>
<clipPath id="clip1">
<rect width="720" height="167" fill="white" transform="translate(0 672)"/>
</clipPath>
<clipPath id="clip2">
<rect width="720" height="167" fill="white" transform="translate(720 670)"/>
</clipPath>
</defs>
</svg>
