<svg width="500" height="593" viewBox="0 0 500 593" fill="none" xmlns="http://www.w3.org/2000/svg">
<rect x="56" y="89.3086" width="43.6214" height="30.9956" transform="rotate(-47.7872 56 89.3086)" fill="#C4C4C4"/>
<rect x="415.328" y="57.1333" width="43.6214" height="30.9956" transform="rotate(46.761 415.328 57.1333)" fill="#C4C4C4"/>
<g filter="url(#filter0_d)">
<ellipse cx="63.8418" cy="68.397" rx="33.444" ry="19.0705" transform="rotate(-46.5655 63.8418 68.397)" fill="#C4C4C4"/>
</g>
<g filter="url(#filter1_d)">
<ellipse cx="436.297" cy="66.9602" rx="33.444" ry="19.0705" transform="rotate(44.0528 436.297 66.9602)" fill="#C4C4C4"/>
</g>
<circle cx="250" cy="242" r="219" fill="#8E8E8E"/>
<g filter="url(#filter2_i)">
<rect x="101" y="238" width="298" height="96" fill="#E6E6E6"/>
</g>
<g filter="url(#filter3_d)">
<rect x="133" y="403" width="235" height="100" rx="50" fill="#C4C4C4"/>
</g>
<path d="M252.469 459V472.375H247.875V459H234.625V454.438H247.875V441.062H252.469V454.438H265.719V459H252.469Z" fill="white"/>
<path d="M145.438 289.5V284.5H162.938V289.5H145.438ZM183.875 289.5V284.5H201.375V289.5H183.875ZM222.312 289.5V284.5H239.812V289.5H222.312ZM260.75 289.5V284.5H278.25V289.5H260.75ZM299.188 289.5V284.5H316.688V289.5H299.188ZM337.625 289.5V284.5H355.125V289.5H337.625Z" fill="black"/>
<circle cx="176" cy="127" r="50" fill="#C4C4C4"/>
<circle cx="320" cy="127" r="50" fill="#C4C4C4"/>
<circle cx="187" cy="133" r="28" fill="black"/>
<circle cx="309" cy="133" r="28" fill="black"/>
<circle cx="301.5" cy="139.5" r="18.5" fill="white"/>
<circle cx="194.5" cy="138.5" r="18.5" fill="white"/>
<g clip-path="url(#clip0)">
<path d="M222.926 418.667C219.54 418.582 216.187 419.217 213.765 421.588C211.336 423.958 210.607 427.303 210.667 430.732C210.734 434.152 211.454 438.047 212.783 442.754L251.01 578.102C251.755 580.727 252.746 582.971 254.312 584.74C255.87 586.501 258.097 587.704 260.358 587.958C264.862 588.432 268.613 586.027 271.974 582.92L298.593 558.282C300.659 556.216 302.555 556.809 303.978 558.231L331.511 584.664C333.916 586.967 337.032 587.907 340.063 587.924C343.085 587.941 346.243 586.992 348.639 584.605L376.63 556.623C379.035 554.218 379.983 551.077 379.992 548.02C379.992 544.972 379.06 541.755 376.563 539.384L349.046 512.943C347.547 511.453 347.64 509.252 349.156 507.736L374.785 481.134C377.985 477.798 380.44 473.988 379.924 469.45C379.67 467.189 378.451 464.962 376.681 463.405C374.903 461.847 372.659 460.865 370.026 460.103L234.763 420.783C230.157 419.454 226.313 418.777 222.926 418.667ZM222.672 427.133C224.874 427.184 228.277 427.709 232.578 428.962L367.842 468.281C373.311 469.873 370.907 473.04 368.705 475.241L343.077 501.86C340.757 504.265 339.8 507.363 339.775 510.411C339.758 513.443 340.706 516.677 343.187 519.047L370.704 545.463C372.634 547.385 371.508 549.765 370.644 550.628L342.662 578.602C341.477 579.991 338.717 579.872 337.387 578.551L309.871 552.135C307.458 549.824 304.325 548.901 301.319 548.918C298.331 548.918 295.257 549.832 292.853 552.067L266.225 576.705C262.161 580.058 260.197 579.457 259.198 575.918L220.954 440.561C219.709 436.159 219.176 432.755 219.133 430.571C219.133 427.125 220.81 427.125 222.672 427.125V427.133ZM164.083 554.133C160.273 554.133 158.495 549.477 161.086 546.911L178.019 529.978C181.888 526.126 187.883 532.095 184.031 535.964L167.072 552.897C166.284 553.718 165.235 554.133 164.083 554.133ZM341.9 367.867C345.71 367.867 347.488 372.523 344.914 375.089L327.981 392.022C324.112 395.874 318.117 389.905 321.969 386.036L338.928 369.103C339.716 368.282 340.74 367.867 341.892 367.867H341.9ZM164.075 367.867C160.265 367.867 158.504 372.523 161.086 375.089L178.019 392.022C181.888 395.874 187.883 389.905 184.031 386.036L167.072 369.103C166.284 368.29 165.235 367.867 164.083 367.867H164.075ZM126 456.767C126 454.421 127.888 452.533 130.233 452.533H155.633C157.979 452.533 159.867 454.421 159.867 456.767C159.867 459.112 157.979 461 155.633 461H130.233C127.888 461 126 459.112 126 456.767ZM248.767 334C251.112 334 253 335.888 253 338.233V363.633C253 365.979 251.112 367.867 248.767 367.867C246.421 367.867 244.533 365.979 244.533 363.633V338.233C244.533 335.888 246.421 334 248.767 334Z" fill="white"/>
</g>
<defs>
<filter id="filter0_d" x="23" y="31" width="81.6836" height="82.7943" filterUnits="userSpaceOnUse" color-interpolation-filters="sRGB">
<feFlood flood-opacity="0" result="BackgroundImageFix"/>
<feColorMatrix in="SourceAlpha" type="matrix" values="0 0 0 0 0 0 0 0 0 0 0 0 0 0 0 0 0 0 127 0"/>
<feOffset dy="4"/>
<feGaussianBlur stdDeviation="2"/>
<feColorMatrix type="matrix" values="0 0 0 0 0 0 0 0 0 0 0 0 0 0 0 0 0 0 0.25 0"/>
<feBlend mode="normal" in2="BackgroundImageFix" result="effect1_dropShadow"/>
<feBlend mode="normal" in="SourceGraphic" in2="effect1_dropShadow" result="shape"/>
</filter>
<filter id="filter1_d" x="395" y="30" width="82.5926" height="81.9205" filterUnits="userSpaceOnUse" color-interpolation-filters="sRGB">
<feFlood flood-opacity="0" result="BackgroundImageFix"/>
<feColorMatrix in="SourceAlpha" type="matrix" values="0 0 0 0 0 0 0 0 0 0 0 0 0 0 0 0 0 0 127 0"/>
<feOffset dy="4"/>
<feGaussianBlur stdDeviation="2"/>
<feColorMatrix type="matrix" values="0 0 0 0 0 0 0 0 0 0 0 0 0 0 0 0 0 0 0.25 0"/>
<feBlend mode="normal" in2="BackgroundImageFix" result="effect1_dropShadow"/>
<feBlend mode="normal" in="SourceGraphic" in2="effect1_dropShadow" result="shape"/>
</filter>
<filter id="filter2_i" x="101" y="238" width="298" height="100" filterUnits="userSpaceOnUse" color-interpolation-filters="sRGB">
<feFlood flood-opacity="0" result="BackgroundImageFix"/>
<feBlend mode="normal" in="SourceGraphic" in2="BackgroundImageFix" result="shape"/>
<feColorMatrix in="SourceAlpha" type="matrix" values="0 0 0 0 0 0 0 0 0 0 0 0 0 0 0 0 0 0 127 0" result="hardAlpha"/>
<feOffset dy="4"/>
<feGaussianBlur stdDeviation="2"/>
<feComposite in2="hardAlpha" operator="arithmetic" k2="-1" k3="1"/>
<feColorMatrix type="matrix" values="0 0 0 0 0 0 0 0 0 0 0 0 0 0 0 0 0 0 0.25 0"/>
<feBlend mode="normal" in2="shape" result="effect1_innerShadow"/>
</filter>
<filter id="filter3_d" x="129" y="403" width="243" height="108" filterUnits="userSpaceOnUse" color-interpolation-filters="sRGB">
<feFlood flood-opacity="0" result="BackgroundImageFix"/>
<feColorMatrix in="SourceAlpha" type="matrix" values="0 0 0 0 0 0 0 0 0 0 0 0 0 0 0 0 0 0 127 0"/>
<feOffset dy="4"/>
<feGaussianBlur stdDeviation="2"/>
<feColorMatrix type="matrix" values="0 0 0 0 0 0 0 0 0 0 0 0 0 0 0 0 0 0 0.25 0"/>
<feBlend mode="normal" in2="BackgroundImageFix" result="effect1_dropShadow"/>
<feBlend mode="normal" in="SourceGraphic" in2="effect1_dropShadow" result="shape"/>
</filter>
<clipPath id="clip0">
<rect width="254" height="254" fill="white" transform="translate(126 334)"/>
</clipPath>
</defs>
</svg>
