<svg width="249" height="126" viewBox="0 0 249 126" fill="none" xmlns="http://www.w3.org/2000/svg">
<path fill-rule="evenodd" clip-rule="evenodd" d="M224.118 60.7896C228.007 55.0266 230.208 48.4636 230.208 41.5C230.208 18.5802 206.369 0 176.962 0C151.777 0 130.676 13.6287 125.137 31.9401C121.362 31.5326 117.487 31.3208 113.538 31.3208C85.2452 31.3208 60.804 42.1929 49.3002 57.9464C49.0497 57.9444 48.7986 57.9434 48.5472 57.9434C21.7353 57.9434 0 69.1616 0 83C0 96.8384 21.7353 108.057 48.5472 108.057C51.7222 108.057 54.826 107.899 57.831 107.599C70.8874 118.377 90.9895 125.283 113.538 125.283C126.388 125.283 138.443 123.04 148.853 119.116C159.108 123.009 171.477 125.283 184.792 125.283C220.253 125.283 249 109.157 249 89.2642C249 77.6832 239.257 67.3788 224.118 60.7896Z" fill="white"/>
</svg>
