<svg width="1440" height="1024" viewBox="0 0 1440 1024" fill="none" xmlns="http://www.w3.org/2000/svg">
<rect width="1440" height="1024" fill="#515151"/>
<rect x="19.5" y="15.5" width="23" height="23" fill="white" stroke="black"/>
<rect x="43.5" y="15.5" width="23" height="23" fill="white" stroke="black"/>
<rect x="67.5" y="15.5" width="23" height="23" fill="white" stroke="black"/>
<rect x="91.5" y="15.5" width="23" height="23" fill="white" stroke="black"/>
<rect x="115.5" y="15.5" width="23" height="23" fill="white" stroke="black"/>
<rect x="139.5" y="15.5" width="23" height="23" fill="white" stroke="black"/>
<rect x="163.5" y="15.5" width="23" height="23" fill="white" stroke="black"/>
<rect x="187.5" y="15.5" width="23" height="23" fill="white" stroke="black"/>
<rect x="211.5" y="15.5" width="23" height="23" fill="white" stroke="black"/>
<rect x="235.5" y="15.5" width="23" height="23" fill="white" stroke="black"/>
<rect x="259.5" y="15.5" width="23" height="23" fill="white" stroke="black"/>
<rect x="283.5" y="15.5" width="23" height="23" fill="white" stroke="black"/>
<rect x="307.5" y="15.5" width="23" height="23" fill="white" stroke="black"/>
<rect x="331.5" y="15.5" width="23" height="23" fill="white" stroke="black"/>
<rect x="355.5" y="15.5" width="23" height="23" fill="white" stroke="black"/>
<rect x="379.5" y="15.5" width="23" height="23" fill="white" stroke="black"/>
<rect x="403.5" y="15.5" width="23" height="23" fill="white" stroke="black"/>
<rect x="427.5" y="15.5" width="23" height="23" fill="white" stroke="black"/>
<rect x="451.5" y="15.5" width="23" height="23" fill="white" stroke="black"/>
<rect x="475.5" y="15.5" width="23" height="23" fill="white" stroke="black"/>
<rect x="499.5" y="15.5" width="23" height="23" fill="white" stroke="black"/>
<rect x="523.5" y="15.5" width="23" height="23" fill="white" stroke="black"/>
<rect x="547.5" y="15.5" width="23" height="23" fill="white" stroke="black"/>
<rect x="571.5" y="15.5" width="23" height="23" fill="white" stroke="black"/>
<rect x="595.5" y="15.5" width="23" height="23" fill="white" stroke="black"/>
<rect x="619.5" y="15.5" width="23" height="23" fill="white" stroke="black"/>
<rect x="643.5" y="15.5" width="23" height="23" fill="white" stroke="black"/>
<rect x="667.5" y="15.5" width="23" height="23" fill="white" stroke="black"/>
<rect x="691.5" y="15.5" width="23" height="23" fill="white" stroke="black"/>
<rect x="715.5" y="15.5" width="23" height="23" fill="white" stroke="black"/>
<rect x="739.5" y="15.5" width="23" height="23" fill="white" stroke="black"/>
<rect x="763.5" y="15.5" width="23" height="23" fill="white" stroke="black"/>
<rect x="787.5" y="15.5" width="23" height="23" fill="white" stroke="black"/>
<rect x="811.5" y="15.5" width="23" height="23" fill="white" stroke="black"/>
<rect x="835.5" y="15.5" width="23" height="23" fill="white" stroke="black"/>
<rect x="859.5" y="15.5" width="23" height="23" fill="white" stroke="black"/>
<rect x="883.5" y="15.5" width="23" height="23" fill="white" stroke="black"/>
<rect x="907.5" y="15.5" width="23" height="23" fill="white" stroke="black"/>
<rect x="931.5" y="15.5" width="23" height="23" fill="white" stroke="black"/>
<rect x="955.5" y="15.5" width="23" height="23" fill="white" stroke="black"/>
<rect x="979.5" y="15.5" width="23" height="23" fill="white" stroke="black"/>
<rect x="1003.5" y="15.5" width="23" height="23" fill="white" stroke="black"/>
<rect x="1027.5" y="15.5" width="23" height="23" fill="white" stroke="black"/>
<rect x="1051.5" y="15.5" width="23" height="23" fill="white" stroke="black"/>
<rect x="1075.5" y="15.5" width="23" height="23" fill="white" stroke="black"/>
<rect x="1099.5" y="15.5" width="23" height="23" fill="white" stroke="black"/>
<rect x="1123.5" y="15.5" width="23" height="23" fill="white" stroke="black"/>
<rect x="1147.5" y="15.5" width="23" height="23" fill="white" stroke="black"/>
<rect x="1171.5" y="15.5" width="23" height="23" fill="white" stroke="black"/>
<rect x="1195.5" y="15.5" width="23" height="23" fill="white" stroke="black"/>
<rect x="1219.5" y="15.5" width="23" height="23" fill="white" stroke="black"/>
<rect x="1243.5" y="15.5" width="23" height="23" fill="white" stroke="black"/>
<rect x="1267.5" y="15.5" width="23" height="23" fill="white" stroke="black"/>
<rect x="1291.5" y="15.5" width="23" height="23" fill="white" stroke="black"/>
<rect x="1315.5" y="15.5" width="23" height="23" fill="white" stroke="black"/>
<rect x="1339.5" y="15.5" width="23" height="23" fill="white" stroke="black"/>
<rect x="1363.5" y="15.5" width="23" height="23" fill="white" stroke="black"/>
<rect x="1387.5" y="15.5" width="23" height="23" fill="white" stroke="black"/>
<rect x="1387.5" y="39.5" width="23" height="23" fill="white" stroke="black"/>
<rect x="1387.5" y="63.5" width="23" height="23" fill="white" stroke="black"/>
<rect x="1387.5" y="87.5" width="23" height="23" fill="white" stroke="black"/>
<rect x="1387.5" y="111.5" width="23" height="23" fill="white" stroke="black"/>
<rect x="1387.5" y="135.5" width="23" height="23" fill="white" stroke="black"/>
<rect x="1387.5" y="159.5" width="23" height="23" fill="white" stroke="black"/>
<rect x="1387.5" y="183.5" width="23" height="23" fill="white" stroke="black"/>
<rect x="1387.5" y="207.5" width="23" height="23" fill="white" stroke="black"/>
<rect x="1387.5" y="231.5" width="23" height="23" fill="white" stroke="black"/>
<rect x="1387.5" y="255.5" width="23" height="23" fill="white" stroke="black"/>
<rect x="1387.5" y="279.5" width="23" height="23" fill="white" stroke="black"/>
<rect x="1387.5" y="303.5" width="23" height="23" fill="white" stroke="black"/>
<rect x="1387.5" y="327.5" width="23" height="23" fill="white" stroke="black"/>
<rect x="1387.5" y="351.5" width="23" height="23" fill="white" stroke="black"/>
<rect x="1387.5" y="375.5" width="23" height="23" fill="white" stroke="black"/>
<rect x="1387.5" y="399.5" width="23" height="23" fill="white" stroke="black"/>
<rect x="1387.5" y="423.5" width="23" height="23" fill="white" stroke="black"/>
<rect x="1387.5" y="447.5" width="23" height="23" fill="white" stroke="black"/>
<rect x="1387.5" y="471.5" width="23" height="23" fill="white" stroke="black"/>
<rect x="1387.5" y="495.5" width="23" height="23" fill="white" stroke="black"/>
<rect x="1387.5" y="519.5" width="23" height="23" fill="white" stroke="black"/>
<rect x="1387.5" y="543.5" width="23" height="23" fill="white" stroke="black"/>
<rect x="1387.5" y="567.5" width="23" height="23" fill="white" stroke="black"/>
<rect x="1387.5" y="591.5" width="23" height="23" fill="white" stroke="black"/>
<rect x="1387.5" y="615.5" width="23" height="23" fill="white" stroke="black"/>
<rect x="1387.5" y="639.5" width="23" height="23" fill="white" stroke="black"/>
<rect x="1387.5" y="663.5" width="23" height="23" fill="white" stroke="black"/>
<rect x="1387.5" y="687.5" width="23" height="23" fill="white" stroke="black"/>
<rect x="1387.5" y="711.5" width="23" height="23" fill="white" stroke="black"/>
<rect x="1387.5" y="735.5" width="23" height="23" fill="white" stroke="black"/>
<rect x="1387.5" y="759.5" width="23" height="23" fill="white" stroke="black"/>
<rect x="1387.5" y="783.5" width="23" height="23" fill="white" stroke="black"/>
<rect x="1387.5" y="807.5" width="23" height="23" fill="white" stroke="black"/>
<rect x="1387.5" y="831.5" width="23" height="23" fill="white" stroke="black"/>
<rect x="1387.5" y="855.5" width="23" height="23" fill="white" stroke="black"/>
<rect x="1387.5" y="879.5" width="23" height="23" fill="white" stroke="black"/>
<rect x="1387.5" y="903.5" width="23" height="23" fill="white" stroke="black"/>
<rect x="1387.5" y="927.5" width="23" height="23" fill="white" stroke="black"/>
<rect x="1387.5" y="951.5" width="23" height="23" fill="white" stroke="black"/>
<rect x="1387.5" y="975.5" width="23" height="23" fill="white" stroke="black"/>
<rect x="1363.5" y="975.5" width="23" height="23" fill="white" stroke="black"/>
<rect x="1339.5" y="975.5" width="23" height="23" fill="white" stroke="black"/>
<rect x="1315.5" y="975.5" width="23" height="23" fill="white" stroke="black"/>
<rect x="1291.5" y="975.5" width="23" height="23" fill="white" stroke="black"/>
<rect x="1267.5" y="975.5" width="23" height="23" fill="white" stroke="black"/>
<rect x="1243.5" y="975.5" width="23" height="23" fill="white" stroke="black"/>
<rect x="1219.5" y="975.5" width="23" height="23" fill="white" stroke="black"/>
<rect x="1195.5" y="975.5" width="23" height="23" fill="white" stroke="black"/>
<rect x="1171.5" y="975.5" width="23" height="23" fill="white" stroke="black"/>
<rect x="1147.5" y="975.5" width="23" height="23" fill="white" stroke="black"/>
<rect x="1123.5" y="975.5" width="23" height="23" fill="white" stroke="black"/>
<rect x="1099.5" y="975.5" width="23" height="23" fill="white" stroke="black"/>
<rect x="1075.5" y="975.5" width="23" height="23" fill="white" stroke="black"/>
<rect x="1051.5" y="975.5" width="23" height="23" fill="white" stroke="black"/>
<rect x="1027.5" y="975.5" width="23" height="23" fill="white" stroke="black"/>
<rect x="1003.5" y="975.5" width="23" height="23" fill="white" stroke="black"/>
<rect x="979.5" y="975.5" width="23" height="23" fill="white" stroke="black"/>
<rect x="955.5" y="975.5" width="23" height="23" fill="white" stroke="black"/>
<rect x="931.5" y="975.5" width="23" height="23" fill="white" stroke="black"/>
<rect x="907.5" y="975.5" width="23" height="23" fill="white" stroke="black"/>
<rect x="883.5" y="975.5" width="23" height="23" fill="white" stroke="black"/>
<rect x="859.5" y="975.5" width="23" height="23" fill="white" stroke="black"/>
<rect x="835.5" y="975.5" width="23" height="23" fill="white" stroke="black"/>
<rect x="811.5" y="975.5" width="23" height="23" fill="white" stroke="black"/>
<rect x="787.5" y="975.5" width="23" height="23" fill="white" stroke="black"/>
<rect x="763.5" y="975.5" width="23" height="23" fill="white" stroke="black"/>
<rect x="739.5" y="975.5" width="23" height="23" fill="white" stroke="black"/>
<rect x="715.5" y="975.5" width="23" height="23" fill="white" stroke="black"/>
<rect x="691.5" y="975.5" width="23" height="23" fill="white" stroke="black"/>
<rect x="667.5" y="975.5" width="23" height="23" fill="white" stroke="black"/>
<rect x="643.5" y="975.5" width="23" height="23" fill="white" stroke="black"/>
<rect x="619.5" y="975.5" width="23" height="23" fill="white" stroke="black"/>
<rect x="595.5" y="975.5" width="23" height="23" fill="white" stroke="black"/>
<rect x="571.5" y="975.5" width="23" height="23" fill="white" stroke="black"/>
<rect x="547.5" y="975.5" width="23" height="23" fill="white" stroke="black"/>
<rect x="523.5" y="975.5" width="23" height="23" fill="white" stroke="black"/>
<rect x="499.5" y="975.5" width="23" height="23" fill="white" stroke="black"/>
<rect x="475.5" y="975.5" width="23" height="23" fill="white" stroke="black"/>
<rect x="451.5" y="975.5" width="23" height="23" fill="white" stroke="black"/>
<rect x="427.5" y="975.5" width="23" height="23" fill="white" stroke="black"/>
<rect x="403.5" y="975.5" width="23" height="23" fill="white" stroke="black"/>
<rect x="379.5" y="975.5" width="23" height="23" fill="white" stroke="black"/>
<rect x="355.5" y="975.5" width="23" height="23" fill="white" stroke="black"/>
<rect x="331.5" y="975.5" width="23" height="23" fill="white" stroke="black"/>
<rect x="307.5" y="975.5" width="23" height="23" fill="white" stroke="black"/>
<rect x="283.5" y="975.5" width="23" height="23" fill="white" stroke="black"/>
<rect x="259.5" y="975.5" width="23" height="23" fill="white" stroke="black"/>
<rect x="235.5" y="975.5" width="23" height="23" fill="white" stroke="black"/>
<rect x="211.5" y="975.5" width="23" height="23" fill="white" stroke="black"/>
<rect x="187.5" y="975.5" width="23" height="23" fill="white" stroke="black"/>
<rect x="163.5" y="975.5" width="23" height="23" fill="white" stroke="black"/>
<rect x="139.5" y="975.5" width="23" height="23" fill="white" stroke="black"/>
<rect x="115.5" y="975.5" width="23" height="23" fill="white" stroke="black"/>
<rect x="91.5" y="975.5" width="23" height="23" fill="white" stroke="black"/>
<rect x="67.5" y="975.5" width="23" height="23" fill="white" stroke="black"/>
<rect x="43.5" y="975.5" width="23" height="23" fill="white" stroke="black"/>
<rect x="19.5" y="975.5" width="23" height="23" fill="white" stroke="black"/>
<rect x="19.5" y="951.5" width="23" height="23" fill="white" stroke="black"/>
<rect x="19.5" y="927.5" width="23" height="23" fill="white" stroke="black"/>
<rect x="19.5" y="903.5" width="23" height="23" fill="white" stroke="black"/>
<rect x="19.5" y="879.5" width="23" height="23" fill="white" stroke="black"/>
<rect x="19.5" y="855.5" width="23" height="23" fill="white" stroke="black"/>
<rect x="19.5" y="831.5" width="23" height="23" fill="white" stroke="black"/>
<rect x="19.5" y="807.5" width="23" height="23" fill="white" stroke="black"/>
<rect x="19.5" y="783.5" width="23" height="23" fill="white" stroke="black"/>
<rect x="19.5" y="759.5" width="23" height="23" fill="white" stroke="black"/>
<rect x="19.5" y="735.5" width="23" height="23" fill="white" stroke="black"/>
<rect x="19.5" y="711.5" width="23" height="23" fill="white" stroke="black"/>
<rect x="19.5" y="687.5" width="23" height="23" fill="white" stroke="black"/>
<rect x="19.5" y="663.5" width="23" height="23" fill="white" stroke="black"/>
<rect x="19.5" y="639.5" width="23" height="23" fill="white" stroke="black"/>
<rect x="19.5" y="615.5" width="23" height="23" fill="white" stroke="black"/>
<rect x="19.5" y="591.5" width="23" height="23" fill="white" stroke="black"/>
<rect x="19.5" y="567.5" width="23" height="23" fill="white" stroke="black"/>
<rect x="19.5" y="543.5" width="23" height="23" fill="white" stroke="black"/>
<rect x="19.5" y="519.5" width="23" height="23" fill="white" stroke="black"/>
<rect x="19.5" y="495.5" width="23" height="23" fill="white" stroke="black"/>
<rect x="19.5" y="471.5" width="23" height="23" fill="white" stroke="black"/>
<rect x="19.5" y="447.5" width="23" height="23" fill="white" stroke="black"/>
<rect x="19.5" y="423.5" width="23" height="23" fill="white" stroke="black"/>
<rect x="19.5" y="399.5" width="23" height="23" fill="white" stroke="black"/>
<rect x="19.5" y="375.5" width="23" height="23" fill="white" stroke="black"/>
<rect x="19.5" y="351.5" width="23" height="23" fill="white" stroke="black"/>
<rect x="19.5" y="327.5" width="23" height="23" fill="white" stroke="black"/>
<rect x="19.5" y="303.5" width="23" height="23" fill="white" stroke="black"/>
<rect x="19.5" y="279.5" width="23" height="23" fill="white" stroke="black"/>
<rect x="19.5" y="255.5" width="23" height="23" fill="white" stroke="black"/>
<rect x="19.5" y="231.5" width="23" height="23" fill="white" stroke="black"/>
<rect x="19.5" y="207.5" width="23" height="23" fill="white" stroke="black"/>
<rect x="19.5" y="183.5" width="23" height="23" fill="white" stroke="black"/>
<rect x="7.5" y="125.5" width="47" height="57" fill="white" stroke="black"/>
<path d="M31.4524 99.7129L34.5 93.2368V124.5H27.5V93.2368L30.5476 99.7129L31 100.674L31.4524 99.7129Z" fill="#CD9F9F" stroke="black"/>
<circle cx="9.5" cy="146.5" r="7.5" fill="black"/>
<circle cx="53.5" cy="146.5" r="7.5" fill="black"/>
<circle cx="55.5" cy="142.5" r="2.5" fill="white"/>
<circle cx="31" cy="65" r="12" fill="white"/>
<circle cx="7.5" cy="142.5" r="2.5" fill="white"/>
</svg>
