<svg width="1711" height="334" viewBox="0 0 1711 334" fill="none" xmlns="http://www.w3.org/2000/svg">
<path d="M0 85.3084L142.548 73.4289C285.096 61.9936 570.191 37.5685 855.287 32.0173C1140.38 26.4662 1425.48 37.5685 1568.03 43.8968L1710.57 49.781V334H1568.03C1425.48 334 1140.38 334 855.287 334C570.191 334 285.096 334 142.548 334H0V85.3084Z" fill="#26E8A1"/>
<ellipse rx="2.95871" ry="22.4407" transform="matrix(0.96778 -0.238393 0.29485 0.959751 63.1646 65.1652)" fill="#02A569"/>
<ellipse rx="7.10763" ry="6.40416" transform="matrix(0.988674 -0.15008 0.186015 0.982547 56.6427 40.2628)" fill="#E2BC5A"/>
<ellipse rx="4.14612" ry="3.73576" transform="matrix(0.988674 -0.15008 0.186015 0.982547 63.2042 46.2798)" fill="#F820BB"/>
<ellipse rx="4.14612" ry="3.73576" transform="matrix(0.988674 -0.15008 0.186015 0.982547 67.0944 41.3735)" fill="#E927B2"/>
<ellipse rx="4.14612" ry="3.73576" transform="matrix(0.988674 -0.15008 0.186015 0.982547 64.7321 35.2592)" fill="#F820BB"/>
<ellipse rx="4.14612" ry="3.73576" transform="matrix(0.988674 -0.15008 0.186015 0.982547 59.253 31.7749)" fill="#E927B2"/>
<ellipse rx="4.14612" ry="3.73576" transform="matrix(0.988674 -0.15008 0.186015 0.982547 52.2262 32.8413)" fill="#F820BB"/>
<ellipse rx="4.14612" ry="3.73576" transform="matrix(0.988674 -0.15008 0.186015 0.982547 48.3351 37.7475)" fill="#E927B2"/>
<ellipse rx="4.14612" ry="3.73576" transform="matrix(0.988674 -0.15008 0.186015 0.982547 48.1573 43.1694)" fill="#F820BB"/>
<ellipse rx="4.14612" ry="3.73576" transform="matrix(0.988674 -0.15008 0.186015 0.982547 52.4645 46.8305)" fill="#E927B2"/>
<ellipse rx="2.9573" ry="22.4537" transform="matrix(1.00087 0.0732325 -0.09048 0.991522 105.867 60.2954)" fill="#02A569"/>
<ellipse rx="7.1042" ry="6.40797" transform="matrix(0.986684 0.162651 -0.201379 0.979513 109.277 34.9009)" fill="#E2BC5A"/>
<ellipse rx="4.14412" ry="3.73798" transform="matrix(0.986684 0.162651 -0.201379 0.979513 113.136 42.5669)" fill="#F820BB"/>
<ellipse rx="4.14412" ry="3.73798" transform="matrix(0.986684 0.162651 -0.201379 0.979513 118.67 39.1528)" fill="#E927B2"/>
<ellipse rx="4.14412" ry="3.73798" transform="matrix(0.986684 0.162651 -0.201379 0.979513 118.792 32.6831)" fill="#F820BB"/>
<ellipse rx="4.14412" ry="3.73798" transform="matrix(0.986684 0.162651 -0.201379 0.979513 114.979 27.729)" fill="#E927B2"/>
<ellipse rx="4.14412" ry="3.73798" transform="matrix(0.986684 0.162651 -0.201379 0.979513 107.969 26.5728)" fill="#F820BB"/>
<ellipse rx="4.14412" ry="3.73798" transform="matrix(0.986684 0.162651 -0.201379 0.979513 102.436 29.9868)" fill="#E927B2"/>
<ellipse rx="4.14412" ry="3.73798" transform="matrix(0.986684 0.162651 -0.201379 0.979513 100.193 35.0249)" fill="#F820BB"/>
<ellipse rx="4.14412" ry="3.73798" transform="matrix(0.986684 0.162651 -0.201379 0.979513 102.837 39.7866)" fill="#E927B2"/>
<ellipse rx="2.95863" ry="22.4415" transform="matrix(0.967581 -0.239131 0.295745 0.959496 440.949 38.576)" fill="#02A569"/>
<ellipse rx="7.10743" ry="6.40438" transform="matrix(0.98856 -0.150831 0.186935 0.982372 434.404 13.6775)" fill="#E2BC5A"/>
<ellipse rx="4.146" ry="3.73589" transform="matrix(0.98856 -0.150831 0.186935 0.982372 440.971 19.6892)" fill="#F820BB"/>
<ellipse rx="4.146" ry="3.73589" transform="matrix(0.98856 -0.150831 0.186935 0.982372 444.857 14.78)" fill="#E927B2"/>
<ellipse rx="4.146" ry="3.73589" transform="matrix(0.98856 -0.150831 0.186935 0.982372 442.489 8.66773)" fill="#F820BB"/>
<ellipse rx="4.146" ry="3.73589" transform="matrix(0.98856 -0.150831 0.186935 0.982372 437.006 5.18726)" fill="#E927B2"/>
<ellipse rx="4.146" ry="3.73589" transform="matrix(0.98856 -0.150831 0.186935 0.982372 429.981 6.25953)" fill="#F820BB"/>
<ellipse rx="4.146" ry="3.73589" transform="matrix(0.98856 -0.150831 0.186935 0.982372 426.094 11.1687)" fill="#E927B2"/>
<ellipse rx="4.146" ry="3.73589" transform="matrix(0.98856 -0.150831 0.186935 0.982372 425.921 16.5906)" fill="#F820BB"/>
<ellipse rx="4.146" ry="3.73589" transform="matrix(0.98856 -0.150831 0.186935 0.982372 430.232 20.2498)" fill="#E927B2"/>
<ellipse rx="2.96678" ry="22.3654" transform="matrix(0.995946 -0.0899528 0.111935 0.993716 84.9348 62.7587)" fill="#02A569"/>
<ellipse cx="83.1528" cy="37.2298" rx="7.12739" ry="6.38216" fill="#E2BC5A"/>
<ellipse cx="88.4985" cy="44.1438" rx="4.15764" ry="3.72293" fill="#F82020"/>
<ellipse cx="93.2499" cy="39.8889" rx="4.15764" ry="3.72293" fill="#C70000"/>
<ellipse cx="92.0619" cy="33.5071" rx="4.15764" ry="3.72293" fill="#F82020"/>
<ellipse cx="87.3105" cy="29.2522" rx="4.15764" ry="3.72293" fill="#C70000"/>
<ellipse cx="80.183" cy="29.2522" rx="4.15764" ry="3.72293" fill="#F82020"/>
<ellipse cx="75.4316" cy="33.5071" rx="4.15764" ry="3.72293" fill="#C70000"/>
<ellipse cx="74.2436" cy="38.8255" rx="4.15764" ry="3.72293" fill="#F82020"/>
<ellipse cx="77.8071" cy="43.0794" rx="4.15764" ry="3.72293" fill="#C70000"/>
</svg>
