<svg width="250" height="68" viewBox="0 0 250 68" fill="none" xmlns="http://www.w3.org/2000/svg">
<path d="M40.064 58.232V43.112C40.064 38.12 37.184 35.624 31.424 35.624H21.632C15.872 35.624 12.992 38.12 12.992 43.112L12.848 58.232C12.848 63.032 11.168 65.432 7.808 65.432C4.448 65.432 2.768 63.224 2.768 58.808V9.56C2.768 5.048 4.448 2.792 7.808 2.792C11.264 2.792 12.992 5.192 12.992 9.992V22.52C12.992 27.608 15.872 30.152 21.632 30.152H31.712C37.28 30.152 40.064 27.608 40.064 22.52V9.992C40.064 5.192 41.744 2.792 45.104 2.792C48.56 2.792 50.288 5.048 50.288 9.56V58.808C50.288 63.224 48.56 65.432 45.104 65.432C41.744 65.432 40.064 63.032 40.064 58.232ZM84.0898 59.672H107.706C110.778 59.672 112.314 60.584 112.314 62.408C112.314 64.136 110.826 65 107.85 65H76.6017C68.8258 65 64.9378 61.832 64.9378 55.496V13.016C64.9378 6.488 68.8258 3.224 76.6017 3.224H107.85C110.826 3.224 112.314 4.136 112.314 5.96C112.314 7.88 110.778 8.84 107.706 8.84H84.0898C78.0418 8.84 75.0178 11.336 75.0178 16.328V22.52C75.0178 27.608 77.9458 30.152 83.8018 30.152H107.562C110.73 30.152 112.314 30.968 112.314 32.6C112.314 34.616 110.778 35.624 107.706 35.624H83.8018C77.9458 35.624 75.0178 38.168 75.0178 43.256V52.472C75.0178 57.272 78.0418 59.672 84.0898 59.672ZM117.119 5.96C117.119 4.136 118.799 3.224 122.159 3.224H158.879C162.335 3.224 164.063 4.136 164.063 5.96C164.063 7.88 162.287 8.84 158.735 8.84H153.695C148.223 8.84 145.487 11.336 145.487 16.328V58.376C145.487 63.368 143.807 65.864 140.447 65.864C137.183 65.864 135.551 63.368 135.551 58.376V16.328C135.551 11.336 132.815 8.84 127.343 8.84H122.591C118.943 8.84 117.119 7.88 117.119 5.96ZM179.689 65.288C176.425 65.288 174.793 62.936 174.793 58.232L174.649 9.128C174.649 4.616 176.281 2.36 179.545 2.36C182.905 2.36 184.585 4.664 184.585 9.272L184.729 58.232C184.729 62.936 183.049 65.288 179.689 65.288ZM237.508 51.896C237.508 50.936 237.892 50.12 238.66 49.448C239.428 48.776 240.724 48.44 242.548 48.44C245.908 48.44 247.588 49.976 247.588 53.048V55.496C247.588 61.832 243.94 65 236.644 65H210.724C203.716 65 200.212 61.592 200.212 54.776V13.736C200.212 6.728 203.764 3.224 210.868 3.224H236.644C243.94 3.224 247.588 6.392 247.588 12.728V14.888C247.588 18.344 245.908 20.072 242.548 20.072C239.188 20.072 237.508 18.968 237.508 16.76C237.508 11.48 234.58 8.84 228.724 8.84H218.932C213.172 8.84 210.292 11.336 210.292 16.328V52.328C210.292 57.224 213.124 59.672 218.788 59.672H229.012C234.676 59.672 237.508 57.08 237.508 51.896Z" fill="#26E8A1"/>
<path d="M12.992 43.112L14.9919 43.131L14.992 43.1215V43.112H12.992ZM12.848 58.232L10.8481 58.213L10.848 58.2225V58.232H12.848ZM42.064 58.232V43.112H38.064V58.232H42.064ZM42.064 43.112C42.064 40.2272 41.2186 37.722 39.2139 35.9846C37.2639 34.2946 34.5477 33.624 31.424 33.624V37.624C34.0603 37.624 35.6641 38.2013 36.5941 39.0074C37.4694 39.766 38.064 41.0048 38.064 43.112H42.064ZM31.424 33.624H21.632V37.624H31.424V33.624ZM21.632 33.624C18.5083 33.624 15.7921 34.2946 13.8421 35.9846C11.8374 37.722 10.992 40.2272 10.992 43.112H14.992C14.992 41.0048 15.5866 39.766 16.4619 39.0074C17.3919 38.2013 18.9957 37.624 21.632 37.624V33.624ZM10.9921 43.093L10.8481 58.213L14.8479 58.251L14.9919 43.131L10.9921 43.093ZM10.848 58.232C10.848 60.46 10.447 61.7744 9.94954 62.4851C9.54309 63.0657 8.94609 63.432 7.808 63.432V67.432C10.0299 67.432 11.9529 66.5983 13.2265 64.7789C14.409 63.0896 14.848 60.804 14.848 58.232H10.848ZM7.808 63.432C6.60528 63.432 6.00031 63.0652 5.61966 62.565C5.16044 61.9614 4.768 60.8191 4.768 58.808H0.768C0.768 61.2129 1.21556 63.3826 2.43634 64.987C3.73569 66.6948 5.65072 67.432 7.808 67.432V63.432ZM4.768 58.808V9.56H0.768V58.808H4.768ZM4.768 9.56C4.768 7.4941 5.16288 6.3086 5.63209 5.67853C6.01892 5.15906 6.62135 4.792 7.808 4.792V0.791998C5.63465 0.791998 3.71708 1.55293 2.42391 3.28947C1.21312 4.91539 0.768 7.1139 0.768 9.56H4.768ZM7.808 4.792C9.01663 4.792 9.65174 5.17562 10.0729 5.76061C10.5816 6.46712 10.992 7.77199 10.992 9.992H14.992C14.992 7.412 14.5384 5.11687 13.3191 3.42339C12.0123 1.60838 10.0554 0.791998 7.808 0.791998V4.792ZM10.992 9.992V22.52H14.992V9.992H10.992ZM10.992 22.52C10.992 25.4411 11.8301 27.9782 13.8279 29.7429C15.7784 31.4658 18.5005 32.152 21.632 32.152V28.152C19.0035 28.152 17.4056 27.5662 16.4761 26.7451C15.5939 25.9658 14.992 24.6869 14.992 22.52H10.992ZM21.632 32.152H31.712V28.152H21.632V32.152ZM31.712 32.152C34.7619 32.152 37.4224 31.4591 39.3251 29.7204C41.262 27.9505 42.064 25.421 42.064 22.52H38.064C38.064 24.707 37.474 25.9935 36.6269 26.7676C35.7456 27.5729 34.2301 28.152 31.712 28.152V32.152ZM42.064 22.52V9.992H38.064V22.52H42.064ZM42.064 9.992C42.064 7.76399 42.465 6.44959 42.9625 5.73892C43.3689 5.15828 43.9659 4.792 45.104 4.792V0.791998C42.8821 0.791998 40.9591 1.62572 39.6855 3.44507C38.503 5.13441 38.064 7.42 38.064 9.992H42.064ZM45.104 4.792C46.3596 4.792 47.0014 5.17427 47.4042 5.70015C47.8844 6.32697 48.288 7.50302 48.288 9.56H52.288C52.288 7.10497 51.8276 4.89703 50.5798 3.26784C49.2546 1.53773 47.3044 0.791998 45.104 0.791998V4.792ZM48.288 9.56V58.808H52.288V9.56H48.288ZM48.288 58.808C48.288 60.8099 47.887 61.9428 47.417 62.5434C47.0199 63.0507 46.3751 63.432 45.104 63.432V67.432C47.2889 67.432 49.2361 66.7093 50.567 65.0086C51.825 63.4012 52.288 61.2221 52.288 58.808H48.288ZM45.104 63.432C43.9659 63.432 43.3689 63.0657 42.9625 62.4851C42.465 61.7744 42.064 60.46 42.064 58.232H38.064C38.064 60.804 38.503 63.0896 39.6855 64.7789C40.9591 66.5983 42.8821 67.432 45.104 67.432V63.432ZM84.0898 61.672H107.706V57.672H84.0898V61.672ZM107.706 61.672C109.109 61.672 109.831 61.8919 110.141 62.0757C110.207 62.1148 110.242 62.1456 110.259 62.1623C110.275 62.1781 110.28 62.1869 110.282 62.1901C110.284 62.1934 110.29 62.2056 110.297 62.2346C110.305 62.265 110.314 62.3204 110.314 62.408H114.314C114.314 60.8085 113.573 59.4619 112.183 58.6363C110.956 57.9081 109.374 57.672 107.706 57.672V61.672ZM110.314 62.408C110.314 62.5459 110.287 62.5699 110.3 62.5463C110.314 62.5222 110.308 62.5556 110.193 62.6224C109.903 62.791 109.21 63 107.85 63V67C109.466 67 111.004 66.777 112.202 66.0816C113.566 65.2898 114.314 63.981 114.314 62.408H110.314ZM107.85 63H76.6017V67H107.85V63ZM76.6017 63C72.934 63 70.5543 62.2446 69.1171 61.0735C67.7582 59.9663 66.9378 58.2352 66.9378 55.496H62.9378C62.9378 59.0928 64.0613 62.1137 66.5904 64.1745C69.0412 66.1714 72.4935 67 76.6017 67V63ZM66.9378 55.496V13.016H62.9378V55.496H66.9378ZM66.9378 13.016C66.9378 10.161 67.7713 8.35253 69.1397 7.20378C70.5751 5.99876 72.945 5.224 76.6017 5.224V1.224C72.4825 1.224 69.0204 2.08123 66.5678 4.14021C64.0482 6.25546 62.9378 9.34295 62.9378 13.016H66.9378ZM76.6017 5.224H107.85V1.224H76.6017V5.224ZM107.85 5.224C109.198 5.224 109.874 5.44233 110.153 5.6132C110.212 5.6493 110.242 5.67719 110.257 5.69184C110.27 5.70559 110.275 5.71377 110.278 5.71854C110.279 5.72072 110.314 5.78042 110.314 5.96H114.314C114.314 4.39037 113.612 3.04191 112.243 2.20279C111.034 1.46167 109.477 1.224 107.85 1.224V5.224ZM110.314 5.96C110.314 6.16968 110.273 6.25564 110.261 6.27882C110.251 6.29686 110.222 6.34869 110.102 6.424C109.803 6.61077 109.098 6.84 107.706 6.84V10.84C109.385 10.84 110.985 10.5892 112.222 9.81599C113.616 8.94482 114.314 7.55965 114.314 5.96H110.314ZM107.706 6.84H84.0898V10.84H107.706V6.84ZM84.0898 6.84C80.8408 6.84 78.0322 7.50256 76.0126 9.16955C73.9195 10.8972 73.0178 13.4118 73.0178 16.328H77.0178C77.0178 14.2522 77.628 13.0228 78.5589 12.2544C79.5633 11.4254 81.2907 10.84 84.0898 10.84V6.84ZM73.0178 16.328V22.52H77.0178V16.328H73.0178ZM73.0178 22.52C73.0178 25.4512 73.8742 27.9919 75.902 29.7537C77.8761 31.4689 80.629 32.152 83.8018 32.152V28.152C81.1185 28.152 79.4795 27.5631 78.5255 26.7343C77.6253 25.9521 77.0178 24.6768 77.0178 22.52H73.0178ZM83.8018 32.152H107.562V28.152H83.8018V32.152ZM107.562 32.152C109.039 32.152 109.843 32.3531 110.21 32.5419C110.364 32.6214 110.367 32.6613 110.338 32.6155C110.302 32.5601 110.314 32.53 110.314 32.6H114.314C114.314 31.854 114.128 31.1099 113.696 30.4425C113.27 29.7847 112.679 29.3146 112.042 28.986C110.824 28.3589 109.253 28.152 107.562 28.152V32.152ZM110.314 32.6C110.314 32.8483 110.268 32.9682 110.243 33.0173C110.222 33.0587 110.182 33.1188 110.064 33.1959C109.775 33.3859 109.087 33.624 107.706 33.624V37.624C109.397 37.624 111.013 37.3581 112.259 36.5401C113.652 35.6257 114.314 34.2042 114.314 32.6H110.314ZM107.706 33.624H83.8018V37.624H107.706V33.624ZM83.8018 33.624C80.629 33.624 77.8761 34.3071 75.902 36.0223C73.8742 37.7841 73.0178 40.3248 73.0178 43.256H77.0178C77.0178 41.0992 77.6253 39.8239 78.5255 39.0417C79.4795 38.2129 81.1185 37.624 83.8018 37.624V33.624ZM73.0178 43.256V52.472H77.0178V43.256H73.0178ZM73.0178 52.472C73.0178 55.319 73.9376 57.7681 76.0424 59.4386C78.0591 61.0391 80.8548 61.672 84.0898 61.672V57.672C81.2767 57.672 79.5364 57.1049 78.5291 56.3054C77.6099 55.5759 77.0178 54.425 77.0178 52.472H73.0178ZM119.119 5.96C119.119 5.88596 119.127 5.84471 119.132 5.82773C119.134 5.81896 119.136 5.8143 119.136 5.81262C119.137 5.811 119.138 5.81023 119.138 5.80952C119.138 5.80879 119.14 5.80607 119.144 5.80116C119.148 5.79617 119.156 5.78759 119.169 5.77582C119.195 5.75224 119.245 5.71317 119.333 5.6657C119.735 5.44753 120.594 5.224 122.159 5.224V1.224C120.363 1.224 118.703 1.45646 117.424 2.15029C116.755 2.51351 116.155 3.02337 115.729 3.71647C115.301 4.41449 115.119 5.18605 115.119 5.96H119.119ZM122.159 5.224H158.879V1.224H122.159V5.224ZM158.879 5.224C160.496 5.224 161.4 5.44841 161.833 5.67677C161.928 5.72678 161.983 5.76851 162.013 5.79445C162.027 5.80735 162.036 5.81681 162.041 5.82235C162.046 5.8278 162.047 5.83063 162.048 5.83098C162.048 5.83129 162.048 5.83119 162.048 5.83143C162.048 5.83172 162.049 5.83462 162.051 5.8413C162.055 5.85392 162.063 5.89051 162.063 5.96H166.063C166.063 5.17545 165.872 4.39607 165.43 3.69501C164.992 3.00135 164.377 2.49668 163.7 2.13923C162.405 1.45559 160.717 1.224 158.879 1.224V5.224ZM162.063 5.96C162.063 6.12047 162.029 6.16672 162.027 6.17022C162.022 6.17901 161.975 6.25493 161.78 6.36058C161.329 6.60432 160.396 6.84 158.735 6.84V10.84C160.625 10.84 162.357 10.5957 163.682 9.87941C164.374 9.50507 164.993 8.98099 165.432 8.26977C165.874 7.55327 166.063 6.75953 166.063 5.96H162.063ZM158.735 6.84H153.695V10.84H158.735V6.84ZM153.695 6.84C150.693 6.84 148.069 7.52055 146.191 9.23447C144.277 10.9801 143.487 13.474 143.487 16.328H147.487C147.487 14.19 148.064 12.9399 148.887 12.1895C149.744 11.4074 151.224 10.84 153.695 10.84V6.84ZM143.487 16.328V58.376H147.487V16.328H143.487ZM143.487 58.376C143.487 60.7105 143.082 62.1102 142.567 62.8752C142.147 63.4996 141.552 63.864 140.447 63.864V67.864C142.701 67.864 144.626 66.9804 145.886 65.1088C147.051 63.3778 147.487 61.0335 147.487 58.376H143.487ZM140.447 63.864C139.414 63.864 138.856 63.52 138.449 62.8975C137.945 62.1273 137.551 60.7178 137.551 58.376H133.551C133.551 61.0262 133.972 63.3607 135.101 65.0865C136.326 66.96 138.215 67.864 140.447 67.864V63.864ZM137.551 58.376V16.328H133.551V58.376H137.551ZM137.551 16.328C137.551 13.474 136.76 10.9801 134.847 9.23447C132.968 7.52055 130.344 6.84 127.343 6.84V10.84C129.813 10.84 131.293 11.4074 132.151 12.1895C132.973 12.9399 133.551 14.19 133.551 16.328H137.551ZM127.343 6.84H122.591V10.84H127.343V6.84ZM122.591 6.84C120.877 6.84 119.899 6.60351 119.418 6.35016C119.207 6.23905 119.156 6.15821 119.15 6.14989C119.15 6.14923 119.119 6.11039 119.119 5.96H115.119C115.119 6.7696 115.315 7.57076 115.771 8.2901C116.222 9.00179 116.854 9.52094 117.555 9.88983C118.898 10.5965 120.656 10.84 122.591 10.84V6.84ZM174.793 58.232L176.793 58.232L176.793 58.2261L174.793 58.232ZM174.649 9.128L172.649 9.128L172.649 9.13386L174.649 9.128ZM184.585 9.272L182.585 9.272L182.585 9.27788L184.585 9.272ZM184.729 58.232L186.729 58.232L186.729 58.2261L184.729 58.232ZM179.689 63.288C178.606 63.288 178.045 62.9393 177.66 62.3838C177.183 61.6958 176.793 60.4144 176.793 58.232H172.793C172.793 60.7536 173.219 63.0002 174.374 64.6642C175.62 66.4607 177.508 67.288 179.689 67.288V63.288ZM176.793 58.2261L176.649 9.12213L172.649 9.13386L172.793 58.2379L176.793 58.2261ZM176.649 9.128C176.649 7.05337 177.035 5.8581 177.493 5.22424C177.865 4.71042 178.429 4.36 179.545 4.36V0.359995C177.397 0.359995 175.513 1.13757 174.252 2.87976C173.079 4.5019 172.649 6.69063 172.649 9.128H176.649ZM179.545 4.36C180.715 4.36 181.316 4.72708 181.709 5.26634C182.188 5.92312 182.585 7.15171 182.585 9.272H186.585C186.585 6.78428 186.142 4.55687 184.941 2.90965C183.654 1.14491 181.734 0.359995 179.545 0.359995V4.36ZM182.585 9.27788L182.729 58.2379L186.729 58.2261L186.585 9.26611L182.585 9.27788ZM182.729 58.232C182.729 60.4063 182.33 61.6779 181.841 62.3615C181.442 62.9212 180.843 63.288 179.689 63.288V67.288C181.895 67.288 183.816 66.4788 185.096 64.6865C186.288 63.0181 186.729 60.7617 186.729 58.232H182.729ZM239.508 51.896C239.508 51.5527 239.612 51.2725 239.977 50.9532L237.343 47.9428C236.172 48.9675 235.508 50.3193 235.508 51.896H239.508ZM239.977 50.9532C240.186 50.7703 240.866 50.44 242.548 50.44V46.44C240.583 46.44 238.67 46.7817 237.343 47.9428L239.977 50.9532ZM242.548 50.44C243.962 50.44 244.649 50.767 244.979 51.0681C245.274 51.3381 245.588 51.8687 245.588 53.048H249.588C249.588 51.1553 249.062 49.3819 247.678 48.1159C246.327 46.881 244.494 46.44 242.548 46.44V50.44ZM245.588 53.048V55.496H249.588V53.048H245.588ZM245.588 55.496C245.588 58.2765 244.801 60.0197 243.541 61.1139C242.227 62.255 240.048 63 236.644 63V67C240.537 67 243.83 66.161 246.164 64.1341C248.552 62.0603 249.588 59.0515 249.588 55.496H245.588ZM236.644 63H210.724V67H236.644V63ZM210.724 63C207.515 63 205.478 62.2192 204.235 61.0103C203.002 59.8114 202.212 57.8614 202.212 54.776H198.212C198.212 58.5066 199.174 61.6686 201.446 63.8777C203.707 66.0768 206.926 67 210.724 67V63ZM202.212 54.776V13.736H198.212V54.776H202.212ZM202.212 13.736C202.212 10.5472 203.018 8.52147 204.281 7.2758C205.549 6.02518 207.618 5.224 210.868 5.224V1.224C207.015 1.224 203.756 2.17482 201.472 4.4282C199.182 6.68653 198.212 9.91677 198.212 13.736H202.212ZM210.868 5.224H236.644V1.224H210.868V5.224ZM236.644 5.224C240.048 5.224 242.227 5.96898 243.541 7.11006C244.801 8.2043 245.588 9.94753 245.588 12.728H249.588C249.588 9.17247 248.552 6.1637 246.164 4.08993C243.83 2.06301 240.537 1.224 236.644 1.224V5.224ZM245.588 12.728V14.888H249.588V12.728H245.588ZM245.588 14.888C245.588 16.3216 245.239 17.0269 244.894 17.3818C244.559 17.7263 243.905 18.072 242.548 18.072V22.072C244.551 22.072 246.417 21.5537 247.762 20.1702C249.097 18.7971 249.588 16.9104 249.588 14.888H245.588ZM242.548 18.072C241.024 18.072 240.228 17.81 239.867 17.5726C239.652 17.4315 239.508 17.269 239.508 16.76H235.508C235.508 18.459 236.205 19.9525 237.67 20.9154C238.989 21.782 240.713 22.072 242.548 22.072V18.072ZM239.508 16.76C239.508 13.7552 238.666 11.1506 236.652 9.33462C234.677 7.55415 231.912 6.84 228.724 6.84V10.84C231.392 10.84 233.02 11.4458 233.973 12.3054C234.887 13.1294 235.508 14.4848 235.508 16.76H239.508ZM228.724 6.84H218.932V10.84H228.724V6.84ZM218.932 6.84C215.809 6.84 213.092 7.51065 211.142 9.20062C209.138 10.938 208.292 13.4432 208.292 16.328H212.292C212.292 14.2208 212.887 12.982 213.762 12.2234C214.692 11.4173 216.296 10.84 218.932 10.84V6.84ZM208.292 16.328V52.328H212.292V16.328H208.292ZM208.292 52.328C208.292 55.1664 209.127 57.6361 211.108 59.3491C213.034 61.0138 215.714 61.672 218.788 61.672V57.672C216.199 57.672 214.63 57.1062 213.724 56.3229C212.874 55.5879 212.292 54.3856 212.292 52.328H208.292ZM218.788 61.672H229.012V57.672H218.788V61.672ZM229.012 61.672C232.111 61.672 234.808 60.9668 236.735 59.2033C238.695 57.4092 239.508 54.8441 239.508 51.896H235.508C235.508 54.1319 234.906 55.4548 234.034 56.2527C233.129 57.0812 231.578 57.672 229.012 57.672V61.672Z" fill="black"/>
</svg>
