<svg width="103" height="103" viewBox="0 0 103 103" fill="none" xmlns="http://www.w3.org/2000/svg">
<circle cx="51.5" cy="51.5" r="51.5" fill="#007449"/>
<rect x="51.8139" y="44.9755" width="3.21909" height="3.21909" fill="white" stroke="black" stroke-width="0.2"/>
<rect x="55.2328" y="44.9755" width="3.21909" height="3.21909" fill="white" stroke="black" stroke-width="0.2"/>
<rect x="55.2328" y="41.5564" width="3.21909" height="3.21909" fill="white" stroke="black" stroke-width="0.2"/>
<rect x="55.2328" y="38.1374" width="3.21909" height="3.21909" fill="white" stroke="black" stroke-width="0.2"/>
<rect x="51.8139" y="38.1374" width="3.21909" height="3.21909" fill="white" stroke="black" stroke-width="0.2"/>
<rect x="48.3949" y="38.1374" width="3.21909" height="3.21909" fill="white" stroke="black" stroke-width="0.2"/>
<rect x="44.976" y="38.1374" width="3.21909" height="3.21909" fill="white" stroke="black" stroke-width="0.2"/>
<rect x="44.976" y="41.5564" width="3.21909" height="3.21909" fill="white" stroke="black" stroke-width="0.2"/>
<rect x="44.976" y="44.9755" width="3.21909" height="3.21909" fill="white" stroke="black" stroke-width="0.2"/>
<rect x="44.976" y="48.3946" width="3.21909" height="3.21909" fill="white" stroke="black" stroke-width="0.2"/>
<rect x="44.976" y="51.8136" width="3.21909" height="3.21909" fill="white" stroke="black" stroke-width="0.2"/>
<rect x="48.3949" y="51.8136" width="3.21909" height="3.21909" fill="white" stroke="black" stroke-width="0.2"/>
<rect x="51.8139" y="51.8136" width="3.21909" height="3.21909" fill="white" stroke="black" stroke-width="0.2"/>
<rect x="55.2328" y="51.8136" width="3.21909" height="3.21909" fill="white" stroke="black" stroke-width="0.2"/>
<rect x="58.6518" y="51.8136" width="3.21909" height="3.21909" fill="white" stroke="black" stroke-width="0.2"/>
<rect x="62.0707" y="51.8136" width="3.21909" height="3.21909" fill="white" stroke="black" stroke-width="0.2"/>
<rect x="62.0707" y="48.3946" width="3.21909" height="3.21909" fill="white" stroke="black" stroke-width="0.2"/>
<rect x="62.0707" y="44.9755" width="3.21909" height="3.21909" fill="white" stroke="black" stroke-width="0.2"/>
<rect x="62.0707" y="41.5564" width="3.21909" height="3.21909" fill="white" stroke="black" stroke-width="0.2"/>
<rect x="62.0707" y="38.1374" width="3.21909" height="3.21909" fill="white" stroke="black" stroke-width="0.2"/>
<rect x="62.0707" y="34.7183" width="3.21909" height="3.21909" fill="white" stroke="black" stroke-width="0.2"/>
<rect x="62.0707" y="31.2992" width="3.21909" height="3.21909" fill="white" stroke="black" stroke-width="0.2"/>
<rect x="58.6518" y="31.2992" width="3.21909" height="3.21909" fill="white" stroke="black" stroke-width="0.2"/>
<rect x="55.2328" y="31.2992" width="3.21909" height="3.21909" fill="white" stroke="black" stroke-width="0.2"/>
<rect x="51.8139" y="31.2992" width="3.21909" height="3.21909" fill="white" stroke="black" stroke-width="0.2"/>
<rect x="48.3949" y="31.2992" width="3.21909" height="3.21909" fill="white" stroke="black" stroke-width="0.2"/>
<rect x="44.976" y="31.2992" width="3.21909" height="3.21909" fill="white" stroke="black" stroke-width="0.2"/>
<rect x="41.5561" y="31.2992" width="3.21909" height="3.21909" fill="white" stroke="black" stroke-width="0.2"/>
<rect x="38.1371" y="31.2992" width="3.21909" height="3.21909" fill="white" stroke="black" stroke-width="0.2"/>
<rect x="38.1371" y="34.7183" width="3.21909" height="3.21909" fill="white" stroke="black" stroke-width="0.2"/>
<rect x="38.1371" y="38.1374" width="3.21909" height="3.21909" fill="white" stroke="black" stroke-width="0.2"/>
<rect x="38.1371" y="41.5564" width="3.21909" height="3.21909" fill="white" stroke="black" stroke-width="0.2"/>
<rect x="38.1371" y="44.9755" width="3.21909" height="3.21909" fill="white" stroke="black" stroke-width="0.2"/>
<rect x="38.1371" y="48.3946" width="3.21909" height="3.21909" fill="white" stroke="black" stroke-width="0.2"/>
<rect x="38.1371" y="51.8136" width="3.21909" height="3.21909" fill="white" stroke="black" stroke-width="0.2"/>
<rect x="38.1371" y="55.2328" width="3.21909" height="3.21909" fill="white" stroke="black" stroke-width="0.2"/>
<rect x="38.1371" y="58.6519" width="3.21909" height="3.21909" fill="white" stroke="black" stroke-width="0.2"/>
<rect x="41.5561" y="58.6519" width="3.21909" height="3.21909" fill="white" stroke="black" stroke-width="0.2"/>
<rect x="44.976" y="58.6519" width="3.21909" height="3.21909" fill="white" stroke="black" stroke-width="0.2"/>
<rect x="48.3949" y="58.6519" width="3.21909" height="3.21909" fill="white" stroke="black" stroke-width="0.2"/>
<rect x="51.8139" y="58.6519" width="3.21909" height="3.21909" fill="white" stroke="black" stroke-width="0.2"/>
<rect x="55.2328" y="58.6519" width="3.21909" height="3.21909" fill="white" stroke="black" stroke-width="0.2"/>
<rect x="58.6518" y="58.6519" width="3.21909" height="3.21909" fill="white" stroke="black" stroke-width="0.2"/>
<rect x="62.0707" y="58.6519" width="3.21909" height="3.21909" fill="white" stroke="black" stroke-width="0.2"/>
<rect x="65.4896" y="58.6519" width="3.21909" height="3.21909" fill="white" stroke="black" stroke-width="0.2"/>
<rect x="68.9096" y="58.6519" width="3.21909" height="3.21909" fill="white" stroke="black" stroke-width="0.2"/>
<rect x="68.9096" y="55.2328" width="3.21909" height="3.21909" fill="white" stroke="black" stroke-width="0.2"/>
<rect x="68.9096" y="51.8136" width="3.21909" height="3.21909" fill="white" stroke="black" stroke-width="0.2"/>
<rect x="68.9096" y="48.3946" width="3.21909" height="3.21909" fill="white" stroke="black" stroke-width="0.2"/>
<rect x="68.9096" y="44.9755" width="3.21909" height="3.21909" fill="white" stroke="black" stroke-width="0.2"/>
<rect x="68.9096" y="41.5564" width="3.21909" height="3.21909" fill="white" stroke="black" stroke-width="0.2"/>
<rect x="68.9096" y="38.1374" width="3.21909" height="3.21909" fill="white" stroke="black" stroke-width="0.2"/>
<rect x="68.9096" y="34.7183" width="3.21909" height="3.21909" fill="white" stroke="black" stroke-width="0.2"/>
<rect x="68.9096" y="31.2992" width="3.21909" height="3.21909" fill="white" stroke="black" stroke-width="0.2"/>
<rect x="68.9096" y="27.88" width="3.21909" height="3.21909" fill="white" stroke="black" stroke-width="0.2"/>
<rect x="68.9096" y="24.461" width="3.21909" height="3.21909" fill="white" stroke="black" stroke-width="0.2"/>
<rect x="65.4896" y="24.461" width="3.21909" height="3.21909" fill="white" stroke="black" stroke-width="0.2"/>
<rect x="62.0707" y="24.461" width="3.21909" height="3.21909" fill="white" stroke="black" stroke-width="0.2"/>
<rect x="58.6518" y="24.461" width="3.21909" height="3.21909" fill="white" stroke="black" stroke-width="0.2"/>
<rect x="55.2328" y="24.461" width="3.21909" height="3.21909" fill="white" stroke="black" stroke-width="0.2"/>
<rect x="51.8139" y="24.461" width="3.21909" height="3.21909" fill="white" stroke="black" stroke-width="0.2"/>
<rect x="48.3949" y="24.461" width="3.21909" height="3.21909" fill="white" stroke="black" stroke-width="0.2"/>
<rect x="44.976" y="24.461" width="3.21909" height="3.21909" fill="white" stroke="black" stroke-width="0.2"/>
<rect x="41.5561" y="24.461" width="3.21909" height="3.21909" fill="white" stroke="black" stroke-width="0.2"/>
<rect x="38.1371" y="24.461" width="3.21909" height="3.21909" fill="white" stroke="black" stroke-width="0.2"/>
<rect x="34.7182" y="24.461" width="3.21909" height="3.21909" fill="white" stroke="black" stroke-width="0.2"/>
<rect x="31.2992" y="24.461" width="3.21909" height="3.21909" fill="white" stroke="black" stroke-width="0.2"/>
<rect x="31.2992" y="27.88" width="3.21909" height="3.21909" fill="white" stroke="black" stroke-width="0.2"/>
<rect x="31.2992" y="31.2992" width="3.21909" height="3.21909" fill="white" stroke="black" stroke-width="0.2"/>
<rect x="31.2992" y="34.7183" width="3.21909" height="3.21909" fill="white" stroke="black" stroke-width="0.2"/>
<rect x="31.2992" y="38.1374" width="3.21909" height="3.21909" fill="white" stroke="black" stroke-width="0.2"/>
<rect x="31.2992" y="41.5564" width="3.21909" height="3.21909" fill="white" stroke="black" stroke-width="0.2"/>
<rect x="31.2992" y="44.9755" width="3.21909" height="3.21909" fill="white" stroke="black" stroke-width="0.2"/>
<rect x="31.2992" y="48.3946" width="3.21909" height="3.21909" fill="white" stroke="black" stroke-width="0.2"/>
<rect x="31.2992" y="51.8136" width="3.21909" height="3.21909" fill="white" stroke="black" stroke-width="0.2"/>
<rect x="31.2992" y="55.2328" width="3.21909" height="3.21909" fill="white" stroke="black" stroke-width="0.2"/>
<rect x="31.2992" y="58.6519" width="3.21909" height="3.21909" fill="white" stroke="black" stroke-width="0.2"/>
<rect x="31.2992" y="62.0709" width="3.21909" height="3.21909" fill="white" stroke="black" stroke-width="0.2"/>
<rect x="31.2992" y="65.4901" width="3.21909" height="3.21909" fill="white" stroke="black" stroke-width="0.2"/>
<rect x="34.7182" y="65.4901" width="3.21909" height="3.21909" fill="white" stroke="black" stroke-width="0.2"/>
<rect x="38.1371" y="65.4901" width="3.21909" height="3.21909" fill="white" stroke="black" stroke-width="0.2"/>
<rect x="41.5561" y="65.4901" width="3.21909" height="3.21909" fill="white" stroke="black" stroke-width="0.2"/>
<rect x="44.976" y="65.4901" width="3.21909" height="3.21909" fill="white" stroke="black" stroke-width="0.2"/>
<rect x="48.3949" y="65.4901" width="3.21909" height="3.21909" fill="white" stroke="black" stroke-width="0.2"/>
<rect x="51.8139" y="65.4901" width="3.21909" height="3.21909" fill="white" stroke="black" stroke-width="0.2"/>
<rect x="55.2328" y="65.4901" width="3.21909" height="3.21909" fill="white" stroke="black" stroke-width="0.2"/>
<rect x="58.6518" y="65.4901" width="3.21909" height="3.21909" fill="white" stroke="black" stroke-width="0.2"/>
<rect x="62.0707" y="65.4901" width="3.21909" height="3.21909" fill="white" stroke="black" stroke-width="0.2"/>
<rect x="65.4896" y="65.4901" width="3.21909" height="3.21909" fill="white" stroke="black" stroke-width="0.2"/>
<rect x="68.9096" y="65.4901" width="3.21909" height="3.21909" fill="white" stroke="black" stroke-width="0.2"/>
<rect x="72.3285" y="65.4901" width="3.21909" height="3.21909" fill="white" stroke="black" stroke-width="0.2"/>
<rect x="75.7475" y="65.4901" width="3.21909" height="3.21909" fill="white" stroke="black" stroke-width="0.2"/>
<rect x="75.7475" y="62.0709" width="3.21909" height="3.21909" fill="white" stroke="black" stroke-width="0.2"/>
<rect x="75.7475" y="58.6519" width="3.21909" height="3.21909" fill="white" stroke="black" stroke-width="0.2"/>
<rect x="75.7475" y="55.2328" width="3.21909" height="3.21909" fill="white" stroke="black" stroke-width="0.2"/>
<rect x="75.7475" y="51.8136" width="3.21909" height="3.21909" fill="white" stroke="black" stroke-width="0.2"/>
<rect x="75.7475" y="48.3946" width="3.21909" height="3.21909" fill="white" stroke="black" stroke-width="0.2"/>
<rect x="75.7475" y="44.9755" width="3.21909" height="3.21909" fill="white" stroke="black" stroke-width="0.2"/>
<rect x="75.7475" y="41.5564" width="3.21909" height="3.21909" fill="white" stroke="black" stroke-width="0.2"/>
<rect x="75.7475" y="38.1374" width="3.21909" height="3.21909" fill="white" stroke="black" stroke-width="0.2"/>
<rect x="75.7475" y="34.7183" width="3.21909" height="3.21909" fill="white" stroke="black" stroke-width="0.2"/>
<rect x="75.7475" y="31.2992" width="3.21909" height="3.21909" fill="white" stroke="black" stroke-width="0.2"/>
<rect x="75.7475" y="27.88" width="3.21909" height="3.21909" fill="white" stroke="black" stroke-width="0.2"/>
<rect x="75.7475" y="24.461" width="3.21909" height="3.21909" fill="white" stroke="black" stroke-width="0.2"/>
<rect x="75.7475" y="21.0419" width="3.21909" height="3.21909" fill="white" stroke="black" stroke-width="0.2"/>
<rect x="75.7475" y="17.6228" width="3.21909" height="3.21909" fill="white" stroke="black" stroke-width="0.2"/>
<rect x="72.3285" y="17.6228" width="3.21909" height="3.21909" fill="white" stroke="black" stroke-width="0.2"/>
<rect x="68.9096" y="17.6228" width="3.21909" height="3.21909" fill="white" stroke="black" stroke-width="0.2"/>
<rect x="65.4896" y="17.6228" width="3.21909" height="3.21909" fill="white" stroke="black" stroke-width="0.2"/>
<rect x="62.0707" y="17.6228" width="3.21909" height="3.21909" fill="white" stroke="black" stroke-width="0.2"/>
<rect x="58.6518" y="17.6228" width="3.21909" height="3.21909" fill="white" stroke="black" stroke-width="0.2"/>
<rect x="55.2328" y="17.6228" width="3.21909" height="3.21909" fill="white" stroke="black" stroke-width="0.2"/>
<rect x="51.8139" y="17.6228" width="3.21909" height="3.21909" fill="white" stroke="black" stroke-width="0.2"/>
<rect x="48.3949" y="17.6228" width="3.21909" height="3.21909" fill="white" stroke="black" stroke-width="0.2"/>
<rect x="44.976" y="17.6228" width="3.21909" height="3.21909" fill="white" stroke="black" stroke-width="0.2"/>
<rect x="41.5561" y="17.6228" width="3.21909" height="3.21909" fill="white" stroke="black" stroke-width="0.2"/>
<rect x="38.1371" y="17.6228" width="3.21909" height="3.21909" fill="white" stroke="black" stroke-width="0.2"/>
<rect x="34.7182" y="17.6228" width="3.21909" height="3.21909" fill="white" stroke="black" stroke-width="0.2"/>
<rect x="31.2992" y="17.6228" width="3.21909" height="3.21909" fill="white" stroke="black" stroke-width="0.2"/>
<rect x="27.8803" y="17.6228" width="3.21909" height="3.21909" fill="white" stroke="black" stroke-width="0.2"/>
<rect x="24.4613" y="17.6228" width="3.21909" height="3.21909" fill="white" stroke="black" stroke-width="0.2"/>
<rect x="24.4613" y="21.0419" width="3.21909" height="3.21909" fill="white" stroke="black" stroke-width="0.2"/>
<rect x="24.4613" y="24.461" width="3.21909" height="3.21909" fill="white" stroke="black" stroke-width="0.2"/>
<rect x="24.4613" y="27.88" width="3.21909" height="3.21909" fill="white" stroke="black" stroke-width="0.2"/>
<rect x="24.4613" y="31.2992" width="3.21909" height="3.21909" fill="white" stroke="black" stroke-width="0.2"/>
<rect x="24.4613" y="34.7183" width="3.21909" height="3.21909" fill="white" stroke="black" stroke-width="0.2"/>
<rect x="24.4613" y="38.1374" width="3.21909" height="3.21909" fill="white" stroke="black" stroke-width="0.2"/>
<rect x="24.4613" y="41.5564" width="3.21909" height="3.21909" fill="white" stroke="black" stroke-width="0.2"/>
<rect x="24.4613" y="44.9755" width="3.21909" height="3.21909" fill="white" stroke="black" stroke-width="0.2"/>
<rect x="24.4613" y="48.3946" width="3.21909" height="3.21909" fill="white" stroke="black" stroke-width="0.2"/>
<rect x="24.4613" y="51.8136" width="3.21909" height="3.21909" fill="white" stroke="black" stroke-width="0.2"/>
<rect x="24.4613" y="55.2328" width="3.21909" height="3.21909" fill="white" stroke="black" stroke-width="0.2"/>
<rect x="24.4613" y="58.6519" width="3.21909" height="3.21909" fill="white" stroke="black" stroke-width="0.2"/>
<rect x="24.4613" y="62.0709" width="3.21909" height="3.21909" fill="white" stroke="black" stroke-width="0.2"/>
<rect x="24.4613" y="65.4901" width="3.21909" height="3.21909" fill="white" stroke="black" stroke-width="0.2"/>
<rect x="24.4613" y="68.9092" width="3.21909" height="3.21909" fill="white" stroke="black" stroke-width="0.2"/>
<rect x="24.4613" y="72.3283" width="3.21909" height="3.21909" fill="white" stroke="black" stroke-width="0.2"/>
<rect x="27.8803" y="72.3283" width="3.21909" height="3.21909" fill="white" stroke="black" stroke-width="0.2"/>
<rect x="27.8803" y="72.3283" width="3.21909" height="3.21909" fill="white" stroke="black" stroke-width="0.2"/>
<rect x="31.2992" y="72.3283" width="3.21909" height="3.21909" fill="white" stroke="black" stroke-width="0.2"/>
<rect x="34.7182" y="72.3283" width="3.21909" height="3.21909" fill="white" stroke="black" stroke-width="0.2"/>
<rect x="38.1371" y="72.3283" width="3.21909" height="3.21909" fill="white" stroke="black" stroke-width="0.2"/>
<rect x="41.5561" y="72.3283" width="3.21909" height="3.21909" fill="white" stroke="black" stroke-width="0.2"/>
<rect x="44.976" y="72.3283" width="3.21909" height="3.21909" fill="white" stroke="black" stroke-width="0.2"/>
<rect x="48.3949" y="72.3283" width="3.21909" height="3.21909" fill="white" stroke="black" stroke-width="0.2"/>
<rect x="51.8139" y="72.3283" width="3.21909" height="3.21909" fill="white" stroke="black" stroke-width="0.2"/>
<rect x="55.2328" y="72.3283" width="3.21909" height="3.21909" fill="white" stroke="black" stroke-width="0.2"/>
<rect x="58.6518" y="72.3283" width="3.21909" height="3.21909" fill="white" stroke="black" stroke-width="0.2"/>
<rect x="62.0707" y="72.3283" width="3.21909" height="3.21909" fill="white" stroke="black" stroke-width="0.2"/>
<rect x="65.4896" y="72.3283" width="3.21909" height="3.21909" fill="white" stroke="black" stroke-width="0.2"/>
<rect x="68.9096" y="72.3283" width="3.21909" height="3.21909" fill="white" stroke="black" stroke-width="0.2"/>
<rect x="72.3285" y="72.3283" width="3.21909" height="3.21909" fill="white" stroke="black" stroke-width="0.2"/>
<rect x="75.7475" y="72.3283" width="3.21909" height="3.21909" fill="white" stroke="black" stroke-width="0.2"/>
<rect x="79.1664" y="72.3283" width="3.21909" height="3.21909" fill="white" stroke="black" stroke-width="0.2"/>
<rect x="79.1664" y="75.7473" width="3.21909" height="3.21909" fill="white" stroke="black" stroke-width="0.2"/>
<rect x="79.1664" y="79.1664" width="3.21909" height="3.21909" fill="white" stroke="black" stroke-width="0.2"/>
<rect x="75.7475" y="79.1664" width="3.21909" height="3.21909" fill="white" stroke="black" stroke-width="0.2"/>
<rect x="72.3285" y="79.1664" width="3.21909" height="3.21909" fill="white" stroke="black" stroke-width="0.2"/>
<rect x="68.9096" y="79.1664" width="3.21909" height="3.21909" fill="white" stroke="black" stroke-width="0.2"/>
<rect x="65.4896" y="79.1664" width="3.21909" height="3.21909" fill="white" stroke="black" stroke-width="0.2"/>
<rect x="62.0707" y="79.1664" width="3.21909" height="3.21909" fill="white" stroke="black" stroke-width="0.2"/>
<rect x="58.6518" y="79.1664" width="3.21909" height="3.21909" fill="white" stroke="black" stroke-width="0.2"/>
<rect x="55.2328" y="79.1664" width="3.21909" height="3.21909" fill="white" stroke="black" stroke-width="0.2"/>
<rect x="51.8139" y="79.1664" width="3.21909" height="3.21909" fill="white" stroke="black" stroke-width="0.2"/>
<rect x="48.3949" y="79.1664" width="3.21909" height="3.21909" fill="white" stroke="black" stroke-width="0.2"/>
<rect x="44.976" y="79.1664" width="3.21909" height="3.21909" fill="white" stroke="black" stroke-width="0.2"/>
<rect x="41.5561" y="79.1664" width="3.21909" height="3.21909" fill="white" stroke="black" stroke-width="0.2"/>
<rect x="38.1371" y="79.1664" width="3.21909" height="3.21909" fill="white" stroke="black" stroke-width="0.2"/>
<rect x="34.7182" y="79.1664" width="3.21909" height="3.21909" fill="white" stroke="black" stroke-width="0.2"/>
<rect x="31.2992" y="79.1664" width="3.21909" height="3.21909" fill="white" stroke="black" stroke-width="0.2"/>
<rect x="27.8803" y="79.1664" width="3.21909" height="3.21909" fill="white" stroke="black" stroke-width="0.2"/>
<rect x="27.8803" y="82.5856" width="3.21909" height="3.21909" fill="white" stroke="black" stroke-width="0.2"/>
<rect x="27.8803" y="86.0045" width="3.21909" height="3.21909" fill="white" stroke="black" stroke-width="0.2"/>
<rect x="31.2992" y="86.0045" width="3.21909" height="3.21909" fill="white" stroke="black" stroke-width="0.2"/>
<rect x="34.7182" y="86.0045" width="3.21909" height="3.21909" fill="white" stroke="black" stroke-width="0.2"/>
<rect x="38.1371" y="86.0045" width="3.21909" height="3.21909" fill="white" stroke="black" stroke-width="0.2"/>
<rect x="41.5561" y="86.0045" width="3.21909" height="3.21909" fill="white" stroke="black" stroke-width="0.2"/>
<rect x="44.976" y="86.0045" width="3.21909" height="3.21909" fill="white" stroke="black" stroke-width="0.2"/>
<path d="M57.8795 87.9227L59.2182 88.3689H55.6605V87.2868H59.2182L57.8795 87.733L57.5949 87.8278L57.8795 87.9227Z" fill="#CD9F9F" stroke="black" stroke-width="0.2"/>
<rect x="48.3949" y="84.7224" width="7.49295" height="5.7834" fill="white" stroke="black" stroke-width="0.2"/>
<circle r="1.70954" transform="matrix(1 0 0 -1 64.108 87.6141)" fill="white"/>
<circle r="1.06846" transform="matrix(1 0 0 -1 53.6368 89.9647)" fill="black"/>
<circle r="1.06846" transform="matrix(1 0 0 -1 53.6368 85.2636)" fill="black"/>
<circle r="0.427386" transform="matrix(1 0 0 -1 54.278 89.7511)" fill="white"/>
<circle r="0.427386" transform="matrix(1 0 0 -1 54.278 85.4772)" fill="white"/>
</svg>
