<svg width="250" height="250" viewBox="0 0 250 250" fill="none" xmlns="http://www.w3.org/2000/svg">
<path fill-rule="evenodd" clip-rule="evenodd" d="M214.093 212.678C236.299 190.116 250 159.158 250 125H200C200 145.351 191.894 163.809 178.735 177.321L214.093 212.678ZM178.033 178.033C164.679 191.387 146.314 199.728 126 199.993V249.996C160.121 249.729 190.986 235.79 213.388 213.388L178.033 178.033ZM72.6788 71.2646C86.1912 58.1056 104.649 50 125 50V0C90.8419 0 59.8838 13.701 37.3216 35.9074L72.6788 71.2646ZM36.6117 36.6116L71.967 71.967C58.6134 85.3205 50.272 103.686 50.0065 124H0.00390625C0.271271 89.8789 14.2097 59.0135 36.6117 36.6116ZM126 0.00391388C160.016 0.270447 190.796 14.124 213.181 36.4048L177.826 71.7603C164.49 58.5274 146.209 50.2706 126 50.0065V0.00391388ZM50 125C50 145.605 58.3095 164.27 71.7603 177.826L36.4048 213.181C13.9059 190.577 0 159.412 0 125H50ZM72.4693 178.531L37.1131 213.887C59.6929 236.214 90.7365 250 125 250V200C104.544 200 86.0001 191.81 72.4693 178.531ZM213.887 37.1131L178.531 72.4693C191.594 85.7793 199.731 103.94 199.993 124H249.996C249.731 90.1328 235.997 59.473 213.887 37.1131Z" fill="url(#paint0_radial)"/>
<defs>
<radialGradient id="paint0_radial" cx="0" cy="0" r="1" gradientUnits="userSpaceOnUse" gradientTransform="translate(125 125) rotate(146.01) scale(159.201)">
<stop stop-color="#FBE271"/>
<stop offset="1" stop-color="#FBE271" stop-opacity="0"/>
</radialGradient>
</defs>
</svg>
