<svg width="1440" height="334" viewBox="0 0 1440 334" fill="none" xmlns="http://www.w3.org/2000/svg">
<g clip-path="url(#clip0)">
<path d="M0 100.2L120 89.0318C240 78.2812 480 55.3187 720 50.0999C960 44.8812 1200 55.3187 1320 61.268L1440 66.7999V334H1320C1200 334 960 334 720 334C480 334 240 334 120 334H0V100.2Z" fill="#26E8A1"/>
<ellipse cx="53.174" cy="81.2625" rx="2.5" ry="21" transform="rotate(-15.3812 53.174 81.2625)" fill="#02A569"/>
<circle cx="47.6838" cy="57.8508" r="6" transform="rotate(-9.62154 47.6838 57.8508)" fill="#E2BC5A"/>
<circle cx="53.2069" cy="63.5074" r="3.5" transform="rotate(-9.62154 53.2069 63.5074)" fill="#F820BB"/>
<circle cx="56.482" cy="58.8951" r="3.5" transform="rotate(-9.62154 56.482 58.8951)" fill="#E927B2"/>
<circle cx="54.4933" cy="53.1465" r="3.5" transform="rotate(-9.62154 54.4933 53.1465)" fill="#F820BB"/>
<circle cx="49.881" cy="49.8716" r="3.5" transform="rotate(-9.62154 49.881 49.8716)" fill="#E927B2"/>
<circle cx="43.9654" cy="50.8741" r="3.5" transform="rotate(-9.62154 43.9654 50.8741)" fill="#F820BB"/>
<circle cx="40.6903" cy="55.4864" r="3.5" transform="rotate(-9.62154 40.6903 55.4864)" fill="#E927B2"/>
<circle cx="40.54" cy="60.5836" r="3.5" transform="rotate(-9.62154 40.54 60.5836)" fill="#F820BB"/>
<circle cx="44.1664" cy="64.0259" r="3.5" transform="rotate(-9.62154 44.1664 64.0259)" fill="#E927B2"/>
<ellipse cx="89.1216" cy="76.6846" rx="2.5" ry="21" transform="rotate(4.6714 89.1216 76.6846)" fill="#02A569"/>
<circle cx="91.9918" cy="52.8099" r="6" transform="rotate(10.4311 91.9918 52.8099)" fill="#E2BC5A"/>
<circle cx="95.2406" cy="60.0172" r="3.5" transform="rotate(10.4311 95.2406 60.0172)" fill="#F820BB"/>
<circle cx="99.8987" cy="56.8073" r="3.5" transform="rotate(10.4311 99.8987 56.8073)" fill="#E927B2"/>
<circle cx="100.001" cy="50.7257" r="3.5" transform="rotate(10.4311 100.001 50.7257)" fill="#F820BB"/>
<circle cx="96.7919" cy="46.0675" r="3.5" transform="rotate(10.4311 96.7919 46.0675)" fill="#E927B2"/>
<circle cx="90.891" cy="44.9811" r="3.5" transform="rotate(10.4311 90.891 44.9811)" fill="#F820BB"/>
<circle cx="86.2329" cy="48.1906" r="3.5" transform="rotate(10.4311 86.2329 48.1906)" fill="#E927B2"/>
<circle cx="84.3441" cy="52.9269" r="3.5" transform="rotate(10.4311 84.3441 52.9269)" fill="#F820BB"/>
<circle cx="86.5703" cy="57.404" r="3.5" transform="rotate(10.4311 86.5703 57.404)" fill="#E927B2"/>
<ellipse cx="371.201" cy="56.2665" rx="2.5" ry="21" transform="rotate(-15.4296 371.201 56.2665)" fill="#02A569"/>
<circle cx="365.691" cy="32.8591" r="6" transform="rotate(-9.66992 365.691 32.8591)" fill="#E2BC5A"/>
<circle cx="371.219" cy="38.5113" r="3.5" transform="rotate(-9.66992 371.219 38.5113)" fill="#F820BB"/>
<circle cx="374.491" cy="33.8961" r="3.5" transform="rotate(-9.66992 374.491 33.8961)" fill="#E927B2"/>
<circle cx="372.497" cy="28.1495" r="3.5" transform="rotate(-9.66992 372.497 28.1495)" fill="#F820BB"/>
<circle cx="367.882" cy="24.878" r="3.5" transform="rotate(-9.66992 367.882 24.878)" fill="#E927B2"/>
<circle cx="361.967" cy="25.8858" r="3.5" transform="rotate(-9.66992 361.967 25.8858)" fill="#F820BB"/>
<circle cx="358.696" cy="30.501" r="3.5" transform="rotate(-9.66992 358.696 30.501)" fill="#E927B2"/>
<circle cx="358.55" cy="35.5977" r="3.5" transform="rotate(-9.66992 358.55 35.5977)" fill="#F820BB"/>
<circle cx="362.179" cy="39.0372" r="3.5" transform="rotate(-9.66992 362.179 39.0372)" fill="#E927B2"/>
<ellipse cx="396.857" cy="54.0631" rx="2.5" ry="21" transform="rotate(-0.473276 396.857 54.0631)" fill="#02A569"/>
<circle cx="397.575" cy="30.0268" r="6" transform="rotate(5.28639 397.575 30.0268)" fill="#E2BC5A"/>
<circle cx="401.457" cy="36.9135" r="3.4" transform="rotate(5.28639 401.457 36.9135)" fill="white" stroke="#939393" stroke-width="0.2"/>
<circle cx="405.809" cy="33.2993" r="3.4" transform="rotate(5.28639 405.809 33.2993)" fill="white" stroke="#939393" stroke-width="0.2"/>
<circle cx="405.366" cy="27.2329" r="3.4" transform="rotate(5.28639 405.366 27.2329)" fill="white" stroke="#939393" stroke-width="0.2"/>
<circle cx="401.751" cy="22.8813" r="3.4" transform="rotate(5.28639 401.751 22.8813)" fill="white" stroke="#939393" stroke-width="0.2"/>
<circle cx="395.777" cy="22.3281" r="3.4" transform="rotate(5.28639 395.777 22.3281)" fill="white" stroke="#939393" stroke-width="0.2"/>
<circle cx="391.425" cy="25.9428" r="3.4" transform="rotate(5.28639 391.425 25.9428)" fill="white" stroke="#939393" stroke-width="0.2"/>
<circle cx="389.969" cy="30.8296" r="3.4" transform="rotate(5.28639 389.969 30.8296)" fill="white" stroke="#939393" stroke-width="0.2"/>
<circle cx="392.588" cy="35.0888" r="3.4" transform="rotate(5.28639 392.588 35.0888)" fill="white" stroke="#939393" stroke-width="0.2"/>
<ellipse cx="922.5" cy="37" rx="2.5" ry="21" transform="rotate(-5.75967 922.5 37)" fill="#02A569"/>
<circle cx="921" cy="13" r="6" fill="#E2BC5A"/>
<circle cx="925.5" cy="19.5" r="3.5" fill="#F820BB"/>
<circle cx="929.5" cy="15.5" r="3.5" fill="#E927B2"/>
<circle cx="928.5" cy="9.5" r="3.5" fill="#F820BB"/>
<circle cx="924.5" cy="5.5" r="3.5" fill="#E927B2"/>
<circle cx="918.5" cy="5.5" r="3.5" fill="#F820BB"/>
<circle cx="914.5" cy="9.5" r="3.5" fill="#E927B2"/>
<circle cx="913.5" cy="14.5" r="3.5" fill="#F820BB"/>
<circle cx="916.5" cy="18.5" r="3.5" fill="#E927B2"/>
<ellipse cx="947.5" cy="37" rx="2.5" ry="21" transform="rotate(-5.75967 947.5 37)" fill="#02A569"/>
<circle cx="946" cy="13" r="6" fill="#E2BC5A"/>
<circle cx="950.5" cy="19.5" r="3.4" fill="white" stroke="#424242" stroke-width="0.2"/>
<circle cx="954.5" cy="15.5" r="3.4" fill="white" stroke="#424242" stroke-width="0.2"/>
<circle cx="953.5" cy="9.5" r="3.4" fill="white" stroke="#424242" stroke-width="0.2"/>
<circle cx="949.5" cy="5.5" r="3.4" fill="white" stroke="#424242" stroke-width="0.2"/>
<circle cx="943.5" cy="5.5" r="3.4" fill="white" stroke="#424242" stroke-width="0.2"/>
<circle cx="939.5" cy="9.5" r="3.4" fill="white" stroke="#424242" stroke-width="0.2"/>
<circle cx="938.5" cy="14.5" r="3.4" fill="white" stroke="#424242" stroke-width="0.2"/>
<circle cx="941.5" cy="18.5" r="3.4" fill="white" stroke="#424242" stroke-width="0.2"/>
<ellipse cx="972.008" cy="37.9319" rx="2.5" ry="21" transform="rotate(7.47195 972.008 37.9319)" fill="#02A569"/>
<circle cx="976.041" cy="14.2258" r="6" transform="rotate(13.2316 976.041 14.2258)" fill="#E2BC5A"/>
<circle cx="978.934" cy="21.5832" r="3.5" transform="rotate(13.2316 978.934 21.5832)" fill="#F82020"/>
<circle cx="983.743" cy="18.6052" r="3.5" transform="rotate(13.2316 983.743 18.6052)" fill="#C70000"/>
<circle cx="984.143" cy="12.5353" r="3.5" transform="rotate(13.2316 984.143 12.5353)" fill="#F82020"/>
<circle cx="981.165" cy="7.72577" r="3.5" transform="rotate(13.2316 981.165 7.72577)" fill="#C70000"/>
<circle cx="975.324" cy="6.35272" r="3.5" transform="rotate(13.2316 975.324 6.35272)" fill="#F82020"/>
<circle cx="970.515" cy="9.33075" r="3.5" transform="rotate(13.2316 970.515 9.33075)" fill="#C70000"/>
<circle cx="968.397" cy="13.9694" r="3.5" transform="rotate(13.2316 968.397 13.9694)" fill="#F82020"/>
<circle cx="970.402" cy="18.5495" r="3.5" transform="rotate(13.2316 970.402 18.5495)" fill="#C70000"/>
<ellipse cx="71.4999" cy="79" rx="2.5" ry="21" transform="rotate(-5.75967 71.4999 79)" fill="#02A569"/>
<circle cx="70" cy="55" r="6" fill="#E2BC5A"/>
<circle cx="74.5" cy="61.5" r="3.5" fill="#F82020"/>
<circle cx="78.5" cy="57.5" r="3.5" fill="#C70000"/>
<circle cx="77.5" cy="51.5" r="3.5" fill="#F82020"/>
<circle cx="73.5" cy="47.5" r="3.5" fill="#C70000"/>
<circle cx="67.5" cy="47.5" r="3.5" fill="#F82020"/>
<circle cx="63.5" cy="51.5" r="3.5" fill="#C70000"/>
<circle cx="62.5" cy="56.5" r="3.5" fill="#F82020"/>
<circle cx="65.5" cy="60.5" r="3.5" fill="#C70000"/>
</g>
<defs>
<clipPath id="clip0">
<rect width="1440" height="334" fill="white"/>
</clipPath>
</defs>
</svg>
